<svg width="1920" height="1080" viewBox="0 0 1920 1080" fill="none" xmlns="http://www.w3.org/2000/svg">
<rect width="1920" height="1080" fill="white"/>
<rect x="132" width="1788" height="1080" fill="white"/>
<path opacity="0.4" d="M114.88 173.92C113.307 164.507 104.267 156.853 94.7201 156.853C84.3468 156.853 75.2268 165.253 74.3468 175.6C74.0001 179.6 75.2801 183.387 77.9201 186.24C80.5334 189.093 84.2134 190.667 88.2134 190.667H100.693C105.2 190.667 109.147 188.907 111.84 185.733C114.533 182.56 115.6 178.347 114.88 173.92Z" fill="#FF8B00"/>
<path d="M91.4129 152.96C95.7281 152.96 99.2263 149.462 99.2263 145.147C99.2263 140.831 95.7281 137.333 91.4129 137.333C87.0978 137.333 83.5996 140.831 83.5996 145.147C83.5996 149.462 87.0978 152.96 91.4129 152.96Z" fill="#FF8B00"/>
<path d="M109.174 156.08C112.767 156.08 115.68 153.167 115.68 149.573C115.68 145.98 112.767 143.067 109.174 143.067C105.58 143.067 102.667 145.98 102.667 149.573C102.667 153.167 105.58 156.08 109.174 156.08Z" fill="#FF8B00"/>
<path d="M118.8 166.48C121.671 166.48 124 164.152 124 161.28C124 158.408 121.671 156.08 118.8 156.08C115.928 156.08 113.6 158.408 113.6 161.28C113.6 164.152 115.928 166.48 118.8 166.48Z" fill="#FF8B00"/>
<path d="M74.5067 161.28C78.1002 161.28 81.0133 158.367 81.0133 154.773C81.0133 151.18 78.1002 148.267 74.5067 148.267C70.9131 148.267 68 151.18 68 154.773C68 158.367 70.9131 161.28 74.5067 161.28Z" fill="#FF8B00"/>
<path d="M96 860L96 615.955" stroke="#150A02" stroke-width="1.6"/>
<path d="M119.995 597.301C120.006 597.678 119.692 597.981 119.314 597.953C117.007 597.789 114.593 597.641 112.069 597.509C109.292 597.364 106.539 597.245 103.809 597.154C101.079 597.063 98.5086 596.981 96.1022 596.913C93.6957 596.843 91.5866 596.798 89.7732 596.775C88.2478 596.757 87.0368 596.744 86.1402 596.741C85.8569 596.741 85.6047 596.559 85.5284 596.287C85.2918 595.446 85.1175 594.502 85.007 593.455C84.898 592.425 84.8342 591.422 84.8155 590.445C84.8093 590.106 85.0724 589.824 85.4133 589.799C85.7604 589.774 86.1417 589.752 86.5573 589.734L86.9169 589.718C87.4492 589.695 87.7248 589.08 87.3823 588.675C87.2516 588.521 87.1161 588.354 86.9745 588.171C86.411 587.451 85.9145 586.549 85.4817 585.461C85.0506 584.373 84.8342 583.125 84.8342 581.716C84.8342 578.606 85.8257 576.305 87.8073 574.811C89.7903 573.318 92.547 572.571 96.0804 572.571C98.5647 572.571 100.71 573.038 102.514 573.973C104.319 574.908 105.703 576.178 106.668 577.787C107.632 579.396 108.114 581.234 108.114 583.302C108.114 584.237 107.994 585.182 107.756 586.139C107.518 587.097 107.216 587.947 106.853 588.689C106.743 588.915 106.634 589.119 106.526 589.301C106.282 589.714 106.575 590.232 107.056 590.25C107.239 590.258 107.437 590.266 107.652 590.275C108.516 590.313 109.5 590.355 110.603 590.402C111.705 590.448 112.829 590.505 113.97 590.575C115.111 590.644 116.165 590.709 117.128 590.769C117.835 590.814 118.426 590.859 118.906 590.904C119.192 590.93 119.424 591.137 119.477 591.418C119.602 592.092 119.698 592.799 119.768 593.539C119.852 594.451 119.914 595.304 119.953 596.101C119.975 596.556 119.991 596.958 120 597.307L119.995 597.301ZM100.937 584.4C100.937 583.343 100.721 582.455 100.289 581.734C99.8582 581.014 99.2355 580.47 98.4261 580.104C97.6167 579.736 96.6485 579.552 95.5216 579.552C94.0102 579.552 92.8458 579.901 92.0271 580.598C91.2099 581.295 90.8005 582.417 90.8005 583.965C90.8005 584.9 90.9468 585.75 91.241 586.515C91.5352 587.281 91.8854 587.927 92.2948 588.456C92.6373 588.898 92.9595 589.252 93.263 589.516C93.3751 589.613 93.5152 589.661 93.6646 589.664C93.8701 589.667 94.1378 589.675 94.4693 589.686C94.9394 589.701 95.4562 589.717 96.0197 589.732C96.5832 589.748 97.1108 589.763 97.6043 589.779C97.9483 589.79 98.2409 589.797 98.4806 589.8C98.6612 589.803 98.8324 589.734 98.9538 589.603C99.1686 589.368 99.4052 589.074 99.6636 588.723C100.003 588.264 100.3 587.681 100.554 586.977C100.809 586.272 100.935 585.414 100.935 584.403L100.937 584.4Z" fill="#150A02"/>
<path d="M110.254 547.911C110.484 547.791 110.771 547.828 110.962 548.001C111.376 548.376 111.785 548.82 112.189 549.33C112.698 549.973 113.157 550.743 113.566 551.639C113.975 552.535 114.299 553.557 114.539 554.707C114.779 555.855 114.897 557.142 114.897 558.567C114.897 560.881 114.453 562.933 113.566 564.725C112.679 566.517 111.36 567.915 109.609 568.918C107.858 569.921 105.679 570.423 103.072 570.423C100.465 570.423 98.1935 569.902 96.2571 568.86C94.3208 567.819 92.8171 566.364 91.7446 564.494C90.6722 562.626 90.1367 560.444 90.1367 557.946C90.1367 554.79 91.0193 552.305 92.786 550.489C94.5527 548.675 96.9949 547.729 100.11 547.652C100.681 547.636 101.198 547.644 101.66 547.675C101.946 547.693 102.244 547.724 102.553 547.766C102.882 547.811 103.128 548.089 103.118 548.417C103.111 548.659 103.103 548.962 103.095 549.327C103.08 550.078 103.061 550.923 103.038 551.866C103.014 552.809 102.995 553.697 102.98 554.532C102.964 555.367 102.957 555.983 102.957 556.382C102.957 557.714 103.019 559.005 103.142 560.253C103.265 561.502 103.397 562.547 103.536 563.389C103.813 563.389 104.088 563.369 104.357 563.332C104.627 563.293 104.887 563.236 105.133 563.159C105.766 562.96 106.305 562.612 106.753 562.114C107.201 561.617 107.544 561.019 107.783 560.321C108.023 559.624 108.141 558.886 108.141 558.104C108.141 557.399 108.053 556.751 107.875 556.163C107.698 555.574 107.463 555.033 107.169 554.543C106.876 554.053 106.555 553.605 106.208 553.198C106 552.954 105.791 552.719 105.586 552.494C105.355 552.243 105.354 551.866 105.592 551.623C105.671 551.542 105.762 551.45 105.863 551.348C106.241 550.965 106.703 550.537 107.251 550.061C107.799 549.586 108.373 549.134 108.974 548.706C109.427 548.383 109.854 548.117 110.255 547.907L110.254 547.911ZM98.3227 563.008C98.7507 563.113 99.143 562.736 99.0885 562.301C99.0247 561.794 98.964 561.224 98.9048 560.592C98.813 559.581 98.7663 558.41 98.7663 557.076C98.7663 556.356 98.7741 555.717 98.7897 555.158C98.7943 554.991 98.799 554.838 98.8037 554.701C98.8177 554.288 98.4425 553.979 98.0347 554.056C97.9491 554.073 97.8619 554.092 97.7717 554.112C97.2471 554.234 96.7459 554.476 96.268 554.835C95.7902 555.195 95.4041 555.654 95.1115 556.214C94.8189 556.773 94.671 557.442 94.671 558.224C94.671 559.204 94.8874 560.059 95.3185 560.787C95.7497 561.515 96.3132 562.077 97.0074 562.476C97.4308 562.719 97.8697 562.896 98.3227 563.009L98.3227 563.008Z" fill="#150A02"/>
<path d="M105.618 529.294C105.836 529.112 106.142 529.099 106.384 529.251C106.83 529.532 107.296 529.908 107.781 530.379C108.421 530.999 108.969 531.804 109.425 532.792C109.88 533.779 110.109 534.979 110.109 536.388C110.109 538.241 109.715 539.754 108.929 540.926C108.141 542.097 107.093 542.963 105.781 543.522C104.471 544.082 103.036 544.361 101.477 544.361C100.629 544.361 99.7232 544.35 98.7581 544.327C97.7946 544.304 96.8373 544.278 95.8894 544.247C94.9398 544.216 94.0386 544.182 93.1825 544.143C92.3264 544.105 91.5746 544.068 90.9255 544.029C90.6468 544.012 90.3962 543.998 90.1721 543.986C89.7767 543.964 89.4576 544.303 89.4997 544.692C89.6008 545.619 89.7098 546.489 89.8265 547.302C89.9137 547.916 89.9915 548.417 90.06 548.806C90.1223 549.157 89.8857 549.494 89.5308 549.548C88.8786 549.648 88.2171 549.727 87.5462 549.784C86.6511 549.862 85.8729 549.919 85.2098 549.957C84.9623 549.971 84.749 549.984 84.5731 549.993C84.2385 550.01 83.949 549.772 83.9069 549.443C83.8135 548.723 83.7279 547.964 83.6485 547.166C83.5676 546.347 83.5038 545.493 83.4586 544.604C83.4415 544.258 83.1551 543.984 82.8064 543.993C82.4998 544.001 82.1278 544.01 81.6935 544.018C80.9059 544.034 80.1976 544.057 79.5641 544.088C78.9929 544.103 78.4185 544.134 77.8394 544.179C77.5577 544.202 77.304 544.222 77.0752 544.241C76.7234 544.27 76.4136 544.01 76.3841 543.66L75.9 538.181C75.8673 537.81 76.1584 537.49 76.5335 537.487C76.7063 537.485 76.9071 537.482 77.1343 537.481C77.813 537.473 78.6302 537.47 79.5875 537.47C80.0653 537.47 80.6179 537.462 81.2421 537.447C81.6406 537.437 82.0328 537.427 82.4204 537.417C82.7831 537.408 83.0633 537.108 83.0446 536.748C83.0259 536.388 83.0072 536.034 82.9886 535.631C82.9574 534.957 82.9341 534.421 82.9185 534.022C82.8874 533.379 82.8687 532.796 82.8609 532.275C82.8531 531.755 82.85 531.322 82.85 530.977C82.85 530.633 82.8578 530.399 82.8734 530.277C83.5987 530.186 84.5202 530.124 85.6394 530.093C86.4862 530.07 87.2598 530.056 87.9618 530.05C88.3136 530.047 88.6015 530.327 88.6062 530.676C88.6093 530.906 88.6155 531.194 88.6249 531.541C88.6482 532.384 88.6825 533.211 88.7292 534.023C88.7447 534.591 88.7759 535.218 88.821 535.907C88.849 536.317 88.8755 536.674 88.9035 536.98C88.9315 537.286 89.1915 537.549 89.5137 537.563C89.7409 537.572 89.9993 537.583 90.2904 537.595C90.8539 537.618 91.4858 537.641 92.1878 537.665C92.8899 537.688 93.6152 537.711 94.3624 537.734C95.1111 537.757 95.8318 537.776 96.526 537.791C97.2202 537.807 97.8382 537.815 98.3767 537.815C99.3947 537.815 100.308 537.765 101.119 537.665C101.929 537.566 102.57 537.343 103.04 536.999C103.51 536.654 103.747 536.122 103.747 535.402C103.747 534.928 103.608 534.521 103.33 534.184C103.053 533.847 102.724 533.568 102.346 533.345L102.167 533.24C101.776 533.011 101.742 532.466 102.098 532.187C102.206 532.104 102.32 532.014 102.438 531.92C102.892 531.56 103.367 531.177 103.861 530.772C104.354 530.365 104.794 529.999 105.18 529.668C105.352 529.523 105.498 529.398 105.621 529.296L105.618 529.294Z" fill="#150A02"/>
<path d="M88.6234 522.366C88.6234 523.744 88.2187 524.902 87.4077 525.835C86.5983 526.77 85.5305 527.237 84.2027 527.237C83.2921 527.237 82.5139 527.015 81.8648 526.571C81.2172 526.127 80.7191 525.549 80.372 524.837C80.0249 524.124 79.8506 523.37 79.8506 522.574C79.8506 521.302 80.2677 520.25 81.1005 519.415C81.9333 518.581 83.0057 518.163 84.3179 518.163C85.5367 518.163 86.5594 518.562 87.3844 519.358C88.2093 520.154 88.6234 521.159 88.6234 522.369L88.6234 522.366ZM112.297 519.697C112.594 519.744 112.819 519.981 112.84 520.279C112.859 520.539 112.882 520.871 112.912 521.273C112.966 522.001 112.993 522.771 112.993 523.582C112.993 524.18 112.973 524.781 112.935 525.386C112.912 525.763 112.882 526.134 112.85 526.501C112.819 526.857 112.495 527.117 112.137 527.073C111.69 527.021 111.085 526.964 110.32 526.902C109.078 526.801 107.617 526.702 105.935 526.603C104.254 526.504 102.514 526.404 100.718 526.305C98.92 526.205 97.2343 526.129 95.6606 526.075C94.3967 526.032 93.332 526.007 92.465 525.998C92.1256 525.994 91.8517 525.733 91.8346 525.396C91.8237 525.177 91.8097 524.925 91.7957 524.639C91.7645 524.041 91.7381 523.398 91.7147 522.709C91.6914 522.019 91.668 521.361 91.6447 520.734C91.6322 520.386 91.6229 520.078 91.6166 519.811C91.6089 519.476 91.8657 519.2 92.2019 519.168C92.6486 519.125 93.223 519.088 93.9235 519.057C94.9882 519.01 96.1758 518.987 97.488 518.987C98.892 518.987 100.38 519.007 101.954 519.044C103.527 519.083 105.051 519.136 106.524 519.205C107.998 519.275 109.293 519.363 110.412 519.469C111.198 519.545 111.827 519.621 112.297 519.697Z" fill="#FF8B00"/>
<path d="M82.8624 495.266C82.8499 494.103 82.7192 492.936 82.3721 491.827C82.3705 491.819 82.3674 491.813 82.3659 491.805C82.1402 491.088 81.8709 490.612 81.558 490.377C81.4397 490.287 81.3261 490.236 81.2171 490.226C81.2794 490.575 81.2716 490.977 81.1938 491.431C81.1159 491.884 80.842 492.422 80.3672 493.043C79.5547 494.106 78.5196 494.626 77.2634 494.598C76.0057 494.572 74.8866 494.188 73.9044 493.448C72.9518 492.731 72.3634 491.875 72.1392 490.881C71.9151 489.886 71.9618 488.873 72.2778 487.844C72.5953 486.815 73.0763 485.878 73.7191 485.037C74.4071 484.136 75.2352 483.404 76.205 482.841C77.1747 482.279 78.2363 482.014 79.3944 482.048C80.5525 482.082 81.7557 482.569 83.0072 483.51C85.0167 485.022 86.469 486.843 87.3624 488.971C88.2574 491.099 88.6341 493.31 88.6092 495.61C88.6046 495.984 88.6139 496.731 88.6201 497.103C88.6357 497.945 88.6902 498.772 88.7244 499.585C88.7478 500.151 88.7711 500.78 88.8163 501.469C88.8443 501.879 88.8707 502.236 88.8987 502.542C88.9268 502.862 89.1867 503.11 89.5105 503.124C89.7377 503.134 89.9961 503.144 90.2872 503.157C90.8507 503.18 91.4826 503.203 92.1847 503.225C92.8867 503.248 93.612 503.271 94.3592 503.293C95.1079 503.316 95.8286 503.335 96.5228 503.35C97.217 503.365 97.835 503.373 98.3736 503.373C99.3915 503.373 100.305 503.324 101.116 503.223C101.926 503.123 102.567 502.902 103.037 502.557C103.507 502.213 103.744 501.679 103.744 500.959C103.744 500.485 103.605 500.08 103.327 499.743C103.049 499.404 102.721 499.126 102.343 498.904L102.164 498.799C101.773 498.57 101.739 498.024 102.095 497.746C102.203 497.663 102.316 497.573 102.435 497.479C102.889 497.119 103.364 496.735 103.857 496.329C104.351 495.924 104.791 495.556 105.177 495.227C105.349 495.082 105.495 494.956 105.618 494.854C105.836 494.672 106.142 494.658 106.384 494.811C106.829 495.092 107.296 495.468 107.781 495.939C108.421 496.561 108.969 497.364 109.425 498.352C109.88 499.341 110.108 500.54 110.108 501.948C110.108 503.801 109.715 505.314 108.929 506.486C108.141 507.657 107.093 508.524 105.781 509.082C104.471 509.642 103.035 509.921 101.477 509.921C100.629 509.921 99.7231 509.911 98.758 509.886C97.7945 509.863 96.8372 509.838 95.8893 509.806C94.9398 509.775 94.0385 509.741 93.1824 509.702C92.3263 509.663 91.5745 509.626 90.9254 509.588C90.6468 509.571 90.3962 509.557 90.172 509.544C89.7767 509.523 89.4576 509.861 89.4996 510.251C89.6008 511.178 89.7097 512.048 89.8249 512.861C89.9121 513.475 89.9899 513.975 90.0584 514.365C90.1207 514.716 89.8841 515.053 89.5292 515.107C88.877 515.207 88.2154 515.286 87.5445 515.343C86.6495 515.42 85.8712 515.478 85.2081 515.516C84.9606 515.53 84.7474 515.542 84.5715 515.55C84.2368 515.567 83.9473 515.329 83.9053 515C83.8119 514.28 83.7263 513.521 83.6469 512.723C83.566 511.904 83.5021 511.05 83.457 510.161C83.4399 509.815 83.1535 509.541 82.8048 509.551C82.4966 509.558 82.1261 509.568 81.6919 509.575C80.9042 509.591 80.196 509.614 79.5625 509.645C78.9912 509.66 78.4169 509.691 77.8378 509.738C77.5561 509.759 77.3024 509.779 77.0735 509.798C76.7218 509.827 76.4136 509.568 76.3824 509.217L75.8983 503.738C75.8656 503.367 76.1583 503.047 76.5319 503.044C76.7046 503.042 76.9039 503.041 77.1327 503.038C77.8114 503.03 78.6285 503.025 79.5858 503.025C80.0637 503.025 80.6163 503.018 81.2405 503.002C81.6374 502.993 82.0312 502.982 82.4188 502.973C82.7815 502.964 83.0616 502.664 83.043 502.304C83.0243 501.944 83.0056 501.59 82.9869 501.186C82.9558 500.512 82.934 499.976 82.9169 499.577C82.8889 498.933 82.8671 498.352 82.8593 497.831C82.8515 497.31 82.8484 496.877 82.8484 496.533L82.8655 495.259L82.8624 495.266Z" fill="#FF8B00"/>
<path d="M96 464.045L96 220" stroke="#150A02" stroke-width="1.6"/>
<path d="M77.149 932.024C74.5677 932.024 72.3703 931.384 70.557 930.104C68.7437 928.824 67.261 927.096 66.109 924.92C64.957 922.723 64.1143 920.227 63.581 917.432C63.069 914.637 62.813 911.715 62.813 908.664C62.813 904.931 63.261 901.517 64.157 898.424C65.0743 895.309 66.5783 892.824 68.669 890.968C70.781 889.112 73.6077 888.184 77.149 888.184C79.709 888.184 81.8743 888.749 83.645 889.88C85.437 890.989 86.8663 892.557 87.933 894.584C88.9997 896.611 89.7783 898.979 90.269 901.688C90.7597 904.397 91.005 907.331 91.005 910.488C91.005 913.368 90.7277 916.109 90.173 918.712C89.6397 921.293 88.8077 923.587 87.677 925.592C86.5463 927.576 85.1063 929.144 83.357 930.296C81.6077 931.448 79.5383 932.024 77.149 932.024ZM77.117 922.392C78.0557 922.392 78.8343 922.061 79.453 921.4C80.093 920.739 80.6157 919.8 81.021 918.584C81.4477 917.368 81.757 915.939 81.949 914.296C82.141 912.632 82.237 910.819 82.237 908.856C82.237 907.405 82.141 905.965 81.949 904.536C81.757 903.107 81.4583 901.805 81.053 900.632C80.669 899.459 80.1463 898.52 79.485 897.816C78.845 897.112 78.0557 896.76 77.117 896.76C76.1783 896.76 75.3783 897.123 74.717 897.848C74.0557 898.573 73.5223 899.523 73.117 900.696C72.733 901.869 72.445 903.16 72.253 904.568C72.061 905.955 71.965 907.309 71.965 908.632C71.965 912.088 72.1783 914.819 72.605 916.824C73.0317 918.829 73.629 920.259 74.397 921.112C75.1863 921.965 76.093 922.392 77.117 922.392ZM122.234 893.912C120.634 894.403 119.044 895.139 117.466 896.12C115.887 897.101 114.394 898.243 112.986 899.544C111.599 900.845 110.372 902.232 109.306 903.704C108.26 905.155 107.46 906.605 106.906 908.056C107.631 907.245 108.548 906.552 109.658 905.976C110.788 905.379 112.004 904.931 113.306 904.632C114.607 904.333 115.876 904.184 117.114 904.184C119.354 904.184 121.295 904.621 122.938 905.496C124.602 906.349 125.882 907.64 126.778 909.368C127.674 911.075 128.122 913.24 128.122 915.864C128.122 918.936 127.418 921.635 126.01 923.96C124.623 926.285 122.735 928.088 120.346 929.368C117.978 930.648 115.332 931.288 112.41 931.288C109.21 931.288 106.511 930.595 104.314 929.208C102.116 927.821 100.442 925.88 99.2895 923.384C98.1588 920.888 97.5935 918.008 97.5935 914.744C97.5935 911.587 98.0522 908.568 98.9695 905.688C99.9082 902.787 101.252 900.109 103.002 897.656C104.772 895.203 106.906 893.048 109.402 891.192C111.919 889.315 114.756 887.821 117.914 886.712C118.383 887.075 118.916 887.661 119.514 888.472C120.111 889.283 120.666 890.179 121.178 891.16C121.69 892.12 122.042 893.037 122.234 893.912ZM108.506 914.392C108.122 914.84 107.823 915.352 107.61 915.928C107.418 916.483 107.322 917.048 107.322 917.624C107.322 919.224 107.844 920.493 108.89 921.432C109.935 922.371 111.322 922.84 113.05 922.84C114.33 922.84 115.45 922.541 116.41 921.944C117.391 921.347 118.148 920.568 118.682 919.608C119.215 918.627 119.482 917.592 119.482 916.504C119.482 914.989 119.066 913.827 118.234 913.016C117.402 912.184 116.271 911.768 114.842 911.768C113.562 911.768 112.356 912.013 111.226 912.504C110.116 912.973 109.21 913.603 108.506 914.392Z" fill="#150A02"/>
<path d="M921.86 200.848C921.956 199.088 922.052 196.704 922.148 193.696C922.244 190.656 922.324 187.248 922.388 183.472C922.452 179.664 922.484 175.744 922.484 171.712C922.484 167.68 922.452 163.696 922.388 159.76C922.324 155.792 922.244 152.128 922.148 148.768C922.052 145.408 921.956 142.592 921.86 140.32C922.788 140.192 924.244 140.048 926.228 139.888C928.212 139.728 930.276 139.648 932.42 139.648C933.444 139.648 934.644 139.68 936.02 139.744C937.396 139.808 938.324 139.888 938.804 139.984C938.868 141.648 938.884 143.76 938.852 146.32C938.852 148.88 938.804 151.744 938.708 154.912C938.644 158.08 938.548 161.44 938.42 164.992C938.292 168.512 938.148 172.048 937.988 175.6C937.892 177.488 937.78 179.328 937.652 181.12C937.556 182.88 937.444 184.384 937.316 185.632C939.844 185.472 942.34 185.344 944.804 185.248C947.268 185.152 949.732 185.072 952.196 185.008C954.692 184.944 957.188 184.912 959.684 184.912C959.812 185.744 959.924 187.056 960.02 188.848C960.116 190.64 960.196 192.56 960.26 194.608C960.324 196.624 960.356 198.384 960.356 199.888C956.516 200.4 952.628 200.784 948.692 201.04C944.788 201.264 941.076 201.392 937.556 201.424C934.644 201.456 931.828 201.424 929.108 201.328C926.42 201.2 924.004 201.04 921.86 200.848ZM992.081 203.056C983.601 203.056 977.217 200.816 972.929 196.336C968.641 191.824 966.497 185.28 966.497 176.704C966.497 170.976 967.601 166.224 969.809 162.448C972.017 158.64 975.073 155.776 978.977 153.856C982.913 151.936 987.457 150.976 992.609 150.976C997.857 150.976 1002.21 152.176 1005.67 154.576C1009.15 156.976 1011.76 160.288 1013.49 164.512C1015.22 168.736 1016.08 173.616 1016.08 179.152C1016.08 183.984 1015.15 188.192 1013.3 191.776C1011.44 195.36 1008.72 198.144 1005.14 200.128C1001.59 202.08 997.233 203.056 992.081 203.056ZM991.553 189.28C993.313 189.28 994.865 188.976 996.209 188.368C997.585 187.76 998.737 186.896 999.665 185.776C1000.63 184.624 1001.35 183.28 1001.83 181.744C1002.31 180.208 1002.55 178.528 1002.55 176.704C1002.55 173.856 1002.13 171.344 1001.3 169.168C1000.5 166.96 999.297 165.248 997.697 164.032C996.129 162.784 994.177 162.16 991.841 162.16C989.313 162.16 987.249 162.8 985.649 164.08C984.049 165.36 982.865 167.04 982.097 169.12C981.361 171.168 980.993 173.36 980.993 175.696C980.993 179.632 981.889 182.88 983.681 185.44C985.505 188 988.129 189.28 991.553 189.28ZM1050.92 189.664C1044.4 189.664 1039.21 188.736 1035.37 186.88C1031.56 185.024 1028.84 182.64 1027.21 179.728C1025.58 176.784 1024.76 173.696 1024.76 170.464C1024.76 166.304 1025.85 162.8 1028.03 159.952C1030.2 157.104 1033.16 154.96 1036.91 153.52C1040.65 152.048 1044.92 151.312 1049.72 151.312C1057.44 151.312 1063.2 153.008 1067 156.4C1070.84 159.792 1072.76 164.288 1072.76 169.888C1072.76 174.24 1071.84 177.888 1069.98 180.832C1068.16 183.744 1065.61 185.952 1062.35 187.456C1059.08 188.928 1055.28 189.664 1050.92 189.664ZM1048.76 225.952C1043.77 225.952 1039.23 225.472 1035.13 224.512C1031.07 223.584 1027.82 221.92 1025.39 219.52C1022.99 217.152 1021.79 213.824 1021.79 209.536C1021.79 206.88 1022.65 204.416 1024.38 202.144C1026.11 199.904 1028.59 198.064 1031.82 196.624C1035.05 195.152 1038.88 194.288 1043.29 194.032C1045.28 193.904 1047.37 193.824 1049.58 193.792C1051.82 193.728 1054.44 193.696 1057.45 193.696C1062.54 193.696 1066.7 194.832 1069.93 197.104C1073.2 199.344 1074.83 202.944 1074.83 207.904C1074.83 212.256 1073.68 215.76 1071.37 218.416C1069.1 221.072 1066 222.992 1062.06 224.176C1058.16 225.36 1053.72 225.952 1048.76 225.952ZM1049.2 216.64C1051.37 216.64 1053.31 216.416 1055 215.968C1056.7 215.52 1058.04 214.816 1059.04 213.856C1060.03 212.896 1060.52 211.632 1060.52 210.064C1060.52 208.688 1060.12 207.6 1059.32 206.8C1058.56 206.032 1057.56 205.488 1056.35 205.168C1055.16 204.848 1053.93 204.688 1052.65 204.688C1051.79 204.688 1050.8 204.688 1049.68 204.688C1048.56 204.688 1047.45 204.688 1046.36 204.688C1045.31 204.688 1044.43 204.688 1043.72 204.688C1042.54 204.688 1041.44 204.832 1040.41 205.12C1039.42 205.44 1038.6 206 1037.96 206.8C1037.36 207.6 1037.05 208.736 1037.05 210.208C1037.05 211.68 1037.58 212.896 1038.64 213.856C1039.69 214.816 1041.13 215.52 1042.96 215.968C1044.78 216.416 1046.86 216.64 1049.2 216.64ZM1037.29 198.976C1032.94 198.08 1029.9 196.848 1028.17 195.28C1026.48 193.712 1025.63 191.968 1025.63 190.048C1025.63 188.544 1025.96 187.248 1026.64 186.16C1027.31 185.04 1028.11 184.144 1029.04 183.472C1030 182.768 1030.91 182.304 1031.77 182.08L1041.28 186.88C1040.06 187.296 1039.15 187.84 1038.54 188.512C1037.96 189.152 1037.68 189.808 1037.68 190.48C1037.68 191.376 1038.16 192.192 1039.12 192.928C1040.11 193.664 1041.5 194.032 1043.29 194.032L1037.29 198.976ZM1049.63 178.24C1051.68 178.24 1053.4 177.92 1054.81 177.28C1056.22 176.64 1057.28 175.696 1057.98 174.448C1058.72 173.2 1059.08 171.68 1059.08 169.888C1059.08 168.416 1058.67 167.12 1057.84 166C1057.04 164.88 1055.96 164.016 1054.62 163.408C1053.31 162.768 1051.85 162.448 1050.25 162.448C1047.63 162.448 1045.28 163.008 1043.2 164.128C1041.15 165.248 1040.12 167.232 1040.12 170.08C1040.12 172.736 1041.02 174.768 1042.81 176.176C1044.64 177.552 1046.91 178.24 1049.63 178.24ZM1068.73 163.408L1060.28 156.304C1060.67 155.056 1061.39 153.728 1062.44 152.32C1063.53 150.88 1064.76 149.552 1066.14 148.336C1067.55 147.088 1068.91 146.144 1070.22 145.504C1070.67 146.176 1071.31 147.104 1072.14 148.288C1072.97 149.472 1073.84 150.672 1074.73 151.888C1075.63 153.104 1076.4 154.112 1077.04 154.912C1076.3 155.264 1075.5 155.744 1074.64 156.352C1073.8 156.928 1072.99 157.6 1072.19 158.368C1071.39 159.104 1070.68 159.904 1070.08 160.768C1069.47 161.632 1069.02 162.512 1068.73 163.408ZM1107.39 203.056C1098.91 203.056 1092.53 200.816 1088.24 196.336C1083.95 191.824 1081.81 185.28 1081.81 176.704C1081.81 170.976 1082.91 166.224 1085.12 162.448C1087.33 158.64 1090.39 155.776 1094.29 153.856C1098.23 151.936 1102.77 150.976 1107.92 150.976C1113.17 150.976 1117.52 152.176 1120.98 154.576C1124.47 156.976 1127.07 160.288 1128.8 164.512C1130.53 168.736 1131.39 173.616 1131.39 179.152C1131.39 183.984 1130.47 188.192 1128.61 191.776C1126.75 195.36 1124.03 198.144 1120.45 200.128C1116.9 202.08 1112.55 203.056 1107.39 203.056ZM1106.87 189.28C1108.63 189.28 1110.18 188.976 1111.52 188.368C1112.9 187.76 1114.05 186.896 1114.98 185.776C1115.94 184.624 1116.66 183.28 1117.14 181.744C1117.62 180.208 1117.86 178.528 1117.86 176.704C1117.86 173.856 1117.44 171.344 1116.61 169.168C1115.81 166.96 1114.61 165.248 1113.01 164.032C1111.44 162.784 1109.49 162.16 1107.15 162.16C1104.63 162.16 1102.56 162.8 1100.96 164.08C1099.36 165.36 1098.18 167.04 1097.41 169.12C1096.67 171.168 1096.31 173.36 1096.31 175.696C1096.31 179.632 1097.2 182.88 1098.99 185.44C1100.82 188 1103.44 189.28 1106.87 189.28Z" fill="#150A02"/>
<path d="M481.27 659.977C479.384 660.031 477.87 658.459 478.009 656.568C478.828 645.034 479.57 632.962 480.227 620.347C480.953 606.462 481.548 592.694 482.004 579.043C482.46 565.392 482.869 552.543 483.209 540.51C483.557 528.478 483.781 517.932 483.897 508.865C483.99 501.238 484.052 495.183 484.067 490.7C484.067 489.284 484.979 488.023 486.339 487.642C490.543 486.459 495.264 485.587 500.496 485.034C505.65 484.49 510.665 484.171 515.549 484.077C517.241 484.046 518.655 485.361 518.779 487.066C518.903 488.801 519.011 490.708 519.104 492.786L519.181 494.584C519.297 497.246 522.372 498.623 524.397 496.911C525.17 496.257 526.004 495.58 526.916 494.872C530.517 492.055 535.03 489.572 540.47 487.408C545.91 485.252 552.146 484.171 559.194 484.171C574.741 484.171 586.248 489.128 593.72 499.036C601.185 508.951 604.917 522.734 604.917 540.401C604.917 552.823 602.584 563.548 597.908 572.568C593.233 581.596 586.881 588.515 578.837 593.34C570.793 598.158 561.605 600.57 551.265 600.57C546.59 600.57 541.861 599.971 537.078 598.78C532.287 597.59 528.037 596.08 524.327 594.266C523.199 593.714 522.179 593.169 521.267 592.632C519.204 591.41 516.615 592.873 516.523 595.278C516.484 596.196 516.445 597.185 516.399 598.259C516.206 602.578 515.997 607.497 515.765 613.015C515.534 618.525 515.248 624.145 514.9 629.849C514.552 635.554 514.228 640.823 513.926 645.641C513.702 649.174 513.478 652.132 513.254 654.529C513.123 655.961 512.087 657.12 510.681 657.385C507.311 658.008 503.78 658.49 500.079 658.84C495.519 659.261 491.254 659.572 487.266 659.767C484.995 659.875 482.985 659.953 481.239 660L481.27 659.977ZM545.771 564.684C551.057 564.684 555.5 563.602 559.101 561.446C562.702 559.29 565.422 556.177 567.254 552.13C569.093 548.083 570.012 543.242 570.012 537.607C570.012 530.05 568.266 524.229 564.781 520.135C561.296 516.049 555.685 514.002 547.95 514.002C543.275 514.002 539.025 514.734 535.2 516.205C531.367 517.676 528.137 519.427 525.494 521.474C523.284 523.186 521.515 524.797 520.193 526.315C519.706 526.875 519.467 527.575 519.451 528.323C519.436 529.35 519.397 530.688 519.343 532.346C519.266 534.697 519.189 537.281 519.111 540.098C519.034 542.915 518.957 545.554 518.88 548.021C518.825 549.741 518.787 551.204 518.771 552.403C518.756 553.305 519.104 554.161 519.76 554.769C520.935 555.843 522.403 557.026 524.157 558.317C526.452 560.014 529.366 561.501 532.889 562.769C536.413 564.046 540.702 564.676 545.756 564.676L545.771 564.684Z" fill="#150A02"/>
<path d="M728.217 611.267C728.819 612.419 728.634 613.851 727.768 614.809C725.891 616.879 723.673 618.926 721.123 620.942C717.908 623.487 714.06 625.782 709.578 627.829C705.096 629.876 699.988 631.495 694.239 632.694C688.497 633.892 682.06 634.484 674.936 634.484C663.368 634.484 653.106 632.266 644.149 627.829C635.186 623.393 628.2 616.801 623.185 608.045C618.17 599.29 615.658 588.394 615.658 575.358C615.658 562.321 618.262 550.966 623.471 541.284C628.679 531.603 635.951 524.084 645.301 518.722C654.643 513.36 665.555 510.682 678.042 510.682C693.822 510.682 706.247 515.095 715.327 523.929C724.399 532.762 729.129 544.973 729.515 560.547C729.592 563.403 729.554 565.987 729.399 568.299C729.306 569.731 729.152 571.217 728.943 572.766C728.719 574.408 727.328 575.638 725.69 575.591C724.477 575.552 722.962 575.513 721.138 575.474C717.383 575.396 713.156 575.303 708.442 575.186C703.728 575.07 699.285 574.976 695.112 574.898C690.939 574.821 687.856 574.782 685.862 574.782C679.201 574.782 672.749 575.093 666.505 575.708C660.261 576.323 655.037 576.984 650.826 577.677C650.826 579.062 650.926 580.44 651.112 581.786C651.305 583.133 651.591 584.432 651.977 585.662C652.974 588.83 654.713 591.522 657.201 593.764C659.689 596.005 662.68 597.718 666.165 598.916C669.65 600.115 673.344 600.706 677.254 600.706C680.778 600.706 684.015 600.263 686.96 599.375C689.904 598.488 692.608 597.313 695.058 595.842C697.508 594.379 699.749 592.776 701.781 591.04C703.002 589.997 704.176 588.954 705.305 587.927C706.557 586.775 708.442 586.767 709.655 587.958C710.065 588.355 710.521 588.806 711.031 589.312C712.947 591.203 715.088 593.515 717.468 596.254C719.84 598.994 722.104 601.866 724.245 604.87C725.86 607.135 727.189 609.267 728.24 611.275L728.217 611.267ZM652.735 551.612C652.209 553.752 654.095 555.714 656.266 555.441C658.801 555.122 661.652 554.819 664.813 554.523C669.866 554.064 675.724 553.83 682.393 553.83C685.994 553.83 689.185 553.869 691.983 553.947C692.817 553.97 693.582 553.994 694.27 554.017C696.333 554.087 697.879 552.211 697.492 550.172C697.407 549.744 697.314 549.308 697.214 548.857C696.604 546.234 695.39 543.728 693.598 541.339C691.797 538.95 689.502 537.019 686.705 535.556C683.907 534.093 680.561 533.354 676.651 533.354C671.752 533.354 667.479 534.436 663.839 536.591C660.199 538.747 657.387 541.565 655.393 545.036C654.18 547.153 653.291 549.347 652.727 551.612H652.735Z" fill="#150A02"/>
<path d="M821.302 588.089C822.214 589.178 822.276 590.711 821.519 591.918C820.112 594.151 818.234 596.479 815.877 598.907C812.779 602.105 808.753 604.845 803.815 607.125C798.877 609.398 792.88 610.542 785.833 610.542C776.568 610.542 769.003 608.573 763.145 604.643C757.288 600.705 752.96 595.467 750.163 588.906C747.366 582.353 745.967 575.177 745.967 567.386C745.967 563.145 746.021 558.615 746.137 553.79C746.253 548.972 746.384 544.186 746.539 539.446C746.693 534.699 746.863 530.192 747.057 525.912C747.25 521.631 747.435 517.872 747.628 514.627C747.713 513.234 747.783 511.98 747.845 510.86C747.953 508.883 746.261 507.287 744.313 507.498C739.677 508.003 735.326 508.548 731.262 509.132C728.194 509.568 725.69 509.957 723.743 510.299C721.989 510.611 720.304 509.428 720.034 507.653C719.531 504.392 719.137 501.085 718.851 497.73C718.465 493.255 718.179 489.364 717.986 486.048C717.916 484.811 717.854 483.744 717.808 482.865C717.723 481.192 718.913 479.744 720.559 479.534C724.16 479.067 727.954 478.639 731.942 478.242C736.037 477.837 740.31 477.518 744.754 477.292C746.485 477.207 747.852 475.775 747.806 474.031C747.767 472.498 747.721 470.638 747.682 468.467C747.605 464.529 747.489 460.987 747.335 457.82C747.257 454.964 747.103 452.092 746.879 449.196C746.763 447.788 746.662 446.519 746.57 445.375C746.423 443.616 747.721 442.067 749.475 441.92L776.869 439.499C778.724 439.336 780.323 440.791 780.339 442.667C780.346 443.531 780.362 444.535 780.37 445.671C780.408 449.064 780.424 453.15 780.424 457.937C780.424 460.326 780.462 463.089 780.54 466.21C780.586 468.202 780.64 470.163 780.687 472.101C780.733 473.915 782.232 475.316 784.032 475.222C785.833 475.129 787.603 475.035 789.619 474.942C792.989 474.786 795.67 474.67 797.664 474.592C800.878 474.436 803.792 474.343 806.396 474.304C809 474.265 811.164 474.249 812.887 474.249C814.61 474.249 815.777 474.288 816.387 474.366C816.843 477.993 817.152 482.6 817.307 488.196C817.423 492.43 817.492 496.298 817.523 499.808C817.539 501.567 816.14 503.007 814.394 503.03C813.242 503.046 811.805 503.077 810.066 503.124C805.855 503.24 801.721 503.412 797.656 503.645C794.82 503.723 791.683 503.879 788.236 504.104C786.188 504.244 784.403 504.377 782.873 504.517C781.343 504.657 780.03 505.957 779.96 507.568C779.914 508.704 779.86 509.996 779.798 511.451C779.682 514.269 779.566 517.428 779.45 520.938C779.334 524.449 779.218 528.075 779.102 531.811C778.986 535.555 778.894 539.158 778.816 542.629C778.739 546.1 778.701 549.19 778.701 551.883C778.701 556.973 778.948 561.541 779.45 565.596C779.945 569.643 781.057 572.85 782.781 575.2C784.504 577.551 787.162 578.734 790.763 578.734C793.135 578.734 795.168 578.041 796.852 576.648C798.537 575.263 799.936 573.62 801.048 571.729L801.574 570.834C802.718 568.881 805.445 568.709 806.836 570.492C807.254 571.029 807.702 571.597 808.173 572.188C809.974 574.461 811.89 576.835 813.915 579.302C815.947 581.769 817.778 583.972 819.432 585.902C820.158 586.758 820.784 587.489 821.294 588.104L821.302 588.089Z" fill="#150A02"/>
<path d="M855.945 503.116C849.052 503.116 843.264 501.093 838.597 497.038C833.922 492.991 831.588 487.652 831.588 481.013C831.588 476.46 832.701 472.569 834.918 469.323C837.136 466.086 840.026 463.595 843.589 461.859C847.151 460.124 850.922 459.252 854.902 459.252C861.261 459.252 866.524 461.338 870.697 465.502C874.869 469.666 876.956 475.028 876.956 481.589C876.956 487.683 874.962 492.796 870.983 496.921C867.003 501.046 861.98 503.116 855.929 503.116H855.945ZM869.29 621.485C869.051 622.972 867.868 624.092 866.377 624.201C865.079 624.295 863.417 624.411 861.408 624.559C857.769 624.832 853.92 624.964 849.863 624.964C846.873 624.964 843.867 624.863 840.845 624.676C838.96 624.559 837.105 624.411 835.266 624.248C833.489 624.092 832.191 622.473 832.407 620.683C832.67 618.45 832.956 615.422 833.265 611.601C833.767 605.39 834.262 598.082 834.756 589.677C835.251 581.271 835.753 572.57 836.248 563.589C836.75 554.599 837.128 546.171 837.399 538.302C837.615 531.983 837.739 526.659 837.785 522.324C837.801 520.627 839.107 519.258 840.791 519.172C841.889 519.118 843.148 519.048 844.578 518.978C847.568 518.822 850.783 518.69 854.229 518.573C857.676 518.456 860.968 518.339 864.105 518.223C865.844 518.16 867.382 518.114 868.718 518.082C870.395 518.044 871.771 519.328 871.933 521.009C872.149 523.243 872.335 526.114 872.489 529.617C872.721 534.94 872.837 540.878 872.837 547.439C872.837 554.459 872.737 561.9 872.551 569.768C872.358 577.637 872.095 585.256 871.748 592.619C871.4 599.989 870.959 606.464 870.426 612.06C870.048 615.99 869.669 619.135 869.29 621.485Z" fill="#FF8B00"/>
<path d="M991.445 474.312C997.256 474.25 1003.09 473.596 1008.64 471.86C1008.68 471.853 1008.71 471.837 1008.75 471.829C1012.33 470.701 1014.71 469.354 1015.89 467.79C1016.34 467.198 1016.59 466.63 1016.64 466.086C1014.9 466.397 1012.89 466.358 1010.62 465.969C1008.35 465.58 1005.66 464.21 1002.56 461.836C997.241 457.774 994.644 452.598 994.783 446.317C994.915 440.029 996.831 434.433 1000.53 429.522C1004.12 424.759 1008.4 421.817 1013.37 420.696C1018.34 419.575 1023.41 419.809 1028.55 421.389C1033.7 422.977 1038.38 425.381 1042.59 428.596C1047.09 432.036 1050.75 436.176 1053.57 441.025C1056.38 445.874 1057.7 451.181 1057.53 456.972C1057.36 462.762 1054.93 468.778 1050.22 475.036C1042.66 485.083 1033.56 492.345 1022.92 496.812C1012.28 501.287 1001.22 503.171 989.722 503.046C987.852 503.023 984.119 503.069 982.257 503.101C978.046 503.178 973.911 503.451 969.847 503.622C967.018 503.739 963.873 503.856 960.427 504.081C958.379 504.221 956.594 504.354 955.064 504.494C953.464 504.634 952.22 505.934 952.151 507.552C952.104 508.689 952.05 509.981 951.989 511.436C951.873 514.253 951.757 517.413 951.649 520.923C951.533 524.433 951.417 528.06 951.308 531.796C951.193 535.539 951.1 539.143 951.023 542.614C950.945 546.085 950.907 549.175 950.907 551.868C950.907 556.958 951.154 561.526 951.656 565.581C952.159 569.628 953.264 572.835 954.987 575.185C956.71 577.535 959.376 578.718 962.977 578.718C965.349 578.718 967.374 578.026 969.058 576.633C970.751 575.247 972.142 573.605 973.255 571.714L973.78 570.819C974.924 568.865 977.651 568.694 979.042 570.476C979.46 571.013 979.908 571.582 980.379 572.173C982.18 574.446 984.096 576.819 986.129 579.287C988.153 581.754 989.992 583.956 991.638 585.886C992.365 586.743 992.991 587.474 993.501 588.089C994.412 589.179 994.482 590.712 993.717 591.918C992.311 594.144 990.433 596.479 988.076 598.907C984.969 602.106 980.951 604.845 976.013 607.126C971.068 609.398 965.071 610.542 958.031 610.542C948.766 610.542 941.201 608.573 935.344 604.643C929.486 600.705 925.151 595.467 922.361 588.906C919.564 582.353 918.165 575.177 918.165 567.387C918.165 563.145 918.219 558.615 918.343 553.79C918.459 548.973 918.583 544.186 918.745 539.446C918.899 534.699 919.069 530.193 919.263 525.912C919.456 521.632 919.641 517.872 919.834 514.627C919.919 513.234 919.989 511.981 920.051 510.86C920.159 508.883 918.467 507.288 916.519 507.498C911.883 508.004 907.532 508.549 903.468 509.125C900.4 509.56 897.896 509.95 895.949 510.292C894.195 510.603 892.51 509.42 892.24 507.646C891.737 504.385 891.343 501.077 891.057 497.723C890.671 493.248 890.385 489.356 890.192 486.041C890.122 484.803 890.06 483.737 890.022 482.858C889.937 481.184 891.127 479.737 892.773 479.526C896.374 479.06 900.168 478.631 904.155 478.235C908.251 477.83 912.524 477.511 916.968 477.285C918.699 477.199 920.066 475.767 920.02 474.024C919.981 472.483 919.935 470.631 919.896 468.459C919.819 464.521 919.703 460.98 919.549 457.812C919.471 454.956 919.317 452.084 919.085 449.189C918.977 447.78 918.876 446.512 918.784 445.368C918.637 443.609 919.935 442.068 921.689 441.912L949.083 439.492C950.938 439.328 952.537 440.791 952.553 442.659C952.56 443.523 952.568 444.519 952.584 445.663C952.622 449.057 952.645 453.143 952.645 457.929C952.645 460.318 952.684 463.081 952.761 466.202C952.808 468.187 952.862 470.156 952.908 472.094C952.954 473.907 954.454 475.308 956.254 475.215C958.055 475.121 959.824 475.028 961.841 474.935C965.21 474.779 967.892 474.67 969.885 474.584C973.108 474.444 976.013 474.335 978.617 474.296C981.222 474.258 983.385 474.242 985.108 474.242L991.476 474.328L991.445 474.312Z" fill="#FF8B00"/>
<g filter="url(#filter0_d_340_3702)">
<path d="M1573.78 432.338V647.898C1573.78 695.579 1535.12 734.235 1487.44 734.235H1271.88C1241.81 734.235 1215.33 718.858 1199.87 695.541C1190.82 681.886 1185.55 665.507 1185.55 647.898V432.338C1185.55 384.657 1224.2 346 1271.88 346H1487.44C1535.12 346 1573.78 384.657 1573.78 432.338Z" fill="#FFF6EC"/>
<path d="M1467.71 549.044C1467.17 567.29 1459.44 586.251 1444.51 605.947C1420.51 637.602 1391.63 660.474 1357.87 674.573C1324.11 688.664 1289 694.607 1252.51 694.209C1246.58 694.144 1234.73 694.285 1228.81 694.387C1219.03 694.558 1209.39 695.066 1199.87 695.541C1190.82 681.886 1185.55 665.507 1185.55 647.898V604.687C1186.92 604.63 1188.21 604.573 1189.43 604.524C1199.66 604.084 1208.87 603.731 1217.14 603.609C1225.41 603.484 1232.27 603.423 1237.75 603.423L1257.95 603.696C1276.4 603.503 1294.9 601.446 1312.52 595.977C1312.64 595.939 1312.75 595.905 1312.86 595.871C1324.23 592.304 1331.79 588.065 1335.52 583.139C1336.94 581.268 1337.75 579.473 1337.94 577.772C1332.4 578.744 1326.03 578.619 1318.82 577.4C1311.63 576.186 1303.1 571.848 1293.25 564.387C1276.37 551.59 1268.14 535.283 1268.57 515.492C1269 495.689 1275.08 478.049 1286.81 462.577C1298.18 447.575 1311.77 438.3 1327.55 434.755C1343.34 431.218 1359.39 431.951 1375.74 436.949C1392.07 441.947 1406.92 449.518 1420.28 459.647C1434.58 470.49 1446.2 483.541 1455.13 498.797C1464.05 514.061 1468.24 530.808 1467.71 549.044Z" fill="#FF8B00"/>
</g>
<defs>
<filter id="filter0_d_340_3702" x="1161.55" y="326" width="436.235" height="436.235" filterUnits="userSpaceOnUse" color-interpolation-filters="sRGB">
<feFlood flood-opacity="0" result="BackgroundImageFix"/>
<feColorMatrix in="SourceAlpha" type="matrix" values="0 0 0 0 0 0 0 0 0 0 0 0 0 0 0 0 0 0 127 0" result="hardAlpha"/>
<feOffset dy="4"/>
<feGaussianBlur stdDeviation="12"/>
<feComposite in2="hardAlpha" operator="out"/>
<feColorMatrix type="matrix" values="0 0 0 0 0 0 0 0 0 0 0 0 0 0 0 0 0 0 0.08 0"/>
<feBlend mode="normal" in2="BackgroundImageFix" result="effect1_dropShadow_340_3702"/>
<feBlend mode="normal" in="SourceGraphic" in2="effect1_dropShadow_340_3702" result="shape"/>
</filter>
</defs>
</svg>
