<?xml version="1.0" encoding="utf-8"?>
<!-- Generator: Adobe Illustrator 28.4.1, SVG Export Plug-In . SVG Version: 6.00 Build 0)  -->
<svg version="1.1" id="Layer_1" xmlns="http://www.w3.org/2000/svg" xmlns:xlink="http://www.w3.org/1999/xlink" x="0px" y="0px"
	 viewBox="0 0 512 288" style="enable-background:new 0 0 512 288;" xml:space="preserve">
<style type="text/css">
	.st0{fill:#7C4DFF;}
	.st1{fill:#FFFFFF;}
</style>
<rect class="st0" width="512" height="288"/>
<g>
	<path class="st1" d="M166.8,142h-34.1v27.8H146V153h20.8V142z"/>
	<path class="st1" d="M161,118.2l-33,15.4l4.7,10l33-15.4L161,118.2z M179.2,120.4c-3.7,0-6.7,3-6.7,6.7v0.1c0,2,0.7,3.5,2,4.8
		c1.2,1.3,2.8,2,4.7,2c2,0,3.6-0.7,4.8-2s1.8-2.9,1.8-4.8c0-2-0.6-3.5-1.8-4.8C182.8,121.1,181,120.3,179.2,120.4z M185.7,137h-13
		v32.8h13V137z M205,121h-13v48.8h13v-48.7V121z M258.1,138c-2-1-4.3-1.6-7-1.6c-2.8,0-5.2,0.6-7.4,1.8c-1,0.5-1.8,1.1-2.6,1.8
		c-0.8-0.8-1.6-1.4-2.6-2c-1.8-1-3.8-1.6-6-1.6c-2.9,0-5.8,0.8-8.3,2.4V137h-13v32.8h13V151c0-0.7,0.2-1.4,0.5-1.9s0.7-1,1.2-1.2
		c0.6-0.3,1.3-0.5,2-0.5c1,0,1.8,0.4,2.5,1c0.6,0.7,1,1.5,1,2.6v18.8h13V151c0-0.7,0.2-1.4,0.4-1.9c0.3-0.5,0.8-1,1.3-1.2
		c0.6-0.3,1.3-0.5,2-0.5c1,0,1.8,0.4,2.4,1c0.7,0.7,1,1.5,1,2.7v18.7h13v-19.4c0-3-0.5-5.5-1.6-7.5c-1.2-2.1-2.8-3.7-4.8-4.8V138z
		 M281.7,122.4h-10.8v47.4h13.3V153H305v-11h-20.8v-8.5H306v-11L281.7,122.4L281.7,122.4z M324,121h-13v48.8h13v-48.7V121z
		 M343.3,137h-13v32.8h13V137z M336.7,120.4c-3.7,0-6.7,3-6.7,6.7v0.1c0,2,0.7,3.5,2,4.8c1.2,1.3,2.8,2,4.7,2c2,0,3.6-0.7,4.8-2
		c1.3-1.3,1.9-2.9,1.9-4.8c0-2-0.6-3.5-1.9-4.8C340.3,121.1,338.5,120.3,336.7,120.4z M384,169.8l-11.2-17l10.5-15.8h-13.7l-4,7.2
		l-3.9-7.1h-15l10.9,16l-11.5,16.7h13.7l5-8.2l4.4,8.2L384,169.8L384,169.8z"/>
</g>
</svg>
