<?xml version="1.0" encoding="utf-8"?>
<!-- Generator: Adobe Illustrator 27.5.0, SVG Export Plug-In . SVG Version: 6.00 Build 0)  -->
<svg version="1.1" id="Livello_1" xmlns="http://www.w3.org/2000/svg" xmlns:xlink="http://www.w3.org/1999/xlink" x="0px" y="0px"
	 viewBox="0 0 512 288" style="enable-background:new 0 0 512 288;" xml:space="preserve">
<style type="text/css">
	.st0{clip-path:url(#SVGID_00000052079298415813321200000009220512260719716284_);}
	.st1{fill:#FFFFFF;}
	.st2{fill:#0004CE;}
	.st3{fill:#1C1C1C;}
</style>
<g>
	<defs>
		<rect id="SVGID_1_" width="512" height="288"/>
	</defs>
	<clipPath id="SVGID_00000155136110210829923170000007283122923289230264_">
		<use xlink:href="#SVGID_1_"  style="overflow:visible;"/>
	</clipPath>
	<g style="clip-path:url(#SVGID_00000155136110210829923170000007283122923289230264_);">
		<path class="st1" d="M512,0H0v288h512V0z"/>
		<path class="st2" d="M198.3,148.6h8.7V167h-9.2v-9.3H137v9.3h-9v-18.4h8.7V130c0-4.9,4-9,8.9-9h43.8c4.9,0.1,8.9,4.1,8.9,9
			L198.3,148.6L198.3,148.6z M145.8,130.2v18.4h43.4v-18.4H145.8L145.8,130.2z M225.3,121v46H216v-46h9.2H225.3z"/>
		<path class="st3" d="M285.1,130.2l-20.3,14.3l19.5,13.3h20.5v9.2h-22.6l-24.8-17.2l-13.8,9.7v7.5h-9.1v-46h9.1v27.8l39.3-27.7
			h21.9v9.1H285L285.1,130.2z M384,130v28c0,5-4,9-8.9,9H323c-5,0-9-4-9-9v-28c0-5,4-9,9-9h52c4.9,0.1,8.9,4.1,8.9,9H384z
			 M374.9,130.3H323v27.5h51.8v-27.5H374.9z"/>
		<path class="st3" d="M338.3,145.3H329v-9.1h9.3V145.3z M357.9,145.3h-9.2v-9.1h9.2V145.3z"/>
	</g>
</g>
</svg>
