<?xml version="1.0" encoding="utf-8"?>
<!-- Generator: Adobe Illustrator 28.4.1, SVG Export Plug-In . SVG Version: 6.00 Build 0)  -->
<svg version="1.1" id="Layer_1" xmlns="http://www.w3.org/2000/svg" xmlns:xlink="http://www.w3.org/1999/xlink" x="0px" y="0px"
	 viewBox="0 0 512 288" style="enable-background:new 0 0 512 288;" xml:space="preserve">
<style type="text/css">
	.st0{fill:url(#SVGID_1_);}
	.st1{fill:#FFFFFF;}
</style>
<linearGradient id="SVGID_1_" gradientUnits="userSpaceOnUse" x1="382.3507" y1="-72.8512" x2="129.6493" y2="364.8512" gradientTransform="matrix(1 0 0 -1 0 290)">
	<stop  offset="0" style="stop-color:#00043D"/>
	<stop  offset="1" style="stop-color:#62109F"/>
</linearGradient>
<path class="st0" d="M512,0H0v288h512V0z"/>
<path class="st1" d="M279.9,205l-2.6,7.9c-13.9,4.2-28.7,4.2-42.6,0l-2.6-8l23.9-17.3l23.9,17.3L279.9,205z M212.6,156l-9.1,28H195
	c-8.3-11.9-12.9-25.9-13.2-40.4l6.8-4.9l23.9,17.3L212.6,156z M330,143.6c-0.3,15-5.1,29-13.1,40.5h-8.4l-9-28l23.8-17.4L330,143.6
	L330,143.6z M315,97l-2.6,8h-29.6l-9-28v-0.1l6.7-4.9c13.7,4.8,25.6,13.5,34.4,25H315z M238.3,77l-9.1,28h-29.5l-2.6-8
	c8.8-11.5,20.7-20.2,34.4-25l6.7,4.9L238.3,77z M256,162.9c-12.4-7.2-20-20.4-20-34.7c7,0,13.9-1.8,20-5.3c6.1,3.5,13,5.3,20,5.3
	C276,142.5,268.4,155.7,256,162.9z"/>
</svg>
