<svg xmlns="http://www.w3.org/2000/svg" width="512" height="288" fill="none" viewBox="0 0 512 288"><g clip-path="url(#a)"><path fill="url(#b)" d="M512 0H0v288h512V0Z"/><path fill="#fff" d="m279.9 205-2.6 7.9a73.7 73.7 0 0 1-42.6 0l-2.6-8 23.9-17.3 23.9 17.3ZM212.6 156l-9.1 28H195a73.6 73.6 0 0 1-13.2-40.4l6.8-4.9 23.9 17.3ZM330 143.6c-.3 15-5.1 29-13.1 40.5h-8.4l-9-28 23.8-17.4 6.8 4.9ZM315 97l-2.6 8h-29.6l-9-28v-.1l6.7-4.9a74.4 74.4 0 0 1 34.4 25ZM238.3 77l-9.1 28h-29.5l-2.6-8a74.3 74.3 0 0 1 34.4-25l6.7 4.9ZM256 162.9a40 40 0 0 1-20-34.7 40.2 40.2 0 0 0 20-5.3 40 40 0 0 0 20 5.3 40 40 0 0 1-20 34.7Z"/></g><defs><linearGradient id="b" x1="382.4" x2="129.7" y1="362.9" y2="-74.8" gradientUnits="userSpaceOnUse"><stop stop-color="#00043D"/><stop offset="1" stop-color="#62109F"/></linearGradient><clipPath id="a"><path fill="#fff" d="M0 0h512v288H0z"/></clipPath></defs></svg>