<?xml version="1.0" encoding="utf-8"?>
<!-- Generator: Adobe Illustrator 28.4.1, SVG Export Plug-In . SVG Version: 6.00 Build 0)  -->
<svg version="1.1" id="Layer_1" xmlns="http://www.w3.org/2000/svg" xmlns:xlink="http://www.w3.org/1999/xlink" x="0px" y="0px"
	 viewBox="0 0 512 288" style="enable-background:new 0 0 512 288;" xml:space="preserve">
<style type="text/css">
	.st0{fill:#030712;}
	.st1{fill:#F9FAFB;}
</style>
<path class="st0" d="M512,0H0v288h512V0z"/>
<g>
	<path class="st1" d="M262.6,216c-13.4,0-26.9-3.7-39-10.9c-16.4-9.7-28.3-24.6-33.5-42c-4.8-16.2-3.9-34.8,2.6-51.1
		c6.9-17.2,19.2-29.9,34.6-35.9c12.7-4.9,27.9-5.5,41.8-1.6c15.3,4.2,27,13.3,33.1,25.6c9,18.4,2.6,37.8-0.5,45.3
		c-0.4,1-1.2,1.7-2.2,1.9c-1,0.3-2.1,0-2.9-0.6l-21.8-17.1l0.6,40.7c0,1.6-1,2.9-2.6,3.3c-1.5,0.4-3.1-0.4-3.8-1.8
		c-7.9-16-15.7-32.1-23.6-48.2c-4.6,12.8-9.2,25.5-13.8,38.3c-0.6,1.7-2.5,2.6-4.3,2c-1.7-0.6-2.6-2.5-2-4.3
		c5.5-15.2,11-30.4,16.5-45.7c0.5-1.3,1.6-2.1,2.9-2.2c1.3-0.1,2.6,0.7,3.2,1.9c6.8,14,13.7,27.9,20.5,41.9l-0.5-32.8
		c0-1.3,0.7-2.5,1.9-3c1.1-0.6,2.5-0.4,3.5,0.4l23.7,18.6c2.8-8.2,5.7-22.4-0.9-35.7c-11.3-23-44.1-29.4-66.5-20.7
		c-13.7,5.3-24.6,16.7-30.8,32.2c-6,14.8-6.9,31.8-2.4,46.7c9.6,32,44.2,53.2,77.3,47.2c25-4.5,39.8-23.3,45-31.2
		c1-1.5,3.1-2,4.6-0.9c1.5,1,2,3.1,0.9,4.6c-5.7,8.6-21.8,29.1-49.3,34.1C270.9,215.7,266.8,216,262.6,216z"/>
</g>
</svg>
