<?xml version="1.0" encoding="utf-8"?>
<!-- Generator: Adobe Illustrator 28.4.1, SVG Export Plug-In . SVG Version: 6.00 Build 0)  -->
<svg version="1.1" id="Layer_1" xmlns="http://www.w3.org/2000/svg" xmlns:xlink="http://www.w3.org/1999/xlink" x="0px" y="0px"
	 viewBox="0 0 512 288" style="enable-background:new 0 0 512 288;" xml:space="preserve">
<style type="text/css">
	.st0{fill:#FFF7F2;}
	.st1{fill:#F26419;}
</style>
<path class="st0" d="M512,0H0v288h512V0z"/>
<path class="st1" d="M128,165v-42.7h20.8c15.9,0,28.5,5.8,28.5,21.4c0,15.5-12.6,21.3-28.5,21.3H128z M144.3,159h4.5
	c7.5,0,11.9-4.3,11.9-15.3s-4.4-15.4-12-15.4h-4.3L144.3,159L144.3,159z M184.8,150.8v-20.2h16.3v20.2c0,4.2,2,6.2,5.1,6.2
	c3.2,0,5.2-2,5.2-6.2v-20.2h16.2V165H220c-3.9,0.1-7.3-2.7-8-6.5v-0.1c-2.5,4.8-7.1,7.4-13.1,7.4
	C190.7,165.8,184.9,160.6,184.8,150.8L184.8,150.8z M237.3,165v-34.3h7.6c3.9-0.1,7.3,2.7,8,6.6c2.4-5,6.1-7.4,12-7.4
	c8,0,13.5,5.4,13.5,12.9c0,2.3-0.5,5-1.6,7.2h-15.2c0.3-1.8,0.4-3.4,0.4-4.7c0-4.2-1.3-6.2-4.1-6.2c-2.2,0-4.4,1.7-4.4,6.5v19.3
	L237.3,165L237.3,165z M284.4,150.8v-20.2h16.2v20.2c0,4.2,2,6.2,5.2,6.2s5.1-2,5.1-6.2v-20.2h16.3V165h-7.7c-3.9,0.1-7.3-2.7-8-6.5
	v-0.1c-2.5,4.8-7.2,7.4-13.2,7.4c-8.2,0-14-5.2-14-15L284.4,150.8z M363.2,165c-15.9,0-28.5-6-28.5-21.3c0-15.6,12.6-21.4,28.5-21.4
	H384V165H363.2z M367.6,128.3h-4.4c-7.5,0-12,4.3-12,15.4c0,11,4.5,15.3,12,15.3h4.4V128.3z"/>
</svg>
