<?xml version="1.0" encoding="utf-8"?>
<!-- Generator: Adobe Illustrator 28.4.1, SVG Export Plug-In . SVG Version: 6.00 Build 0)  -->
<svg version="1.1" id="Layer_1" xmlns="http://www.w3.org/2000/svg" xmlns:xlink="http://www.w3.org/1999/xlink" x="0px" y="0px"
	 viewBox="0 0 512 288" style="enable-background:new 0 0 512 288;" xml:space="preserve">
<style type="text/css">
	.st0{fill:#2847E2;}
	.st1{fill:#FFFFFF;}
</style>
<path class="st0" d="M512,0H0v288h512V0z"/>
<g>
	<path class="st1" d="M153.6,161.7h-23.4c-1.2,0-2.2-1-2.2-2.2v-31.9c0-1.2,1-2.2,2.2-2.2h22.3c1.2,0,2.2,1,2.2,2.2v1
		c0,1.2-1,2.2-2.2,2.2h-17.9c-1.2,0-2.2,1-2.2,2.2v4.9c0,1.2,1,2.2,2.2,2.2h11.1c1.2,0,2.2,1,2.2,2.2v1c0,1.2-1,2.2-2.2,2.2h-11.1
		c-1.2,0-2.2,1-2.2,2.2v6.3c0,1.2,1,2.2,2.2,2.2h18.9c1.2,0,2.2,1,2.2,2.2v1.2C155.6,160.8,154.7,161.7,153.6,161.7L153.6,161.7z"/>
	<path class="st1" d="M162.1,161.8c-1.2,0-2.2-1-2.2-2.2V136c0-1.2,1-2.2,2.2-2.2c1.2,0,2.2,1,2.2,2.2v23.6
		C164.3,160.8,163.3,161.8,162.1,161.8L162.1,161.8z"/>
	<path class="st1" d="M226,147.7c0,4.6-1.6,8.3-4.7,11.2c-2.7,2.5-6,3.7-10,3.7s-7.4-1.2-10.1-3.7c-3.1-2.9-4.7-6.6-4.7-11.2
		s1.6-8.3,4.7-11.1c2.8-2.5,6.1-3.8,10-3.8c3.9,0,7.2,1.3,10,3.8C224.4,139.5,226,143.2,226,147.7L226,147.7z M221.5,147.7
		c0-2.9-1-5.3-2.9-7.1c-1.9-1.9-4.3-2.8-7.4-2.8s-5.5,0.9-7.4,2.8c-1.9,1.9-2.9,4.3-2.9,7.1s0.9,5.4,2.8,7.2
		c1.9,1.8,4.4,2.8,7.5,2.8s5.5-0.9,7.4-2.8C220.5,153.1,221.5,150.7,221.5,147.7L221.5,147.7z"/>
	<path class="st1" d="M250.7,139.1c-0.7,0.9-1.8,1.1-2.8,0.6c-2.5-1.3-5.1-1.9-7.9-1.9c-5,0-7.5,1.1-7.5,3.3c0,1.3,0.9,2.2,2.8,2.5
		c2.6,0.3,5.1,0.6,7.7,0.9c3.7,0.5,6.3,1.3,7.8,2.5c1.7,1.3,2.6,3.3,2.6,6c0,3-1.1,5.3-3.2,7c-2.2,1.6-5.3,2.5-9.4,2.5
		c-5,0-9.1-1.2-12.3-3.7c-0.9-0.7-1.1-1.9-0.5-2.9l0.1-0.2c0.6-1.1,2-1.4,3.1-0.7c2.7,1.8,5.9,2.7,9.6,2.7c2.5,0,4.5-0.4,5.9-1.2
		c1.4-0.8,2.1-1.9,2.1-3.2c0-1.5-0.9-2.5-2.6-3.1c-0.9-0.3-2.4-0.6-4.4-0.7c-3.1-0.2-5-0.3-5.7-0.4c-2.8-0.3-4.8-1.1-6.1-2.2
		c-1.3-1.2-2-2.8-2-5.1c0-2.7,1.1-4.8,3.2-6.3c2.1-1.6,5.1-2.3,8.8-2.3c4.1,0,7.6,0.9,10.4,2.7c1.1,0.7,1.3,2.2,0.6,3.2L250.7,139.1
		L250.7,139.1L250.7,139.1z"/>
	<path class="st1" d="M294,161.8c-1.2,0-2.2-1-2.2-2.2V136c0-1.2,1-2.2,2.2-2.2h18.9c1.2,0,2.2,1,2.2,2.2v0.5c0,1.2-1,2.2-2.2,2.2
		h-14.6c-1.2,0-2.2,1-2.2,2.2v1.7c0,1.2,1,2.2,2.2,2.2h8.8c1.2,0,2.2,1,2.2,2.2v0.5c0,1.2-1,2.2-2.2,2.2h-8.8c-1.2,0-2.2,1-2.2,2.2
		v2.8c0,1.2,1,2.2,2.2,2.2h15.4c1.2,0,2.2,1,2.2,2.2v0.6c0,1.2-1,2.2-2.1,2.2L294,161.8L294,161.8z"/>
	<path class="st1" d="M331.1,133.8c3.9,0,7.1,1.3,9.5,3.9c2.4,2.6,3.6,5.9,3.6,9.9c0,3.7-1.3,7.2-3.8,10.6c-0.7,1-1.8,1.8-3.4,2.5
		c-1.7,0.8-3.4,1.1-5.2,1.1h-10.5c-1.2,0-2.2-1-2.2-2.2v-23.6c0-1.2,1-2.2,2.2-2.2L331.1,133.8L331.1,133.8L331.1,133.8L331.1,133.8
		z M332.1,156.9c2.1,0,3.9-0.8,5.3-2.5c1.4-1.7,2.1-3.8,2.1-6.4c0-2.8-0.7-5-2.2-6.7c-1.5-1.7-3.4-2.5-5.8-2.5h-5.7
		c-1.2,0-2.2,1-2.2,2.2v13.8c0,1.2,1,2.2,2.2,2.2L332.1,156.9L332.1,156.9L332.1,156.9L332.1,156.9z"/>
	<path class="st1" d="M180.8,133.8c3.9,0,7.1,1.3,9.5,3.9c2.4,2.6,3.6,5.9,3.6,9.9c0,3.7-1.3,7.2-3.8,10.6c-0.7,1-1.8,1.8-3.4,2.5
		c-1.7,0.8-3.4,1.1-5.2,1.1h-10.5c-1.2,0-2.2-1-2.2-2.2v-23.6c0-1.2,1-2.2,2.2-2.2L180.8,133.8L180.8,133.8L180.8,133.8z
		 M181.9,156.9c2.1,0,3.9-0.8,5.3-2.5c1.4-1.7,2.1-3.8,2.1-6.4c0-2.8-0.7-5-2.2-6.7c-1.5-1.7-3.4-2.5-5.8-2.5h-5.7
		c-1.2,0-2.2,1-2.2,2.2v13.8c0,1.2,1,2.2,2.2,2.2L181.9,156.9L181.9,156.9L181.9,156.9L181.9,156.9z"/>
	<path class="st1" d="M349.9,161.8c-1.2,0-2.2-1-2.2-2.2V136c0-1.2,1-2.2,2.2-2.2s2.2,1,2.2,2.2v23.6
		C352.1,160.8,351.1,161.8,349.9,161.8L349.9,161.8z"/>
	<path class="st1" d="M381.8,161.8L381.8,161.8c-0.9,0-1.7-0.5-2-1.3l-1.4-3.4c-0.3-0.8-1.1-1.3-2-1.3h-12.2c-0.9,0-1.7,0.5-2,1.3
		l-1.4,3.4c-0.3,0.8-1.1,1.3-2,1.3h0c-1.6,0-2.6-1.6-2-3.1l10.3-23.6c0.3-0.8,1.1-1.3,2-1.3h2.6c0.9,0,1.7,0.5,2,1.3l10.3,23.6
		C384.4,160.2,383.4,161.8,381.8,161.8L381.8,161.8z M374.3,147.8l-2-4.7c-0.8-1.8-3.3-1.8-4,0l-2,4.7c-0.6,1.4,0.4,3.1,2,3.1h4.1
		C373.8,150.9,374.9,149.3,374.3,147.8L374.3,147.8z"/>
	<path class="st1" d="M285.3,161.8c-1.2,0-2.2-1-2.2-2.2v-15.3c0-1.1-1.4-1.6-2.1-0.6l-6.7,10.8c-0.8,1.5-3,1.5-3.8,0l-6.5-10.8
		c-0.6-0.9-2.1-0.5-2.1,0.6l0,15.2c0,1.2-1,2.2-2.2,2.2h-0.4c-1.2,0-2.2-1-2.2-2.2v-23.6c0-1.2,1-2.2,2.2-2.2h2.1
		c0.8,0,1.5,0.4,1.9,1.1l7.3,12c0.8,1.5,2.9,1.5,3.8,0l7.3-12c0.4-0.7,1.1-1.1,1.9-1.1h2.3c1.2,0,2.2,1,2.2,2.2v23.8
		c0,1.1-0.9,2-2,2L285.3,161.8L285.3,161.8z"/>
</g>
</svg>
