<svg width="1920" height="1080" viewBox="0 0 1920 1080" fill="none" xmlns="http://www.w3.org/2000/svg">
<g clip-path="url(#clip0_2227_2)">
<path d="M1920 0H0V1080H1920V0Z" fill="#2847E2"/>
<path d="M576.13 606.33H488.21C483.68 606.33 480 602.66 480 598.12V478.47C480 473.93 483.67 470.26 488.21 470.26H571.67C576.2 470.26 579.88 473.93 579.88 478.47V482.35C579.88 486.88 576.21 490.56 571.67 490.56H504.58C500.05 490.56 496.37 494.23 496.37 498.77V517.3C496.37 521.83 500.04 525.51 504.58 525.51H546.19C550.72 525.51 554.4 529.18 554.4 533.72V537.61C554.4 542.14 550.73 545.82 546.19 545.82H504.58C500.05 545.82 496.37 549.49 496.37 554.03V577.83C496.37 582.36 500.04 586.04 504.58 586.04H575.45C579.98 586.04 583.66 589.71 583.66 594.25V598.74C583.68 602.93 580.31 606.31 576.12 606.31L576.13 606.33Z" fill="white"/>
<path d="M607.77 606.65C603.24 606.65 599.56 602.98 599.56 598.44V509.82C599.56 505.29 603.23 501.61 607.77 501.61C612.31 501.61 615.98 505.28 615.98 509.82V598.45C615.98 602.98 612.31 606.66 607.77 606.66V606.65Z" fill="white"/>
<path d="M847.55 553.87C847.55 571.05 841.67 585.06 829.88 595.9C819.86 605.13 807.31 609.74 792.25 609.74C777.19 609.74 764.6 605.12 754.51 595.9C742.76 585.18 736.84 571.18 736.84 553.87C736.84 536.56 742.76 522.91 754.64 512.21C765.02 502.78 777.58 498.03 792.27 498.03C806.96 498.03 819.36 502.77 829.78 512.21C841.64 523.04 847.56 536.93 847.56 553.87H847.55ZM830.46 553.78C830.46 542.94 826.88 533.99 819.76 527.01C812.63 519.99 803.46 516.49 792.19 516.49C780.92 516.49 771.58 520.02 764.41 527.09C757.24 534.16 753.66 543.06 753.66 553.79C753.66 564.52 757.16 574.02 764.2 580.93C771.25 587.84 780.54 591.29 792.16 591.29C803.78 591.29 812.93 587.84 819.94 580.93C826.95 574.02 830.46 565 830.46 553.79V553.78Z" fill="white"/>
<path d="M940.3 521.81C937.85 525.03 933.45 525.9 929.85 524.02C920.6 519.21 910.7 516.8 900.2 516.8C881.49 516.8 872.15 520.97 872.15 529.28C872.15 534.18 875.65 537.36 882.69 538.83C892.26 539.87 901.85 540.95 911.42 542.08C925.19 543.8 935.01 546.87 940.84 551.31C947.32 556.21 950.54 563.67 950.54 573.66C950.54 584.94 946.51 593.65 938.43 599.79C930.34 605.93 918.67 609.02 903.34 609.02C884.7 609.02 869.26 604.45 857.07 595.29C853.76 592.8 853.01 588.11 855.18 584.56L855.68 583.74C858.11 579.78 863.33 578.66 867.22 581.2C877.43 587.88 889.37 591.23 903.1 591.23C912.6 591.23 919.93 589.7 925.11 586.69C930.3 583.68 932.92 579.67 932.92 574.65C932.92 569.08 929.7 565.14 923.35 562.85C919.8 561.6 914.29 560.76 906.8 560.28C895.13 559.59 887.97 559.08 885.31 558.75C874.93 557.5 867.24 554.7 862.33 550.4C857.42 546.07 854.92 539.76 854.92 531.46C854.92 521.47 858.87 513.52 866.75 507.66C874.64 501.81 885.7 498.87 899.91 498.87C915.25 498.87 928.26 502.23 938.92 508.95C942.97 511.5 943.9 517.04 940.99 520.86L940.29 521.78V521.8L940.3 521.81Z" fill="white"/>
<path d="M1102.42 606.65C1097.89 606.65 1094.21 602.98 1094.21 598.44V509.82C1094.21 505.29 1097.88 501.61 1102.42 501.61H1173.41C1177.93 501.61 1181.62 505.28 1181.62 509.82V511.86C1181.62 516.39 1177.95 520.07 1173.41 520.07H1118.8C1114.27 520.07 1110.59 523.74 1110.59 528.28V534.58C1110.59 539.11 1114.26 542.79 1118.8 542.79H1151.76C1156.29 542.79 1159.97 546.46 1159.97 551V553.04C1159.97 557.57 1156.3 561.25 1151.76 561.25H1118.8C1114.27 561.25 1110.59 564.92 1110.59 569.46V580.02C1110.59 584.55 1114.26 588.23 1118.8 588.23H1176.55C1181.07 588.23 1184.76 591.9 1184.76 596.44V598.58C1184.79 603.04 1181.18 606.66 1176.72 606.66H1102.41L1102.42 606.65Z" fill="white"/>
<path d="M1241.67 501.64C1256.44 501.64 1268.32 506.5 1277.24 516.17C1286.17 525.84 1290.64 538.24 1290.64 553.38C1290.64 567.15 1285.93 580.36 1276.55 593C1273.89 596.66 1269.71 599.79 1263.95 602.39C1257.68 605.24 1251.15 606.65 1244.38 606.65H1204.98C1200.46 606.65 1196.77 602.98 1196.77 598.44V509.81C1196.77 505.28 1200.44 501.6 1204.98 501.6H1241.64V501.64H1241.65H1241.67ZM1245.53 588.22C1253.55 588.22 1260.15 585.09 1265.29 578.79C1270.44 572.49 1273.02 564.49 1273.02 554.75C1273.02 544.35 1270.29 535.97 1264.82 529.63C1259.35 523.28 1252.07 520.12 1242.94 520.12H1221.45C1216.92 520.12 1213.24 523.79 1213.24 528.33V580.06C1213.24 584.59 1216.91 588.27 1221.45 588.27H1245.55V588.23H1245.52L1245.53 588.22Z" fill="white"/>
<path d="M678.16 501.64C692.93 501.64 704.81 506.5 713.73 516.17C722.67 525.84 727.13 538.24 727.13 553.38C727.13 567.15 722.42 580.36 713.04 593C710.39 596.66 706.2 599.79 700.45 602.39C694.18 605.24 687.65 606.65 680.89 606.65H641.45C636.92 606.65 633.24 602.98 633.24 598.44V509.81C633.24 505.28 636.91 501.6 641.45 501.6H678.15V501.64H678.16ZM681.99 588.22C690 588.22 696.61 585.09 701.75 578.79C706.89 572.49 709.48 564.49 709.48 554.75C709.48 544.35 706.74 535.97 701.28 529.63C695.81 523.28 688.53 520.12 679.4 520.12H657.91C653.38 520.12 649.7 523.79 649.7 528.33V580.06C649.7 584.59 653.37 588.27 657.91 588.27H682.02V588.23H682L681.99 588.22Z" fill="white"/>
<path d="M1312.22 606.65C1307.69 606.65 1304.01 602.98 1304.01 598.44V509.82C1304.01 505.29 1307.68 501.61 1312.22 501.61C1316.76 501.61 1320.43 505.28 1320.43 509.82V598.45C1320.43 602.98 1316.76 606.66 1312.22 606.66V606.65Z" fill="white"/>
<path d="M1431.8 606.65H1431.68C1428.4 606.65 1425.43 604.7 1424.13 601.68L1418.7 589.06C1417.4 586.04 1414.44 584.09 1411.15 584.09H1365.42C1362.14 584.09 1359.17 586.04 1357.87 589.06L1352.44 601.68C1351.14 604.7 1348.18 606.65 1344.89 606.65H1344.77C1338.86 606.65 1334.88 600.57 1337.25 595.16L1375.93 506.53C1377.23 503.54 1380.19 501.61 1383.45 501.61H1393.11C1396.38 501.61 1399.34 503.55 1400.64 506.53L1439.3 595.16C1441.67 600.59 1437.69 606.65 1431.77 606.65H1431.8ZM1403.48 554.29L1395.88 536.63C1393.03 530.01 1383.67 530 1380.81 536.61L1373.17 554.21C1370.83 559.64 1374.79 565.69 1380.71 565.69H1395.99C1401.85 565.69 1405.8 559.69 1403.48 554.3V554.29Z" fill="white"/>
<path d="M1069.95 606.65C1065.42 606.65 1061.74 602.98 1061.74 598.44V541.13C1061.74 536.94 1056.33 535.28 1053.97 538.74L1028.78 579.39C1025.61 584.85 1017.71 584.84 1014.57 579.37L990.05 538.99C987.73 535.5 982.29 537.16 982.31 541.35L982.43 598.4C982.43 602.93 978.76 606.61 974.22 606.61H972.65C968.12 606.61 964.44 602.94 964.44 598.4V509.78C964.44 505.25 968.11 501.57 972.65 501.57H980.43C983.36 501.57 986.08 503.13 987.54 505.67L1014.74 550.64C1017.89 556.1 1025.79 556.11 1028.95 550.65L1056.28 505.64C1057.75 503.11 1060.45 501.55 1063.39 501.55H1072.1C1076.63 501.55 1080.31 505.22 1080.31 509.76V599.04C1080.31 603.24 1076.91 606.64 1072.71 606.64H1069.95V606.65Z" fill="white"/>
</g>
<defs>
<clipPath id="clip0_2227_2">
<rect width="1920" height="1080" fill="white"/>
</clipPath>
</defs>
</svg>
