<svg xmlns="http://www.w3.org/2000/svg" width="512" height="288" fill="none" viewBox="0 0 512 288"><g clip-path="url(#a)"><path fill="url(#b)" d="M512 0H0v288h512V0Z"/><path fill="#fff" d="M166.8 142h-34.1v27.8H146V153h20.8v-11Z"/><path fill="#fff" d="m161 118.2-33 15.4 4.7 10 33-15.4-4.7-10ZM179.2 120.4a6.7 6.7 0 0 0-6.7 6.8c0 2 .7 3.5 2 4.8 1.2 1.3 2.8 2 4.7 2 2 0 3.6-.7 4.8-2 1.2-1.3 1.8-2.9 1.8-4.8 0-2-.6-3.5-1.8-4.8a6.3 6.3 0 0 0-4.8-2ZM185.7 137h-13v32.8h13V137ZM205 121h-13v48.8h13v-48.7ZM258.1 138c-2-1-4.3-1.6-7-1.6-2.8 0-5.2.6-7.4 1.8-1 .5-1.8 1.1-2.6 1.8-.8-.8-1.6-1.4-2.6-2-1.8-1-3.8-1.6-6-1.6a14.7 14.7 0 0 0-8.3 2.4V137h-13v32.8h13V151c0-.7.2-1.4.5-1.9s.7-1 1.2-1.2a4 4 0 0 1 2-.5c1 0 1.8.4 2.5 1 .6.7 1 1.5 1 2.6v18.8h13V151c0-.7.2-1.4.4-1.9.3-.5.8-1 1.3-1.2a4 4 0 0 1 2-.5c1 0 1.8.4 2.4 1 .7.7 1 1.5 1 2.7v18.7h13v-19.4c0-3-.5-5.5-1.6-7.5-1.2-2.1-2.8-3.7-4.8-4.8ZM281.7 122.4h-10.8v47.4h13.3V153H305v-11h-20.8v-8.5H306v-11h-24.3ZM324 121h-13v48.8h13v-48.7ZM343.3 137h-13v32.8h13V137ZM336.7 120.4a6.7 6.7 0 0 0-6.7 6.8c0 2 .7 3.5 2 4.8 1.2 1.3 2.8 2 4.7 2 2 0 3.6-.7 4.8-2 1.3-1.3 1.9-2.9 1.9-4.8 0-2-.6-3.5-1.9-4.8a6.3 6.3 0 0 0-4.8-2ZM384 169.8l-11.2-17 10.5-15.8h-13.7l-4 7.2-3.9-7.1h-15l10.9 16-11.5 16.7h13.7l5-8.2 4.4 8.2H384Z"/></g><defs><linearGradient id="b" x1="382.4" x2="129.7" y1="362.9" y2="-74.8" gradientUnits="userSpaceOnUse"><stop stop-color="#7C4DFF"/><stop offset="1" stop-color="#607D8B"/></linearGradient><clipPath id="a"><path fill="#fff" d="M0 0h512v288H0z"/></clipPath></defs></svg>