<svg xmlns="http://www.w3.org/2000/svg" width="512" height="288" fill="none" viewBox="0 0 512 288"><g clip-path="url(#a)"><path fill="#FFF6EC" d="M512 0H0v288h512V0Z"/><path fill="#150A02" d="M129.4 196.6c-.8 0-1.5-.6-1.4-1.5a849.4 849.4 0 0 0 2.3-50.9 889.4 889.4 0 0 0 .4-21.8c0-.7.4-1.2 1-1.4a77 77 0 0 1 12.9-1.6c.7 0 1.3.6 1.4 1.4l.1 2.5v.8c.1 1.1 1.5 1.7 2.4 1l1-1a24.2 24.2 0 0 1 14.3-4.6c7 0 12 2.2 15.3 6.5 3.3 4.4 5 10.4 5 18.2a30 30 0 0 1-3.2 14 22.3 22.3 0 0 1-20.6 12.4A28 28 0 0 1 147 167c-.8-.6-2 0-2 1.1v1.3l-.3 6.5-.4 7.4-.4 7-.3 3.8c-.1.6-.6 1.2-1.2 1.3a54 54 0 0 1-10.3 1l-2.7.1Zm28.5-41.8c2.4 0 4.3-.4 6-1.4a9 9 0 0 0 3.5-4c.8-1.9 1.2-4 1.2-6.5 0-3.3-.7-5.8-2.3-7.6-1.5-1.8-4-2.7-7.4-2.7a15.8 15.8 0 0 0-10 3.3l-2.3 2c-.2.3-.3.6-.3 1v1.7l-.1 3.4-.1 3.5v2c0 .3 0 .7.3 1l2 1.5c1 .8 2.3 1.4 3.8 2 1.6.6 3.5.8 5.7.8ZM238.5 175.3c.3.5.2 1-.2 1.5a24.4 24.4 0 0 1-8 5.7c-2 1-4.3 1.6-6.8 2.2-2.5.5-5.4.7-8.5.7-5.1 0-9.7-1-13.6-2.9-4-2-7-4.8-9.3-8.7a28.3 28.3 0 0 1-3.3-14.3 31 31 0 0 1 3.4-15c2.4-4.2 5.6-7.5 9.7-9.8 4.1-2.4 9-3.6 14.4-3.6 7 0 12.5 2 16.5 5.8a22 22 0 0 1 6.3 16 37.1 37.1 0 0 1-.3 5.4c0 .8-.7 1.3-1.4 1.3h-2l-5.6-.2-6-.1h-4a87.8 87.8 0 0 0-15.5 1.2 12 12 0 0 0 .5 3.5 7.8 7.8 0 0 0 2.3 3.6c1.1 1 2.5 1.7 4 2.2 1.5.5 3.2.8 4.9.8a14.9 14.9 0 0 0 7.9-2.1 21 21 0 0 0 4.5-3.5c.5-.5 1.4-.5 2 0 0 .2.3.4.5.6a51.2 51.2 0 0 1 7.6 9.6ZM205.2 149c-.3 1 .6 1.8 1.5 1.7a121.8 121.8 0 0 1 15.8-.7h1c1 0 1.6-.7 1.4-1.6v-.6a9 9 0 0 0-9-6.8c-2.3 0-4.2.5-5.8 1.4a10.2 10.2 0 0 0-5 6.6ZM279.6 165c.4.6.5 1.2.1 1.8A17.5 17.5 0 0 1 264 175c-4 0-7.4-1-10-2.7-2.5-1.7-4.4-4-5.7-6.9-1.2-2.8-1.8-6-1.8-9.4a253.7 253.7 0 0 1 .5-18.2 351.2 351.2 0 0 1 .3-6.6c0-.8-.7-1.5-1.5-1.4a156 156 0 0 0-9.1 1.2c-.8.1-1.5-.4-1.7-1.2a61.5 61.5 0 0 1-.9-9.5V119c0-.7.4-1.3 1.2-1.4a218.8 218.8 0 0 1 10.7-1c.7 0 1.3-.7 1.3-1.4a286.4 286.4 0 0 1-.2-7.1l-.2-3.8-.1-1.7c-.1-.8.5-1.5 1.2-1.5l12.1-1c.9-.2 1.6.5 1.6 1.3v1.3a430.2 430.2 0 0 1 .1 11.6c0 .8.7 1.4 1.5 1.4l2.5-.1a291.2 291.2 0 0 1 11.8-.3 64.8 64.8 0 0 1 .5 11.2c0 .7-.6 1.4-1.4 1.4h-1.9a189.6 189.6 0 0 0-12 .6c-.7 0-1.3.7-1.3 1.4v1.7a532.8 532.8 0 0 0-.4 8.9v4.7l-.1 4.1c0 2.2 0 4.2.3 6 .2 1.8.7 3.2 1.5 4.2.7 1 1.9 1.6 3.5 1.6 1 0 2-.3 2.7-1 .7-.6 1.3-1.3 1.8-2.1l.3-.4c.5-.8 1.7-1 2.3-.1a62.7 62.7 0 0 0 3.1 3.8 190.6 190.6 0 0 0 3.3 3.9Z"/><path fill="#FF8B00" d="M295 127.8c-3.1 0-5.7-.9-7.7-2.6a8.8 8.8 0 0 1-3.1-7c0-2 .5-3.8 1.4-5.2 1-1.4 2.3-2.5 3.9-3.3 1.6-.7 3.2-1.1 5-1.1 2.8 0 5.1 1 7 2.7a9.5 9.5 0 0 1 2.7 7c0 2.8-.8 5-2.6 6.8a8.9 8.9 0 0 1-6.7 2.7Zm5.8 52c0 .6-.6 1-1.3 1.1l-2.2.2a68.7 68.7 0 0 1-11.5-.2c-.8 0-1.4-.7-1.3-1.5l.4-4a464.2 464.2 0 0 0 1.3-21 530.3 530.3 0 0 0 .7-18.2c0-.7.6-1.3 1.4-1.3a78 78 0 0 0 5.9-.3 1317.2 1317.2 0 0 0 6.4-.2c.7 0 1.3.5 1.4 1.3l.3 3.8a184 184 0 0 1 0 17.6 381.4 381.4 0 0 1-1.5 22.6ZM354.8 115.2c2.6 0 5.1-.3 7.6-1 1.6-.6 2.7-1.2 3.2-1.9.2-.2.3-.5.3-.7h-2.6c-1-.2-2.2-.8-3.6-1.9a8 8 0 0 1-3.4-6.8c0-2.7.9-5.2 2.5-7.3 1.6-2.1 3.5-3.4 5.7-4a13 13 0 0 1 6.7.4 19.9 19.9 0 0 1 11 8.6c1.3 2.1 1.9 4.5 1.8 7 0 2.5-1.1 5.2-3.2 8a29 29 0 0 1-12 9.5c-4.8 2-9.7 2.8-14.8 2.7h-3.3l-5.4.3c-1.3 0-2.7 0-4.2.2l-2.4.1c-.6 0-1.2.7-1.3 1.4v1.7a532.8 532.8 0 0 0-.3 8.9l-.2 4.8a152.9 152.9 0 0 0 .3 10c.2 1.8.7 3.2 1.5 4.2s2 1.6 3.5 1.6c1 0 2-.3 2.7-1a8 8 0 0 0 1.9-2l.2-.5c.5-.8 1.7-1 2.3-.1l.6.7a199.4 199.4 0 0 0 5 6l.8 1c.4.5.4 1.2 0 1.7A17.5 17.5 0 0 1 340 175c-4 0-7.3-1-9.9-2.7-2.6-1.7-4.5-4-5.7-6.9-1.3-2.8-1.9-6-1.9-9.4a208.9 208.9 0 0 1 .3-12.2 424.6 424.6 0 0 1 .5-11v-1.6c.1-.8-.6-1.5-1.5-1.4a156 156 0 0 0-9 1.2c-.8.1-1.6-.4-1.7-1.2a61.5 61.5 0 0 1-1-9.5V119c0-.7.5-1.3 1.2-1.4a218.8 218.8 0 0 1 10.7-1c.8 0 1.4-.7 1.4-1.4a125.3 125.3 0 0 1-.2-7.1l-.2-3.8-.2-1.7c0-.8.6-1.5 1.3-1.5l12.1-1c.8-.2 1.5.5 1.5 1.3v1.3a409.3 409.3 0 0 1 .2 11.6c0 .8.7 1.4 1.5 1.4l2.4-.1 3.6-.2a160.5 160.5 0 0 1 6.7-.1h2.8Z"/></g><defs><clipPath id="a"><path fill="#fff" d="M0 0h512v288H0z"/></clipPath></defs></svg>