<?xml version="1.0" encoding="utf-8"?>
<!-- Generator: Adobe Illustrator 28.4.1, SVG Export Plug-In . SVG Version: 6.00 Build 0)  -->
<svg version="1.1" id="Layer_1" xmlns="http://www.w3.org/2000/svg" xmlns:xlink="http://www.w3.org/1999/xlink" x="0px" y="0px"
	 viewBox="0 0 512 288" style="enable-background:new 0 0 512 288;" xml:space="preserve">
<style type="text/css">
	.st0{fill:#FFF6EC;}
	.st1{fill:#150A02;}
	.st2{fill:#FF8B00;}
</style>
<path class="st0" d="M512,0H0v288h512V0z"/>
<g>
	<path class="st1" d="M129.4,196.6c-0.8,0-1.5-0.6-1.4-1.5c1.3-16.9,2-33.9,2.3-50.9c0.2-7.3,0.4-14.5,0.4-21.8c0-0.7,0.4-1.2,1-1.4
		c4.2-0.9,8.6-1.4,12.9-1.6c0.7,0,1.3,0.6,1.4,1.4l0.1,2.5v0.8c0.1,1.1,1.5,1.7,2.4,1l1-1c4.2-3,9.2-4.6,14.3-4.6
		c7,0,12,2.2,15.3,6.5c3.3,4.4,5,10.4,5,18.2c0.1,4.9-1,9.7-3.2,14c-3.9,7.8-11.9,12.6-20.6,12.4c-4.7-0.1-9.2-1.3-13.3-3.6
		c-0.8-0.6-2,0-2,1.1v1.3l-0.3,6.5l-0.4,7.4l-0.4,7l-0.3,3.8c-0.1,0.6-0.6,1.2-1.2,1.3c-3.4,0.7-6.8,1-10.3,1L129.4,196.6
		L129.4,196.6z M157.9,154.8c2.4,0,4.3-0.4,6-1.4c1.5-1,2.8-2.3,3.5-4c0.8-1.9,1.2-4,1.2-6.5c0-3.3-0.7-5.8-2.3-7.6
		c-1.5-1.8-4-2.7-7.4-2.7c-3.6-0.1-7.1,1.1-10,3.3l-2.3,2c-0.2,0.3-0.3,0.6-0.3,1v1.7l-0.1,3.4l-0.1,3.5v2c0,0.3,0,0.7,0.3,1l2,1.5
		c1,0.8,2.3,1.4,3.8,2C153.8,154.6,155.7,154.8,157.9,154.8L157.9,154.8z M238.5,175.3c0.3,0.5,0.2,1-0.2,1.5c-2.3,2.4-5,4.4-8,5.7
		c-2,1-4.3,1.6-6.8,2.2c-2.5,0.5-5.4,0.7-8.5,0.7c-5.1,0-9.7-1-13.6-2.9c-4-2-7-4.8-9.3-8.7c-2.3-4.4-3.5-9.3-3.3-14.3
		c-0.1-5.2,1-10.4,3.4-15c2.4-4.2,5.6-7.5,9.7-9.8c4.1-2.4,9-3.6,14.4-3.6c7,0,12.5,2,16.5,5.8c4.2,4.3,6.5,10,6.3,16
		c0,1.8-0.1,3.6-0.3,5.4c0,0.8-0.7,1.3-1.4,1.3h-2l-5.6-0.2l-6-0.1h-4c-5.2-0.1-10.4,0.3-15.5,1.2c0,1.2,0.2,2.4,0.5,3.5
		c0.4,1.4,1.2,2.6,2.3,3.6c1.1,1,2.5,1.7,4,2.2s3.2,0.8,4.9,0.8c2.8,0.1,5.5-0.7,7.9-2.1c1.7-1,3.2-2.1,4.5-3.5c0.5-0.5,1.4-0.5,2,0
		c0,0.2,0.3,0.4,0.5,0.6c2.9,2.9,5.5,6.1,7.6,9.6L238.5,175.3z M205.2,149c-0.3,1,0.6,1.8,1.5,1.7c5.2-0.6,10.5-0.8,15.8-0.7h1
		c1,0,1.6-0.7,1.4-1.6v-0.6c-1-4.1-4.8-6.9-9-6.8c-2.3,0-4.2,0.5-5.8,1.4c-2.5,1.4-4.3,3.8-5,6.6L205.2,149z M279.6,165
		c0.4,0.6,0.5,1.2,0.1,1.8c-3.4,5.4-9.4,8.5-15.7,8.2c-4,0-7.4-1-10-2.7c-2.5-1.7-4.4-4-5.7-6.9c-1.2-2.8-1.8-6-1.8-9.4
		c-0.1-6.1,0.1-12.1,0.5-18.2c0.1-2.2,0.2-4.4,0.3-6.6c0-0.8-0.7-1.5-1.5-1.4c-3,0.3-6.1,0.7-9.1,1.2c-0.8,0.1-1.5-0.4-1.7-1.2
		c-0.5-3.1-0.8-6.3-0.9-9.5V119c0-0.7,0.4-1.3,1.2-1.4c3.6-0.4,7.1-0.8,10.7-1c0.7,0,1.3-0.7,1.3-1.4c-0.1-2.4-0.2-4.7-0.2-7.1
		l-0.2-3.8l-0.1-1.7c-0.1-0.8,0.5-1.5,1.2-1.5l12.1-1c0.9-0.2,1.6,0.5,1.6,1.3v1.3c0.1,3.9,0.1,7.7,0.1,11.6c0,0.8,0.7,1.4,1.5,1.4
		l2.5-0.1c3.9-0.2,7.9-0.3,11.8-0.3c0.5,3.7,0.7,7.5,0.5,11.2c0,0.7-0.6,1.4-1.4,1.4h-1.9c-4,0.1-8,0.3-12,0.6
		c-0.7,0-1.3,0.7-1.3,1.4v1.7c-0.2,3-0.3,5.9-0.4,8.9v4.7l-0.1,4.1c0,2.2,0,4.2,0.3,6c0.2,1.8,0.7,3.2,1.5,4.2
		c0.7,1,1.9,1.6,3.5,1.6c1,0,2-0.3,2.7-1c0.7-0.6,1.3-1.3,1.8-2.1l0.3-0.4c0.5-0.8,1.7-1,2.3-0.1c1,1.3,2,2.6,3.1,3.8
		c1.1,1.3,2.2,2.6,3.3,3.9L279.6,165z"/>
	<path class="st2" d="M295,127.8c-3.1,0-5.7-0.9-7.7-2.6c-2-1.7-3.2-4.3-3.1-7c0-2,0.5-3.8,1.4-5.2c1-1.4,2.3-2.5,3.9-3.3
		c1.6-0.7,3.2-1.1,5-1.1c2.8,0,5.1,1,7,2.7c1.8,1.9,2.8,4.4,2.7,7c0,2.8-0.8,5-2.6,6.8c-1.8,1.8-4.2,2.8-6.7,2.7H295z M300.8,179.8
		c0,0.6-0.6,1-1.3,1.1l-2.2,0.2c-3.8,0.3-7.7,0.2-11.5-0.2c-0.8,0-1.4-0.7-1.3-1.5l0.4-4c0.6-7,1-14,1.3-21
		c0.3-6.1,0.6-12.1,0.7-18.2c0-0.7,0.6-1.3,1.4-1.3c2,0,3.9-0.1,5.9-0.3c2.1-0.1,4.3-0.1,6.4-0.2c0.7,0,1.3,0.5,1.4,1.3l0.3,3.8
		c0.3,5.9,0.3,11.7,0,17.6C302,164.6,301.5,172.2,300.8,179.8L300.8,179.8z M354.8,115.2c2.6,0,5.1-0.3,7.6-1
		c1.6-0.6,2.7-1.2,3.2-1.9c0.2-0.2,0.3-0.5,0.3-0.7h-2.6c-1-0.2-2.2-0.8-3.6-1.9c-2.2-1.5-3.5-4.1-3.4-6.8c0-2.7,0.9-5.2,2.5-7.3
		c1.6-2.1,3.5-3.4,5.7-4c2.2-0.5,4.5-0.3,6.7,0.4c4.6,1.4,8.5,4.5,11,8.6c1.3,2.1,1.9,4.5,1.8,7c0,2.5-1.1,5.2-3.2,8
		c-3.1,4.2-7.2,7.5-12,9.5c-4.8,2-9.7,2.8-14.8,2.7h-3.3l-5.4,0.3c-1.3,0-2.7,0-4.2,0.2l-2.4,0.1c-0.6,0-1.2,0.7-1.3,1.4v1.7
		c-0.1,3-0.2,5.9-0.3,8.9l-0.2,4.8c0,3.3,0.1,6.7,0.3,10c0.2,1.8,0.7,3.2,1.5,4.2s2,1.6,3.5,1.6c1,0,2-0.3,2.7-1
		c0.7-0.6,1.4-1.2,1.9-2l0.2-0.5c0.5-0.8,1.7-1,2.3-0.1l0.6,0.7c1.6,2,3.3,4,5,6l0.8,1c0.4,0.5,0.4,1.2,0,1.7
		c-3.4,5.4-9.4,8.5-15.7,8.2c-4,0-7.3-1-9.9-2.7s-4.5-4-5.7-6.9c-1.3-2.8-1.9-6-1.9-9.4c0-4.1,0.1-8.1,0.3-12.2
		c0.1-3.7,0.3-7.3,0.5-11v-1.6c0.1-0.8-0.6-1.5-1.5-1.4c-3,0.3-6,0.7-9,1.2c-0.8,0.1-1.6-0.4-1.7-1.2c-0.6-3.1-0.9-6.3-1-9.5V119
		c0-0.7,0.5-1.3,1.2-1.4c3.6-0.4,7.1-0.8,10.7-1c0.8,0,1.4-0.7,1.4-1.4c-0.1-2.4-0.2-4.7-0.2-7.1l-0.2-3.8l-0.2-1.7
		c0-0.8,0.6-1.5,1.3-1.5l12.1-1c0.8-0.2,1.5,0.5,1.5,1.3v1.3c0.1,3.9,0.2,7.7,0.2,11.6c0,0.8,0.7,1.4,1.5,1.4l2.4-0.1l3.6-0.2
		c2.2-0.1,4.5-0.1,6.7-0.1h2.8L354.8,115.2z"/>
</g>
</svg>
