<?xml version="1.0" encoding="utf-8"?>
<!-- Generator: Adobe Illustrator 28.4.1, SVG Export Plug-In . SVG Version: 6.00 Build 0)  -->
<svg version="1.1" id="Layer_1" xmlns="http://www.w3.org/2000/svg" xmlns:xlink="http://www.w3.org/1999/xlink" x="0px" y="0px"
	 viewBox="0 0 512 288" style="enable-background:new 0 0 512 288;" xml:space="preserve">
<style type="text/css">
	.st0{fill:none;}
	.st1{fill:#DC0A2D;}
	.st2{fill-rule:evenodd;clip-rule:evenodd;fill:#FFFFFF;}
</style>
<rect class="st0" width="512" height="288"/>
<path class="st1" d="M512,0H0v288h512V0z"/>
<path class="st2" d="M256,216c36.3,0,66.3-26.8,71.3-61.7h-42.2c-4.2,12-15.7,20.6-29.1,20.6c-13.4,0-24.9-8.6-29.1-20.6h-42.2
	C189.7,189.2,219.7,216,256,216z M226.9,133.7h-42.2c5-34.9,35-61.7,71.3-61.7s66.3,26.8,71.3,61.7h-42.2
	c-4.2-12-15.7-20.6-29.1-20.6C242.6,113.1,231.1,121.7,226.9,133.7z M273.1,144c0,9.5-7.7,17.1-17.1,17.1c-9.5,0-17.1-7.7-17.1-17.1
	s7.7-17.1,17.1-17.1C265.5,126.9,273.1,134.5,273.1,144z"/>
</svg>
