<svg xmlns="http://www.w3.org/2000/svg" width="512" height="288" fill="none" viewBox="0 0 512 288"><g clip-path="url(#a)"><path fill="#249BC0" d="M512 0H0v288h512V0Z"/><path fill="#fff" d="M256 72a72 72 0 0 0-71 83.5h40.8a32.5 32.5 0 1 1 60.7 0H327A72 72 0 0 0 256 72h-.1ZM325.9 161.3l-1.3 4.3H187.3l-1.3-4.3H326ZM322.6 171.4l-1.9 4.3H191.3l-2-4.3h133.3ZM317.5 181.4a54 54 0 0 1-2.8 4.4H197.4l-3-4.4h123.1ZM310 191.5c-1.3 1.6-2.6 3-4 4.3H206a58.6 58.6 0 0 1-4-4.3h108ZM299.2 201.6c-2.1 1.5-4.2 3-6.4 4.3h-73.6a72.1 72.1 0 0 1-6.4-4.3h86.4ZM280.6 211.7a72 72 0 0 1-49.2 0h49.2Z"/></g><defs><clipPath id="a"><path fill="#fff" d="M0 0h512v288H0z"/></clipPath></defs></svg>