<?xml version="1.0" encoding="utf-8"?>
<!-- Generator: Adobe Illustrator 28.4.1, SVG Export Plug-In . SVG Version: 6.00 Build 0)  -->
<svg version="1.1" id="Layer_1" xmlns="http://www.w3.org/2000/svg" xmlns:xlink="http://www.w3.org/1999/xlink" x="0px" y="0px"
	 viewBox="0 0 512 288" style="enable-background:new 0 0 512 288;" xml:space="preserve">
<style type="text/css">
	.st0{fill:#249BC0;}
	.st1{fill:#FFFFFF;}
</style>
<path class="st0" d="M512,0H0v288h512V0z"/>
<path class="st1" d="M256,72c-39.8,0-72,32.3-71.9,72.1c0,3.8,0.3,7.6,0.9,11.4h40.8c-6.4-16.8,2-35.6,18.7-42
	c16.8-6.4,35.6,2,42,18.7c2.9,7.5,2.9,15.8,0,23.2H327c6.4-39.3-20.3-76.2-59.6-82.6C263.6,72.3,259.8,72,256,72h-0.1H256z
	 M325.9,161.3l-1.3,4.3H187.3l-1.3-4.3h140H325.9z M322.6,171.4l-1.9,4.3H191.3l-2-4.3H322.6z M317.5,181.4c-0.9,1.5-1.8,3-2.8,4.4
	H197.4l-3-4.4H317.5z M310,191.5c-1.3,1.6-2.6,3-4,4.3H206c-1.4-1.4-2.7-2.8-4-4.3H310z M299.2,201.6c-2.1,1.5-4.2,3-6.4,4.3h-73.6
	c-2.2-1.3-4.3-2.8-6.4-4.3H299.2z M280.6,211.7c-15.9,5.8-33.3,5.8-49.2,0H280.6z"/>
</svg>
