<?xml version="1.0" encoding="utf-8"?>
<!-- Generator: Adobe Illustrator 28.4.1, SVG Export Plug-In . SVG Version: 6.00 Build 0)  -->
<svg version="1.1" id="Layer_1" xmlns="http://www.w3.org/2000/svg" xmlns:xlink="http://www.w3.org/1999/xlink" x="0px" y="0px"
	 viewBox="0 0 512 288" style="enable-background:new 0 0 512 288;" xml:space="preserve">
<style type="text/css">
	.st0{fill:#FFFFFF;}
	.st1{fill:#28272C;}
	.st2{fill:#3B4B56;}
	.st3{fill:#58ECB0;}
</style>
<path class="st0" d="M512,0H0v288h512V0z"/>
<g>
	<path class="st1" d="M202,132.9h4.4l5.7,17l5.6-17h4.5l-7.8,22.2h-4.6L202,133V132.9z M224.3,132.9h4v4.2h-4V132.9z M224.3,138.9h4
		V155h-4v-16V138.9z M230.8,150.9l3-1.4c0.8,1.8,2.4,3,4.2,3c1.4,0,2.4-0.8,2.4-1.8s-0.9-1.4-2-1.7l-2.6-0.8
		c-2.7-0.8-4.2-2.4-4.2-4.7c0-3,2.5-5,6-5c3,0,5.6,1.6,6.6,4.2l-3,1.5c-0.5-1.5-2-2.5-3.6-2.5c-1.3,0-2.1,0.7-2.1,1.6
		c0,1,0.8,1.4,1.9,1.7l2.6,0.8c2.7,0.8,4.2,2.5,4.2,4.7c0,3-2.5,5-6.2,5C234.6,155.5,231.8,153.7,230.8,150.9L230.8,150.9z
		 M247.2,132.9h4v4.2h-4V132.9z M247.2,138.9h4V155h-4v-16V138.9z M254,147c0-4.9,3.9-8.5,8.7-8.5c4.8,0,8.6,3.6,8.6,8.5
		s-3.9,8.5-8.6,8.5c-4.6,0.1-8.5-3.6-8.6-8.2c0-0.1,0-0.2,0-0.3H254z M267.2,147c0-2.8-2-4.9-4.5-4.9c-2.6,0-4.6,2-4.6,4.9
		c0,2.8,2,4.9,4.6,4.9C265.4,151.9,267.2,149.9,267.2,147z M274.2,138.9h3.7v2c0.9-1.6,2.6-2.4,4.6-2.4c3.6,0,6.1,2.5,6.1,6.2V155
		h-3.9v-9.5c0-2.2-1.3-3.5-3.3-3.5s-3.3,1.4-3.3,3.5v9.5h-3.9v-16L274.2,138.9z M291.3,150.8c0-2.7,1.8-4.5,5.6-5.2l4.9-0.8v-0.5
		c0-1.4-1.3-2.4-3-2.4c-1.8,0-3,1-3.7,2.4l-3.2-1.5c1-2.6,3.8-4.3,7-4.3c4,0,6.8,2.4,6.8,5.8v10.8H302v-1.7c-1.3,1.4-3,2-5.1,2
		C293.5,155.4,291.3,153.7,291.3,150.8z M297.6,152.5c2.5,0,4.2-1.8,4.2-4v-0.7l-4.1,0.7c-1.6,0.3-2.3,1-2.3,2.2
		C295.4,151.8,296.3,152.5,297.6,152.5L297.6,152.5z M309.3,138.9h3.7v2.3c0.8-1.9,2.4-2.5,4.4-2.5h1v3.5h-1.5
		c-2.2,0-3.7,1.4-3.7,3.9v9h-4V139L309.3,138.9z M322.6,149.6v-7.4h-2.9v-3.5h0.4c1.5,0,2.5-0.7,2.5-2.3v-1.2h3.9v3.5h3.7v3.5h-3.7
		v7.1c0,1.7,0.8,2.6,2.7,2.6l1-0.1v3.3l-1.9,0.2C324.7,155.3,322.6,153.2,322.6,149.6L322.6,149.6z M332.5,147c0-4.9,3.5-8.5,8-8.5
		c5,0,8,3.6,8,8c0,0.6-0.1,1.2-0.3,1.6h-11.7c0.3,2.4,2,4,4.4,4c1.8,0,3-0.9,3.7-2.1l3.2,1.5c-1,2.3-3.7,4-7,4
		C335.8,155.5,332.5,151.7,332.5,147L332.5,147z M336.6,145.1h7.7c-0.2-2-1.7-3.3-3.8-3.3C338.5,141.8,337.1,143,336.6,145.1
		L336.6,145.1z M350.8,147c0-4.8,3.6-8.5,8.4-8.5c3.5,0,6.4,2,7.4,4.8l-3.4,1.5c-0.6-1.6-2.1-2.7-4-2.7c-2.5,0-4.4,2-4.4,5
		c0,2.8,1.9,4.8,4.4,4.8c1.8,0.1,3.4-1,4-2.7l3.4,1.5c-1,2.8-3.8,4.8-7.4,4.8c-4.6,0.1-8.3-3.6-8.4-8.2
		C350.8,147.2,350.8,147.1,350.8,147L350.8,147z M369.6,132.5h4v8c0.8-1.3,2.4-2,4.3-2c3.6,0,6.1,2.5,6.1,6.2V155h-4v-9.5
		c0-2.2-1.3-3.5-3.2-3.5c-2,0-3.3,1.4-3.3,3.5v9.5h-4v-22.6L369.6,132.5z M152,143.6c-1.2,0-2.3-0.6-2.8-1.7
		c-0.3,0.7-0.4,1.4-0.4,2.1c0,3.7,3,6.7,6.7,6.7c3.7,0,6.7-3,6.7-6.7c0-3.7-3-6.7-6.7-6.7c-0.8,0-1.5,0.1-2.2,0.4
		c1.6,0.4,2.6,2,2.2,3.6S153.5,144,152,143.6L152,143.6z"/>
	<path class="st2" d="M151.6,154.4c-5.7-2-8.8-8.2-6.8-14c1.1-3.2,3.6-5.7,6.8-6.8c-0.4-6,1.3-12,4.7-17h-0.8
		c-15.2,0.9-26.7,13.9-25.8,29.1c0.8,13.9,11.9,25,25.8,25.8h0.8c-1.6-2.3-3.1-5.1-4-8.3C151.5,160.2,151.4,157.2,151.6,154.4z"/>
	<path class="st3" d="M172.1,168.3c-1.2-0.5-2.4-1-3.5-1.6c0,1.3-0.2,2.6-0.4,3.9c1.5,1,2.9,1.7,3.9,2.2V168.3L172.1,168.3z
		 M165.4,164.8c-3.5-2.5-6.3-6-8.1-9.9c-1,0.2-2,0.2-3,0.1c-1,9.3,4.9,17,9.8,21c1.2-3.5,1.8-7.2,1.8-10.9L165.4,164.8L165.4,164.8z
		 M181.9,156.8c-1.2,0.2-2.5,0.3-3.7,0.3l1.6,3.6h4.4c-0.4-1-1.2-2.5-2.1-4L181.9,156.8L181.9,156.8z M175,157
		c-4.5-0.3-8.6-1.8-12.5-4.5c-0.8,0.7-1.7,1.3-2.6,1.7c3.7,7.6,11,11.8,19,13.3c-0.4-2.9-2-7.7-3.8-10.4L175,157z M184.8,141.7
		c-1,0.9-2,1.6-3.1,2.3c1,0.7,2.1,1.4,3.1,2.3c1.3-0.7,2.7-1.4,3.9-2.3C187.5,143.1,186.1,142.4,184.8,141.7z M183.8,148.8
		c-1.5-1.3-3.1-2.4-4.8-3.3c-4,2-8.7,2.7-13.2,2.4c-0.3,1-0.8,1.9-1.4,2.7c6.9,4.4,15.6,5.2,23.2,2
		C186.7,151.6,185.5,150.3,183.8,148.8L183.8,148.8z M182.4,134c-1.9-0.3-3.9-0.5-5.8-0.4c-2.6,3.7-6,6.6-10.2,8.6c0.2,1,0.2,2,0,3
		c8.7,0.7,15.8-3.6,21.2-9.8C186.4,135,184.6,134.4,182.4,134L182.4,134z M178.6,130l-0.4,0.9c1.2,0,2.5,0.2,3.9,0.4
		c1-1.5,1.7-3,2.1-3.9c-1,0-2.6-0.2-4.4,0C179.4,128.3,179,129.1,178.6,130L178.6,130z M165.6,139.6c7.8-3.8,11.8-11,13.3-19
		c-3.7,0.7-7.2,2-10.4,3.8c-0.3,4.6-1.9,8.7-4.5,12.5C164.7,137.7,165.2,138.6,165.6,139.6L165.6,139.6z M168.3,118.4l0.3,2.9
		l3.5-1.6v-4.5c-1,0.5-2.4,1.2-3.9,2.2L168.3,118.4L168.3,118.4z M154.2,133c2.8-0.3,5.6,0.4,7.9,2.1c4.4-6.9,5.2-15.6,2-23.2
		C159.1,116,153.4,123.7,154.2,133L154.2,133z"/>
</g>
</svg>
