<svg xmlns="http://www.w3.org/2000/svg" width="512" height="288" fill="none" viewBox="0 0 512 288"><g clip-path="url(#a)"><path fill="#fff" d="M512 0H0v288h512V0Z"/><path fill="#28272C" d="M202 132.9h4.4l5.7 17 5.6-17h4.5l-7.8 22.2h-4.6L202 133ZM224.3 132.9h4v4.2h-4v-4.2Zm0 6h4V155h-4V139ZM230.8 150.9l3-1.4c.8 1.8 2.4 3 4.2 3 1.4 0 2.4-.8 2.4-1.8s-.9-1.4-2-1.7l-2.6-.8c-2.7-.8-4.2-2.4-4.2-4.7 0-3 2.5-5 6-5 3 0 5.6 1.6 6.6 4.2l-3 1.5c-.5-1.5-2-2.5-3.6-2.5-1.3 0-2.1.7-2.1 1.6 0 1 .8 1.4 1.9 1.7l2.6.8c2.7.8 4.2 2.5 4.2 4.7 0 3-2.5 5-6.2 5-3.4 0-6.2-1.8-7.2-4.6ZM247.2 132.9h4v4.2h-4v-4.2Zm0 6h4V155h-4V139ZM254 147c0-4.9 3.9-8.5 8.7-8.5 4.8 0 8.6 3.6 8.6 8.5s-3.9 8.5-8.6 8.5a8.4 8.4 0 0 1-8.6-8.5Zm13.2 0c0-2.8-2-4.9-4.5-4.9-2.6 0-4.6 2-4.6 4.9 0 2.8 2 4.9 4.6 4.9 2.7 0 4.5-2 4.5-4.9ZM274.2 138.9h3.7v2c.9-1.6 2.6-2.4 4.6-2.4 3.6 0 6.1 2.5 6.1 6.2V155h-3.9v-9.5c0-2.2-1.3-3.5-3.3-3.5-2 0-3.3 1.4-3.3 3.5v9.5h-3.9V139ZM291.3 150.8c0-2.7 1.8-4.5 5.6-5.2l4.9-.8v-.5c0-1.4-1.3-2.4-3-2.4-1.8 0-3 1-3.7 2.4l-3.2-1.5c1-2.6 3.8-4.3 7-4.3 4 0 6.8 2.4 6.8 5.8v10.8H302v-1.7c-1.3 1.4-3 2-5.1 2-3.4 0-5.6-1.7-5.6-4.6Zm6.3 1.7c2.5 0 4.2-1.8 4.2-4v-.7l-4.1.7c-1.6.3-2.3 1-2.3 2.2 0 1.1.9 1.8 2.2 1.8ZM309.3 138.9h3.7v2.3c.8-1.9 2.4-2.5 4.4-2.5h1v3.5h-1.5c-2.2 0-3.7 1.4-3.7 3.9v9h-4V139ZM322.6 149.6v-7.4h-2.9v-3.5h.4c1.5 0 2.5-.7 2.5-2.3v-1.2h3.9v3.5h3.7v3.5h-3.7v7.1c0 1.7.8 2.6 2.7 2.6l1-.1v3.3l-1.9.2c-3.6 0-5.7-2.1-5.7-5.8ZM332.5 147c0-4.9 3.5-8.5 8-8.5 5 0 8 3.6 8 8 0 .6-.1 1.2-.3 1.6h-11.7c.3 2.4 2 4 4.4 4 1.8 0 3-.9 3.7-2.1l3.2 1.5c-1 2.3-3.7 4-7 4-5 0-8.3-3.8-8.3-8.5Zm4.1-1.9h7.7c-.2-2-1.7-3.3-3.8-3.3-2 0-3.4 1.2-3.9 3.3ZM350.8 147c0-4.8 3.6-8.5 8.4-8.5 3.5 0 6.4 2 7.4 4.8l-3.4 1.5c-.6-1.6-2.1-2.7-4-2.7-2.5 0-4.4 2-4.4 5 0 2.8 1.9 4.8 4.4 4.8a4 4 0 0 0 4-2.7l3.4 1.5c-1 2.8-3.8 4.8-7.4 4.8a8.3 8.3 0 0 1-8.4-8.5ZM369.6 132.5h4v8c.8-1.3 2.4-2 4.3-2 3.6 0 6.1 2.5 6.1 6.2V155h-4v-9.5c0-2.2-1.3-3.5-3.2-3.5-2 0-3.3 1.4-3.3 3.5v9.5h-4v-22.6ZM152 143.6a3 3 0 0 1-2.8-1.7c-.3.7-.4 1.4-.4 2.1a6.7 6.7 0 1 0 4.5-6.3 3 3 0 0 1-1.4 5.9Z"/><path fill="#3B4B56" d="M151.6 154.4a11 11 0 0 1 0-20.8 26.7 26.7 0 0 1 4.7-17h-.8a27.5 27.5 0 0 0 0 54.9h.8c-1.6-2.3-3.1-5.1-4-8.3-.8-3-.9-6-.7-8.8Z"/><path fill="#58ECB0" d="M172.1 168.3a32 32 0 0 1-3.5-1.6c0 1.3-.2 2.6-.4 3.9 1.5 1 2.9 1.7 3.9 2.2v-4.5ZM165.4 164.8c-3.5-2.5-6.3-6-8.1-9.9-1 .2-2 .2-3 .1-1 9.3 4.9 17 9.8 21a33.7 33.7 0 0 0 1.8-10.9l-.5-.3ZM181.9 156.8a33 33 0 0 1-3.7.3l1.6 3.6h4.4c-.4-1-1.2-2.5-2.1-4h-.2ZM175 157c-4.5-.3-8.6-1.8-12.5-4.5a11 11 0 0 1-2.6 1.7c3.7 7.6 11 11.8 19 13.3-.4-2.9-2-7.7-3.8-10.4ZM184.8 141.7c-1 .9-2 1.6-3.1 2.3 1 .7 2.1 1.4 3.1 2.3a34 34 0 0 0 3.9-2.3 34 34 0 0 0-3.9-2.3ZM183.8 148.8a28.6 28.6 0 0 0-4.8-3.3c-4 2-8.7 2.7-13.2 2.4a11 11 0 0 1-1.4 2.7 25.2 25.2 0 0 0 23.2 2c-.9-1-2.1-2.3-3.8-3.8ZM182.4 134c-1.9-.3-3.9-.5-5.8-.4-2.6 3.7-6 6.6-10.2 8.6.2 1 .2 2 0 3 8.7.7 15.8-3.6 21.2-9.8-1.2-.4-3-1-5.2-1.4ZM178.6 130l-.4.9c1.2 0 2.5.2 3.9.4 1-1.5 1.7-3 2.1-3.9-1 0-2.6-.2-4.4 0a36 36 0 0 1-1.2 2.6ZM165.6 139.6c7.8-3.8 11.8-11 13.3-19a34.1 34.1 0 0 0-10.4 3.8c-.3 4.6-1.9 8.7-4.5 12.5.7.8 1.2 1.7 1.6 2.7ZM168.3 118.4l.3 2.9 3.5-1.6v-4.5c-1 .5-2.4 1.2-3.9 2.2l.1 1ZM154.2 133a11 11 0 0 1 7.9 2.1 25.2 25.2 0 0 0 2-23.2c-5 4.1-10.7 11.8-9.9 21.1Z"/></g><defs><clipPath id="a"><path fill="#fff" d="M0 0h512v288H0z"/></clipPath></defs></svg>