<svg width="100" height="100" viewBox="0 0 100 100" fill="none" xmlns="http://www.w3.org/2000/svg">
<g clip-path="url(#clip0_2226_10)">
<path d="M22.25 2.75L2.75 22.25C0.984375 24.0156 0 26.3906 0 28.875V95.3047C0 97.8984 2.09375 99.9922 4.6875 99.9922H95.3125C97.9062 99.9922 100 97.8984 100 95.3047V4.6875C100 2.09375 97.9062 0 95.3125 0H28.8906C26.4062 0 24.0156 0.984375 22.2656 2.75H22.25Z" fill="url(#paint0_radial_2226_10)"/>
<path d="M70.75 65.8828H63.5078V36.75H82.8047V43.5313H70.7422V48.7266H82.1094V55.3437H70.7422V65.8828H70.75Z" fill="white"/>
<path opacity="0.05" d="M61.6015 53.6562H68.7734C67.7109 61.0703 61.4765 65.9765 53.9219 65.9765C45.6484 65.9765 38.914 59.7734 38.914 51.4296C38.8984 49.4843 39.2734 47.5625 40.0234 45.7734C40.7734 43.9843 41.875 42.3593 43.2656 41.0156C46.1172 38.2421 49.9531 36.7109 53.9219 36.7656C61.4062 36.7656 67.8125 41.7109 68.7265 49.0078H61.5547C59.3984 40.7421 45.9687 41.5468 45.9687 51.4374C45.9687 61.3281 59.5703 62.0546 61.5937 53.6718L61.6015 53.6562Z" fill="#002447"/>
<path d="M60.1328 53.6563C58.8984 57.8282 54.5234 60.3126 50.2031 59.2735C45.8906 58.2345 43.1875 54.047 44.0781 49.797C44.9765 45.547 49.1484 42.7423 53.5312 43.4532C55.3281 43.6954 56.9844 44.5548 58.2187 45.8907C59.0703 46.7735 59.7109 47.836 60.0859 49.0079H67.0469C66.1328 41.6954 59.7109 36.7735 52.2422 36.7735C48.2656 36.7266 44.4375 38.2501 41.5781 41.0235C40.1875 42.3751 39.0859 43.9923 38.3359 45.7891C37.5859 47.5782 37.2109 49.5079 37.2265 51.4454C37.2265 59.7969 43.9219 65.9923 52.2344 65.9923C59.7812 65.9923 66 61.086 67.0781 53.6719H60.1172L60.1328 53.6563Z" fill="white"/>
<path opacity="0.05" d="M38.5078 61.6484H28.4297L26.7812 65.8828H19.0703L30.8672 36.7188H36.0078L48.2734 65.8906H40.1328L38.4922 61.6484H38.5078ZM31.2969 54.4297L31.0469 55.0859H35.9375L35.7656 54.5937L33.4844 48.3438L31.2891 54.4297H31.2969Z" fill="#002447"/>
<path d="M36.6016 61.6484H26.5469L24.8984 65.8828H17.1875L28.9844 36.7188H34.125L46.3906 65.8906H38.2578L36.6016 61.6484ZM29.4062 54.4297L29.1562 55.0859H34.0469L33.875 54.5937L31.6016 48.3438L29.4062 54.4297Z" fill="white"/>
</g>
<defs>
<radialGradient id="paint0_radial_2226_10" cx="0" cy="0" r="1" gradientUnits="userSpaceOnUse" gradientTransform="translate(-0.0461938 -0.327529) rotate(45) scale(141.422)">
<stop stop-color="#0ECAD4"/>
<stop offset="1" stop-color="#006BD6"/>
</radialGradient>
<clipPath id="clip0_2226_10">
<rect width="100" height="100" fill="white"/>
</clipPath>
</defs>
</svg>
