<svg width="100" height="80" viewBox="0 0 100 80" fill="none" xmlns="http://www.w3.org/2000/svg">
<g clip-path="url(#clip0_2229_60)">
<mask id="mask0_2229_60" style="mask-type:luminance" maskUnits="userSpaceOnUse" x="0" y="0" width="100" height="80">
<path d="M99.6032 0.395996H0.39682V79.6039H99.6032V0.395996Z" fill="white"/>
</mask>
<g mask="url(#mask0_2229_60)">
<path d="M11.3407 10.7474C11.1536 5.36202 15.3413 0.395996 21.0019 0.395996H79.0052C84.6659 0.395996 88.854 5.36202 88.6667 10.7474C88.4865 15.9206 88.7198 22.6218 90.4032 28.0857C92.0921 33.5666 94.9397 37.031 99.6032 37.4762V42.5238C94.9397 42.9689 92.0921 46.4333 90.4032 51.9142C88.7198 57.3781 88.4865 64.0793 88.6667 69.2527C88.854 74.6379 84.6659 79.6039 79.0052 79.6039H21.0019C15.3413 79.6039 11.1536 74.6379 11.3409 69.2527C11.5206 64.0793 11.2871 57.3781 9.60365 51.9142C7.91519 46.4333 5.06068 42.9689 0.39682 42.5238V37.4762C5.06049 37.031 7.91519 33.5666 9.60365 28.0857C11.2871 22.6218 11.5206 15.9206 11.3407 10.7474Z" fill="url(#paint0_linear_2229_60)"/>
<g filter="url(#filter0_d_2229_60)">
<path d="M52.1513 61.0555C61.3157 61.0555 66.8382 56.5597 66.8382 49.1442C66.8382 43.5389 62.8978 39.4808 57.0469 38.8384V38.6049C61.3455 37.9042 64.7188 33.9046 64.7188 29.4379C64.7188 23.0736 59.7038 18.9277 52.0618 18.9277H34.8674V61.0555H52.1513ZM41.5541 24.2704H50.4499C55.2859 24.2704 58.0321 26.4307 58.0321 30.3428C58.0321 34.5177 54.838 36.8532 49.0469 36.8532H41.5541V24.2704ZM41.5541 55.713V41.8456H50.3901C56.7185 41.8456 60.0022 44.181 60.0022 48.7355C60.0022 53.2898 56.8082 55.713 50.7782 55.713H41.5541Z" fill="url(#paint1_linear_2229_60)"/>
<path d="M52.1513 61.0555C61.3157 61.0555 66.8382 56.5597 66.8382 49.1442C66.8382 43.5389 62.8978 39.4808 57.0469 38.8384V38.6049C61.3455 37.9042 64.7188 33.9046 64.7188 29.4379C64.7188 23.0736 59.7038 18.9277 52.0618 18.9277H34.8674V61.0555H52.1513ZM41.5541 24.2704H50.4499C55.2859 24.2704 58.0321 26.4307 58.0321 30.3428C58.0321 34.5177 54.838 36.8532 49.0469 36.8532H41.5541V24.2704ZM41.5541 55.713V41.8456H50.3901C56.7185 41.8456 60.0022 44.181 60.0022 48.7355C60.0022 53.2898 56.8082 55.713 50.7782 55.713H41.5541Z" stroke="white"/>
</g>
</g>
</g>
<defs>
<filter id="filter0_d_2229_60" x="18.3674" y="6.42773" width="64.9708" height="75.1279" filterUnits="userSpaceOnUse" color-interpolation-filters="sRGB">
<feFlood flood-opacity="0" result="BackgroundImageFix"/>
<feColorMatrix in="SourceAlpha" type="matrix" values="0 0 0 0 0 0 0 0 0 0 0 0 0 0 0 0 0 0 127 0" result="hardAlpha"/>
<feOffset dy="4"/>
<feGaussianBlur stdDeviation="8"/>
<feColorMatrix type="matrix" values="0 0 0 0 0 0 0 0 0 0 0 0 0 0 0 0 0 0 0.15 0"/>
<feBlend mode="normal" in2="BackgroundImageFix" result="effect1_dropShadow_2229_60"/>
<feBlend mode="normal" in="SourceGraphic" in2="effect1_dropShadow_2229_60" result="shape"/>
</filter>
<linearGradient id="paint0_linear_2229_60" x1="15.1381" y1="2.49229" x2="101.957" y2="71.2762" gradientUnits="userSpaceOnUse">
<stop stop-color="#9013FE"/>
<stop offset="1" stop-color="#6610F2"/>
</linearGradient>
<linearGradient id="paint1_linear_2229_60" x1="37.8914" y1="21.7006" x2="57.3243" y2="54.5025" gradientUnits="userSpaceOnUse">
<stop stop-color="white"/>
<stop offset="1" stop-color="#F1E5FC"/>
</linearGradient>
<clipPath id="clip0_2229_60">
<rect width="100" height="80" fill="white"/>
</clipPath>
</defs>
</svg>
