<svg width="100" height="100" viewBox="0 0 100 100" fill="none" xmlns="http://www.w3.org/2000/svg">
<g clip-path="url(#clip0_245_2)">
<path d="M0 0H84C88.2435 0 92.3131 1.68571 95.3137 4.68629C98.3143 7.68687 100 11.7565 100 16V84C100 88.2435 98.3143 92.3131 95.3137 95.3137C92.3131 98.3143 88.2435 100 84 100H16C11.7565 100 7.68687 98.3143 4.68629 95.3137C1.68571 92.3131 0 88.2435 0 84L0 0Z" fill="#663399"/>
<path d="M35.8101 92C29.3871 91.994 25.4241 88.377 25.5001 81.721V64.882C25.5001 61.508 26.4881 58.942 28.4641 57.186C32.0131 53.767 40.2471 53.559 43.7231 57.238C45.8651 59.127 46.6731 62.986 46.4811 66.587H39.1091C39.1651 65.172 39.0901 63.029 38.2581 62.222C37.1771 60.759 34.3221 60.931 33.5671 62.454C33.1031 63.28 32.8711 64.503 32.8711 66.121V80.739C32.8711 83.804 33.9361 85.354 36.0671 85.388C37.0631 85.388 37.8201 85.026 38.3351 84.303C39.0541 83.445 39.1661 81.545 39.1081 80.171H46.4801C46.9841 87.178 42.8481 92.087 35.8091 92H35.8101ZM59.2141 92C52.0971 92.098 48.9131 87.034 49.1101 80.171H56.0691C55.8761 83.163 56.9041 85.888 59.3681 85.698C60.4671 85.698 61.2411 85.354 61.6881 84.665C62.5381 83.406 62.6971 79.77 61.4821 78.363C60.6331 77.008 57.5791 75.812 55.9661 75.006C53.6631 73.904 52.0051 72.596 50.9911 71.08C48.7041 67.716 48.9161 60.332 52.1251 57.34C55.2431 53.648 63.3861 53.478 66.5071 57.263C68.4321 59.214 69.2731 63.053 69.1101 66.586H62.4081C62.4651 65.134 62.3281 62.791 61.7641 61.937C61.3691 61.214 60.6211 60.852 59.5221 60.852C57.5631 60.852 56.5841 62.023 56.5841 64.364C56.6051 66.85 57.5741 67.87 59.8321 68.909C62.7561 70.045 66.4741 71.985 67.8221 74.333C71.8421 81.487 69.0841 92.415 59.2131 91.998L59.2141 92ZM81.6901 92C74.5731 92.098 71.3891 87.034 71.5861 80.171H78.5451C78.3521 83.163 79.3801 85.888 81.8441 85.698C82.9431 85.698 83.7171 85.354 84.1641 84.665C85.0141 83.406 85.1731 79.77 83.9581 78.363C83.1091 77.008 80.0551 75.812 78.4421 75.006C76.1391 73.904 74.4811 72.596 73.4671 71.08C71.1801 67.716 71.3921 60.332 74.6011 57.34C77.7191 53.648 85.8621 53.478 88.9831 57.263C90.9081 59.214 91.7491 63.053 91.5861 66.586H84.8841C84.9411 65.134 84.8041 62.791 84.2401 61.937C83.8451 61.214 83.0971 60.852 81.9981 60.852C80.0391 60.852 79.0601 62.023 79.0601 64.364C79.0811 66.85 80.0501 67.87 82.3081 68.909C85.2321 70.045 88.9501 71.985 90.2981 74.333C94.3181 81.487 91.5601 92.415 81.6891 91.998L81.6901 92Z" fill="white"/>
</g>
<defs>
<clipPath id="clip0_245_2">
<rect width="100" height="100" fill="white"/>
</clipPath>
</defs>
</svg>
