<svg width="71" height="101" viewBox="0 0 71 101" fill="none" xmlns="http://www.w3.org/2000/svg">
<g clip-path="url(#clip0_2229_8)">
<path d="M71.3465 20.1523L64.8922 92.4568L35.8799 100.5L6.94746 92.4682L0.5 20.1523H71.3465Z" fill="#264DE4"/>
<path d="M59.3666 87.8529L64.8822 26.0654H35.9232V94.3523L59.3666 87.8529Z" fill="#2965F1"/>
<path d="M15.2806 52.8862L16.0756 61.7554H35.9232V52.8862H15.2806Z" fill="#EBEBEB"/>
<path d="M35.9233 34.9346H35.8926H13.6834L14.4897 43.8039H35.9233V34.9346Z" fill="#EBEBEB"/>
<path d="M35.9232 85.1481V75.9204L35.8844 75.9308L26.0066 73.2636L25.3752 66.1899H20.5754H16.4719L17.7144 80.1159L35.8824 85.1595L35.9232 85.1481Z" fill="#EBEBEB"/>
<path d="M17.1732 0.5H27.9154V4.99219H21.6654V9.48438H27.9154V13.9766H17.1732V0.5Z" fill="black"/>
<path d="M30.0638 0.5H40.806V4.40625H34.556V5.1875H40.806V14.1719H30.0638V10.0703H36.3138V9.28906H30.0638V0.5Z" fill="black"/>
<path d="M42.9545 0.5H53.6967V4.40625H47.4467V5.1875H53.6967V14.1719H42.9545V10.0703H49.2045V9.28906H42.9545V0.5Z" fill="black"/>
<path d="M46.8141 61.7553L45.7846 73.258L35.8926 75.9279V85.1553L54.075 80.116L54.2084 78.6176L56.2926 55.2678L56.509 52.8861L58.1102 34.9346H35.8926V43.8039H48.3902L47.5832 52.8861H35.8926V61.7553H46.8141Z" fill="white"/>
</g>
<defs>
<clipPath id="clip0_2229_8">
<rect width="70" height="100" fill="white" transform="translate(0.5 0.5)"/>
</clipPath>
</defs>
</svg>
