<svg width="67" height="100" viewBox="0 0 67 100" fill="none" xmlns="http://www.w3.org/2000/svg">
<g clip-path="url(#clip0_2128_22)">
<path d="M0 83.3333C0 74.1286 7.49931 66.6666 16.75 66.6666H33.5V83.3333C33.5 92.538 26.0007 100 16.75 100C7.49931 100 0 92.538 0 83.3333Z" fill="#24CB71"/>
<path d="M33.5 0V33.3333H50.25C59.5007 33.3333 67 25.8713 67 16.6667C67 7.462 59.5007 0 50.25 0H33.5Z" fill="#FF7237"/>
<path d="M50.1103 66.6667C59.361 66.6667 66.8603 59.2047 66.8603 50C66.8603 40.7954 59.361 33.3334 50.1103 33.3334C40.8597 33.3334 33.3604 40.7954 33.3604 50C33.3604 59.2047 40.8597 66.6667 50.1103 66.6667Z" fill="#00B6FF"/>
<path d="M0 16.6667C0 25.8713 7.49931 33.3333 16.75 33.3333H33.5V0H16.75C7.49931 0 0 7.462 0 16.6667Z" fill="#FF3737"/>
<path d="M0 50C0 59.2047 7.49931 66.6667 16.75 66.6667H33.5V33.3334H16.75C7.49931 33.3334 0 40.7954 0 50Z" fill="#874FFF"/>
</g>
<defs>
<clipPath id="clip0_2128_22">
<rect width="67" height="100" fill="white"/>
</clipPath>
</defs>
</svg>
