<svg width="100" height="100" viewBox="0 0 100 100" fill="none" xmlns="http://www.w3.org/2000/svg">
<g clip-path="url(#clip0_2229_2)">
<path d="M0 3.34853V7.76308C1.84598 7.76308 3.34806 9.26512 3.34806 11.1105C3.34806 12.957 1.84598 14.459 0 14.459V18.8736C1.84598 18.8736 3.34806 20.3756 3.34806 22.221C3.34806 24.0675 1.84598 25.5695 0 25.5695V29.984C1.84598 29.984 3.34806 31.4861 3.34806 33.3337C3.34806 35.1814 1.84598 36.6834 0 36.6834V41.0979C1.84598 41.0979 3.34806 42.5988 3.34806 44.4453C3.34806 46.2918 1.84598 47.7939 0 47.7939V52.2084C1.84598 52.2084 3.34806 53.7093 3.34806 55.5558C3.34806 57.4023 1.84598 58.9043 0 58.9043V63.3189C1.84598 63.3189 3.34806 64.8198 3.34806 66.6663C3.34806 68.5128 1.84598 70.0148 0 70.0148V74.4294C1.84598 74.4294 3.34806 75.9303 3.34806 77.7768C3.34806 79.6233 1.84598 81.1253 0 81.1253V85.5398C1.84598 85.5398 3.34806 87.0407 3.34806 88.8872C3.34806 90.7337 1.84598 92.2358 0 92.2358V96.6526C0.881217 96.6526 1.74413 97.0091 2.36785 97.6328C2.99042 98.2553 3.34806 99.1182 3.34806 100H7.76273C7.76273 98.1535 9.26481 96.6526 11.1108 96.6526C12.9568 96.6526 14.4589 98.1535 14.4589 100H18.8735C18.8735 98.1535 20.3756 96.6526 22.2216 96.6526C24.0676 96.6526 25.5696 98.1535 25.5696 100H29.9843C29.9843 98.1535 31.4864 96.6526 33.3324 96.6526C35.1784 96.6526 36.6804 98.1535 36.6804 100H41.0951C41.0951 98.1535 42.5972 96.6526 44.4432 96.6526C46.2892 96.6526 47.7912 98.1535 47.7912 100H52.2059C52.2059 98.1535 53.708 96.6526 55.554 96.6526C57.3999 96.6526 58.902 98.1535 58.902 100H63.3167C63.3167 98.1535 64.8188 96.6526 66.6648 96.6526C68.5107 96.6526 70.0128 98.1535 70.0128 100H74.4275C74.4275 98.1535 75.9296 96.6526 77.7756 96.6526C79.6215 96.6526 81.1236 98.1535 81.1236 100H85.5383C85.5383 98.1535 87.0404 96.6526 88.8863 96.6526C90.7323 96.6526 92.2344 98.1535 92.2344 100H96.6514C96.6514 99.1182 97.009 98.2553 97.6327 97.6328C98.2553 97.0091 99.1182 96.6526 100 96.6526V92.2381C98.1534 92.2381 96.6514 90.736 96.6514 88.8895C96.6514 87.043 98.1534 85.5421 100 85.5421V81.1276C98.1534 81.1276 96.6514 79.6255 96.6514 77.779C96.6514 75.9325 98.1534 74.4317 100 74.4317V70.0171C98.1534 70.0171 96.6514 68.5151 96.6514 66.6686C96.6514 64.8221 98.1534 63.3212 100 63.3212V58.9066C98.1534 58.9066 96.6514 57.4046 96.6514 55.5581C96.6514 53.7116 98.1534 52.2107 100 52.2107V47.7962C98.1534 47.7962 96.6514 46.2941 96.6514 44.4476C96.6514 42.6011 98.1534 41.1002 100 41.1002V36.6857C98.1534 36.6857 96.6514 35.1836 96.6514 33.336C96.6514 31.4884 98.1534 29.9863 100 29.9863V25.5718C98.1534 25.5718 96.6514 24.0697 96.6514 22.2232C96.6514 20.3779 98.1534 18.8758 100 18.8758V14.4613C98.1534 14.4613 96.6514 12.9593 96.6514 11.1128C96.6514 9.26741 98.1534 7.76537 100 7.76537V3.34853C99.1182 3.34853 98.2553 2.99091 97.6327 2.36835C97.009 1.74465 96.6514 0.881764 96.6514 0H92.2367C92.2367 1.8465 90.7346 3.34853 88.8886 3.34853C87.0427 3.34853 85.5406 1.8465 85.5406 0H81.1259C81.1259 1.8465 79.6238 3.34853 77.7778 3.34853C75.9319 3.34853 74.4298 1.8465 74.4298 0H70.0151C70.0151 1.8465 68.513 3.34853 66.667 3.34853C64.8211 3.34853 63.319 1.8465 63.319 0H58.9043C58.9043 1.8465 57.4022 3.34853 55.5563 3.34853C53.7103 3.34853 52.2082 1.8465 52.2082 0H47.7935C47.7935 1.8465 46.2914 3.34853 44.4455 3.34853C42.5995 3.34853 41.0974 1.8465 41.0974 0H36.6827C36.6827 1.8465 35.1806 3.34853 33.3347 3.34853C31.4887 3.34853 29.9866 1.8465 29.9866 0H25.5719C25.5719 1.8465 24.0699 3.34853 22.2239 3.34853C20.3779 3.34853 18.8758 1.8465 18.8758 0H14.4611C14.4611 1.8465 12.9591 3.34853 11.1131 3.34853C9.2671 3.34853 7.76502 1.8465 7.76502 0H3.34806C3.34806 0.881764 2.99042 1.74465 2.36785 2.36835C1.74413 2.99091 0.881217 3.34853 0 3.34853Z" fill="url(#paint0_linear_2229_2)"/>
<path d="M85.1875 40.013H35.287L37.8912 27.8291H68.3047L71.0948 14.7153H27.3807L13.6154 79.6341H26.8228L32.8671 51.2665H64.5458L37.0191 78.5177L41.8556 87.0739C44.0872 85.5862 47.7145 85.3996 50.226 85.3996C54.691 85.3996 59.0622 86.8885 63.6182 86.8885C67.796 86.8885 72.0728 86.6093 79.0493 83.2607L81.4869 71.8212C76.7427 73.7736 69.7232 75.6344 63.6182 75.6344C61.1085 75.6344 58.783 75.0765 56.3648 74.7046L83.0479 48.7563L85.1875 40.013Z" fill="white"/>
</g>
<defs>
<linearGradient id="paint0_linear_2229_2" x1="49.9978" y1="12.1432" x2="49.9978" y2="89.3941" gradientUnits="userSpaceOnUse">
<stop stop-color="#BF0000"/>
<stop offset="1" stop-color="#8F0000"/>
</linearGradient>
<clipPath id="clip0_2229_2">
<rect width="100" height="100" fill="white"/>
</clipPath>
</defs>
</svg>
