<svg width="80" height="100" viewBox="0 0 80 100" fill="none" xmlns="http://www.w3.org/2000/svg">
<g clip-path="url(#clip0_2128_17)">
<path d="M25.0868 97.0375C29.2851 98.7174 33.8397 99.7141 38.6221 99.8802C45.0944 100.105 51.2491 98.7746 56.7514 96.2475C50.1533 93.6703 44.1777 89.9014 39.0776 85.2156C35.7718 90.4777 30.8822 94.6343 25.0868 97.0375Z" fill="#FF9100"/>
<path d="M39.077 85.2172C27.4353 74.5131 20.3729 59.0203 20.9697 42.0273C20.9893 41.4756 21.0185 40.9241 21.0528 40.3727C18.9678 39.8366 16.791 39.5095 14.551 39.4318C11.3446 39.3205 8.23946 39.7158 5.30799 40.5364C2.20023 45.9485 0.32485 52.1582 0.0912074 58.8095C-0.511737 75.9749 9.93715 90.9736 25.086 97.0391C30.8816 94.6357 35.771 90.4844 39.077 85.2172Z" fill="#FFC400"/>
<path d="M39.0771 85.2166C41.7838 80.9103 43.4248 75.8618 43.6158 70.4225C44.1184 56.1146 34.4435 43.8065 21.0529 40.3721C21.0186 40.9234 20.9894 41.4749 20.9699 42.0266C20.373 59.0196 27.4354 74.5125 39.0771 85.2166Z" fill="#FF9100"/>
<path d="M42.1184 0.154053C34.492 6.22809 28.4698 14.2373 24.8261 23.4637C22.7402 28.7484 21.4293 34.4251 21.0466 40.3757C34.4372 43.8102 44.1123 56.1183 43.6097 70.426C43.4186 75.8653 41.7728 80.9089 39.0708 85.2202C44.1706 89.9109 50.1464 93.675 56.7445 96.252C69.9882 90.1658 79.3847 77.0696 79.9288 61.5793C80.2813 51.5432 76.4027 42.5983 70.922 35.0482C65.134 27.0631 42.1184 0.154053 42.1184 0.154053Z" fill="#DD2C00"/>
</g>
<defs>
<clipPath id="clip0_2128_17">
<rect width="80" height="100" fill="white"/>
</clipPath>
</defs>
</svg>
