<svg width="100" height="98" viewBox="0 0 100 98" fill="none" xmlns="http://www.w3.org/2000/svg">
<g clip-path="url(#clip0_2229_115)">
<path fill-rule="evenodd" clip-rule="evenodd" d="M49.851 0C22.2847 0 0 22.4583 0 50.2424C0 72.4516 14.2786 91.2513 34.0867 97.9051C36.5633 98.4053 37.4704 96.824 37.4704 95.4939C37.4704 94.3291 37.3888 90.3366 37.3888 86.1767C23.5214 89.1718 20.6337 80.1875 20.6337 80.1875C18.4051 74.3647 15.1031 72.8681 15.1031 72.8681C10.5643 69.7903 15.4337 69.7903 15.4337 69.7903C20.4684 70.1231 23.1102 74.9475 23.1102 74.9475C27.5663 82.5997 34.7469 80.4376 37.6357 79.1064C38.048 75.8622 39.3694 73.6164 40.7724 72.3689C29.7122 71.2041 18.0755 66.8789 18.0755 47.58C18.0755 42.09 20.0551 37.5983 23.1918 34.105C22.6969 32.8576 20.9633 27.6993 23.6878 20.7954C23.6878 20.7954 27.8969 19.4642 37.3878 25.9526C41.4511 24.8529 45.6416 24.2934 49.851 24.2887C54.0602 24.2887 58.351 24.8716 62.3133 25.9526C71.8051 19.4642 76.0143 20.7954 76.0143 20.7954C78.7388 27.6993 77.0041 32.8576 76.5092 34.105C79.7286 37.5983 81.6265 42.09 81.6265 47.58C81.6265 66.8789 69.9898 71.1204 58.8469 72.3689C60.6633 73.9492 62.2306 76.9433 62.2306 81.685C62.2306 88.4225 62.149 93.8299 62.149 95.4928C62.149 96.824 63.0571 98.4053 65.5327 97.9061C85.3408 91.2503 99.6194 72.4516 99.6194 50.2424C99.701 22.4583 77.3347 0 49.851 0Z" fill="#24292F"/>
</g>
<defs>
<clipPath id="clip0_2229_115">
<rect width="100" height="98" fill="white"/>
</clipPath>
</defs>
</svg>
