<svg width="104" height="100" viewBox="0 0 104 100" fill="none" xmlns="http://www.w3.org/2000/svg">
<g clip-path="url(#clip0_2229_20)">
<path d="M101.765 39.64L101.62 39.2691L87.6066 2.59162C87.3214 1.87276 86.8165 1.26295 86.1646 0.849689C85.5122 0.443443 84.7509 0.247782 83.9838 0.289124C83.2172 0.330466 82.4812 0.606818 81.8759 1.08087C81.2771 1.56853 80.8429 2.22933 80.6322 2.97334L71.1704 32.0056H32.8565L23.3946 2.97334C23.1894 2.22528 22.7542 1.56117 22.1509 1.0755C21.5456 0.601442 20.8097 0.325089 20.0428 0.283747C19.2759 0.242405 18.5148 0.438065 17.8623 0.844313C17.2116 1.25924 16.7072 1.86852 16.4202 2.58624L2.3802 39.2475L2.24082 39.6185C0.223554 44.9045 -0.0254448 50.7051 1.53136 56.1453C3.08817 61.5857 6.3664 66.3711 10.8717 69.7797L10.92 69.8174L11.0486 69.9088L32.3955 85.941L42.9563 93.9572L49.3893 98.8281C50.1418 99.4013 51.0606 99.7115 52.0054 99.7115C52.9501 99.7115 53.8688 99.4013 54.6215 98.8281L61.0545 93.9572L71.6153 85.941L93.0908 69.812L93.1444 69.769C97.6394 66.3599 100.91 61.5792 102.465 56.1464C104.019 50.7132 103.773 44.921 101.765 39.64Z" fill="#E24329"/>
<path d="M101.765 39.64L101.62 39.269C94.7917 40.6747 88.3571 43.5753 82.7765 47.7637L52 71.1024C62.4804 79.054 71.6045 85.9626 71.6045 85.9626L93.08 69.8336L93.1336 69.7905C97.6351 66.3814 100.911 61.5981 102.467 56.1604C104.024 50.7225 103.778 44.9249 101.765 39.64Z" fill="#FC6D26"/>
<path d="M32.3953 85.9623L42.9561 93.9784L49.3891 98.8494C50.1416 99.4225 51.0604 99.7327 52.0052 99.7327C52.95 99.7327 53.8687 99.4225 54.6214 98.8494L61.0544 93.9784L71.6152 85.9623C71.6152 85.9623 62.4804 79.0322 51.9998 71.1021C41.5194 79.0322 32.3953 85.9623 32.3953 85.9623Z" fill="#FCA326"/>
<path d="M21.2181 47.7632C15.6417 43.5662 9.20881 40.658 2.3802 39.2471L2.24082 39.618C0.223554 44.9041 -0.0254448 50.7046 1.53136 56.1449C3.08817 61.5852 6.3664 66.3707 10.8717 69.7793L10.92 69.817L11.0486 69.9084L32.3955 85.9406C32.3955 85.9406 41.5089 79.032 52 71.0804L21.2181 47.7632Z" fill="#FC6D26"/>
</g>
<defs>
<clipPath id="clip0_2229_20">
<rect width="104" height="100" fill="white"/>
</clipPath>
</defs>
</svg>
