<svg width="100" height="37" viewBox="0 0 100 37" fill="none" xmlns="http://www.w3.org/2000/svg">
<g clip-path="url(#clip0_2128_28)">
<mask id="mask0_2128_28" style="mask-type:luminance" maskUnits="userSpaceOnUse" x="0" y="0" width="100" height="37">
<path d="M100 0H0V37H100V0Z" fill="white"/>
</mask>
<g mask="url(#mask0_2128_28)">
<path d="M29.0366 17.2825V17.2987L27.7256 23.0522C27.6549 23.3778 27.333 23.617 26.9622 23.617H25.3781C25.3211 23.6172 25.2658 23.6358 25.2202 23.6702C25.1744 23.7047 25.1409 23.753 25.1244 23.8082C23.6635 28.8205 21.6854 32.2664 19.0732 34.3347C16.8513 36.0959 14.1122 36.916 10.4525 36.916C7.16471 36.916 4.94763 35.8468 3.06715 33.7365C0.582998 30.9443 -0.443832 26.3785 0.17812 20.8753C1.29885 10.5436 6.59763 0.118281 16.8 0.118281C19.9037 0.0899148 22.3403 1.05808 24.0354 2.99195C25.8281 5.03558 26.7378 8.11521 26.7427 12.1445C26.7383 12.3212 26.6659 12.4892 26.5408 12.6126C26.4158 12.7361 26.248 12.8053 26.0732 12.8056H18.5976C18.4666 12.8016 18.3422 12.7468 18.2498 12.6527C18.1575 12.5587 18.1043 12.4324 18.1013 12.2999C18.0403 9.51381 17.2232 8.15591 15.5988 8.15591C12.733 8.15591 11.0428 12.0902 10.1464 14.272C8.89398 17.3183 8.25617 20.6262 8.38178 23.9217C8.44154 25.4559 8.68544 27.6143 10.1257 28.5072C11.4025 29.3002 13.2244 28.7747 14.3281 27.8966C15.4305 27.0197 16.3183 25.5016 16.6915 24.1165C16.7439 23.9241 16.7476 23.7749 16.6976 23.7071C16.6452 23.6392 16.5 23.6231 16.3891 23.6231H14.4695C14.368 23.6235 14.2676 23.6014 14.1753 23.5583C14.083 23.5153 14.0011 23.4524 13.9354 23.3741C13.885 23.3129 13.8492 23.2408 13.8308 23.1633C13.8124 23.0858 13.8119 23.0052 13.8293 22.9276L15.1415 17.163C15.2061 16.867 15.4708 16.645 15.7964 16.6043V16.5907H28.3939C28.4232 16.5907 28.4537 16.5907 28.4817 16.5969C28.8086 16.6388 29.0391 16.9471 29.033 17.2825H29.0366Z" fill="#0AE448"/>
<path d="M50.7244 10.6683C50.7191 10.8439 50.6463 11.0105 50.5215 11.1327C50.3967 11.255 50.2298 11.3233 50.0561 11.3232H43.1708C42.7195 11.3232 42.3427 10.9532 42.3427 10.5031C42.3427 8.47053 41.6476 7.4814 40.2256 7.4814C38.8037 7.4814 37.8866 8.3657 37.8598 9.9086C37.8293 11.6291 38.7915 13.1917 41.5305 15.8779C45.1366 19.2992 46.5817 22.3307 46.5122 26.3366C46.3988 32.8128 42.0439 37 35.4171 37C32.033 37 29.4476 36.0836 27.7281 34.278C25.983 32.4453 25.183 29.7542 25.35 26.2799C25.3558 26.1042 25.4288 25.9379 25.5538 25.8158C25.6788 25.6938 25.8458 25.6258 26.0195 25.6262H33.1415C33.2408 25.6279 33.3384 25.652 33.4275 25.6966C33.5165 25.7411 33.5945 25.8052 33.6561 25.884C33.7099 25.949 33.7493 26.0248 33.7716 26.1066C33.7939 26.1882 33.7986 26.2738 33.7854 26.3576C33.7061 27.6106 33.922 28.5467 34.4098 29.0647C34.722 29.4002 35.1573 29.5704 35.7 29.5704C37.0159 29.5704 37.7866 28.6294 37.8159 26.9927C37.8403 25.5769 37.3976 24.3349 34.9854 21.8251C31.8695 18.7467 29.0756 15.5659 29.1622 10.5647C29.2134 7.66517 30.3525 5.01227 32.3708 3.09567C34.5049 1.07053 37.4232 0 40.811 0C44.2049 0.0246667 46.7769 1.0027 48.4561 2.90943C50.0464 4.7175 50.8122 7.32723 50.7269 10.6671L50.7244 10.6683Z" fill="#0AE448"/>
<path d="M72.0684 35.7814L72.1135 1.33194C72.1149 1.24567 72.099 1.16 72.0672 1.07998C72.0352 0.999951 71.9879 0.927178 71.9278 0.865937C71.8677 0.804694 71.7961 0.756219 71.7172 0.723358C71.6383 0.690496 71.5536 0.673913 71.4684 0.67458H60.8123C60.4538 0.67458 60.2965 0.98538 60.194 1.19258L44.7647 35.5717V35.5779L44.7586 35.5853C44.5879 36.0083 44.9123 36.461 45.3647 36.461H52.8135C53.216 36.461 53.4818 36.3376 53.6135 36.0811L55.0928 32.4859C55.2745 32.0074 55.3086 31.963 55.8257 31.963H62.9428C63.4379 31.963 63.4489 31.9729 63.4404 32.4625L63.2806 35.8048C63.2794 35.891 63.2954 35.9765 63.3273 36.0564C63.3593 36.1364 63.4067 36.209 63.4668 36.27C63.5268 36.3312 63.5984 36.3796 63.6772 36.4124C63.756 36.4451 63.8405 36.4617 63.9257 36.461H71.4501C71.5433 36.4622 71.6356 36.4427 71.7205 36.404C71.8054 36.3651 71.8808 36.308 71.9416 36.2365C71.994 36.1745 72.0324 36.1016 72.0544 36.023C72.0762 35.9444 72.081 35.8621 72.0684 35.7814ZM58.8855 24.2793C58.816 24.2793 58.7611 24.2781 58.7172 24.2732C58.6911 24.2712 58.6658 24.2634 58.643 24.2503C58.6204 24.2374 58.6007 24.2195 58.5856 24.1979C58.5705 24.1763 58.5602 24.1517 58.5555 24.1258C58.5508 24.0998 58.5519 24.073 58.5586 24.0475C58.5733 23.9969 58.594 23.9303 58.6233 23.8464L63.9611 10.4931C64.0074 10.3612 64.066 10.2317 64.1269 10.1059C64.2135 9.92704 64.3184 9.91471 64.3513 10.0479C64.3794 10.1589 63.7391 23.7601 63.7391 23.7601C63.6891 24.2695 63.666 24.2904 63.1696 24.3324L58.8904 24.2818H58.8806L58.8855 24.2793Z" fill="#0AE448"/>
<path d="M87.2501 0.674598H81.5928C81.294 0.674598 80.9586 0.834932 80.8793 1.19507L73.0074 35.7641C72.9899 35.8423 72.9906 35.9235 73.0092 36.0013C73.0279 36.0791 73.0638 36.1516 73.1147 36.213C73.1803 36.2914 73.2619 36.3541 73.354 36.3972C73.446 36.4401 73.5462 36.4624 73.6476 36.4622H80.7184C81.0976 36.4622 81.3586 36.2735 81.4293 35.9466C81.4293 35.9466 82.2867 32.0394 82.2879 32.0271C82.3488 31.7225 82.244 31.4857 81.9732 31.3426C81.8452 31.276 81.7184 31.2094 81.5928 31.1416L80.3671 30.4978L79.1476 29.854L78.6757 29.6061C78.6375 29.5866 78.6056 29.5565 78.5835 29.5195C78.5615 29.4824 78.5503 29.4397 78.5513 29.3964C78.5529 29.3326 78.579 29.272 78.624 29.2273C78.6691 29.1827 78.7296 29.1575 78.7928 29.1571L82.6684 29.1744C83.8269 29.1806 84.9867 29.0979 86.1269 28.8858C94.1513 27.3873 99.4806 20.8876 99.6342 12.0435C99.7647 4.49547 95.5989 0.670898 87.2562 0.670898L87.2501 0.674598ZM85.3245 21.2465H85.1732C84.8342 21.2465 84.7732 21.2095 84.7623 21.1972C84.7574 21.1886 86.9976 11.2406 86.9988 11.227C87.0562 10.9396 87.0537 10.7744 86.8781 10.6769C86.6537 10.5511 83.383 8.80719 83.383 8.80719C83.3448 8.78709 83.313 8.75653 83.2913 8.71901C83.2695 8.6815 83.2586 8.63855 83.2598 8.59507C83.2614 8.5317 83.2874 8.47148 83.3323 8.42724C83.3771 8.383 83.4374 8.35825 83.5001 8.35827H88.672C90.2818 8.4076 91.1793 9.86417 91.1367 12.3505C91.0623 16.6573 89.0379 21.0936 85.3245 21.2465Z" fill="#0AE448"/>
</g>
</g>
<defs>
<clipPath id="clip0_2128_28">
<rect width="100" height="37" fill="white"/>
</clipPath>
</defs>
</svg>
