<svg width="82" height="30" viewBox="0 0 82 30" fill="none" xmlns="http://www.w3.org/2000/svg">
<g clip-path="url(#clip0_7_39)">
<path d="M23.81 14.0129V14.026L22.735 18.691C22.677 18.955 22.413 19.149 22.109 19.149H20.81C20.7633 19.1491 20.7179 19.1642 20.6805 19.1921C20.643 19.2201 20.6155 19.2592 20.602 19.304C19.404 23.368 17.782 26.162 15.64 27.839C13.818 29.267 11.572 29.9319 8.57103 29.9319C5.87503 29.9319 4.05703 29.065 2.51503 27.354C0.478029 25.09 -0.363971 21.388 0.146029 16.926C1.06503 8.54895 5.41003 0.0959501 13.776 0.0959501C16.321 0.0729501 18.319 0.85795 19.709 2.42595C21.179 4.08295 21.925 6.57995 21.929 9.84695C21.9254 9.99021 21.866 10.1264 21.7634 10.2265C21.6609 10.3266 21.5233 10.3827 21.38 10.383H15.25C15.1426 10.3797 15.0406 10.3353 14.9648 10.259C14.8891 10.1828 14.8455 10.0804 14.843 9.97295C14.793 7.71395 14.123 6.61295 12.791 6.61295C10.441 6.61295 9.05503 9.80295 8.32003 11.5719C7.29303 14.0419 6.77003 16.724 6.87303 19.396C6.92203 20.64 7.12203 22.39 8.30303 23.114C9.35003 23.757 10.844 23.3309 11.749 22.6189C12.653 21.9079 13.381 20.677 13.687 19.554C13.73 19.398 13.733 19.277 13.692 19.222C13.649 19.167 13.53 19.1539 13.439 19.1539H11.865C11.7817 19.1542 11.6994 19.1363 11.6237 19.1014C11.548 19.0665 11.4809 19.0155 11.427 18.952C11.3857 18.9024 11.3563 18.8439 11.3412 18.7811C11.3261 18.7183 11.3257 18.6529 11.34 18.59L12.416 13.916C12.469 13.676 12.686 13.496 12.953 13.463V13.452H23.283C23.307 13.452 23.332 13.452 23.355 13.457C23.623 13.491 23.812 13.7409 23.807 14.0129H23.81Z" fill="#0AE448"/>
<path d="M41.594 8.65C41.5896 8.79237 41.5299 8.92743 41.4276 9.02655C41.3253 9.12567 41.1884 9.18107 41.046 9.181H35.4C35.03 9.181 34.721 8.881 34.721 8.516C34.721 6.868 34.151 6.066 32.985 6.066C31.819 6.066 31.067 6.783 31.045 8.034C31.02 9.429 31.809 10.696 34.055 12.874C37.012 15.648 38.197 18.106 38.14 21.354C38.047 26.605 34.476 30 29.042 30C26.267 30 24.147 29.257 22.737 27.793C21.306 26.307 20.65 24.125 20.787 21.308C20.7917 21.1656 20.8516 21.0307 20.9541 20.9317C21.0566 20.8328 21.1935 20.7777 21.336 20.778H27.176C27.2574 20.7794 27.3375 20.7989 27.4105 20.8351C27.4835 20.8712 27.5475 20.9231 27.598 20.987C27.6421 21.0397 27.6744 21.1012 27.6927 21.1675C27.711 21.2337 27.7148 21.3031 27.704 21.371C27.639 22.387 27.816 23.146 28.216 23.566C28.472 23.838 28.829 23.976 29.274 23.976C30.353 23.976 30.985 23.213 31.009 21.886C31.029 20.738 30.666 19.731 28.688 17.696C26.133 15.2 23.842 12.621 23.913 8.566C23.955 6.215 24.889 4.064 26.544 2.51C28.294 0.868 30.687 0 33.465 0C36.248 0.02 38.357 0.813 39.734 2.359C41.038 3.825 41.666 5.941 41.596 8.649L41.594 8.65Z" fill="#0AE448"/>
<path d="M59.096 29.012L59.133 1.08001C59.1341 1.01006 59.1211 0.9406 59.095 0.875714C59.0688 0.810827 59.03 0.751822 58.9807 0.702167C58.9314 0.652511 58.8727 0.613207 58.808 0.586563C58.7433 0.559918 58.6739 0.546472 58.604 0.547013H49.866C49.572 0.547013 49.443 0.799013 49.359 0.967013L36.707 28.842V28.847L36.702 28.853C36.562 29.196 36.828 29.563 37.199 29.563H43.307C43.637 29.563 43.855 29.463 43.963 29.255L45.176 26.34C45.325 25.952 45.353 25.916 45.777 25.916H51.613C52.019 25.916 52.028 25.924 52.021 26.321L51.89 29.031C51.889 29.1009 51.9021 29.1702 51.9283 29.235C51.9545 29.2998 51.9934 29.3587 52.0427 29.4082C52.0919 29.4578 52.1506 29.497 52.2152 29.5236C52.2798 29.5501 52.3491 29.5636 52.419 29.563H58.589C58.6654 29.564 58.7411 29.5482 58.8107 29.5168C58.8803 29.4853 58.9422 29.439 58.992 29.381C59.035 29.3307 59.0665 29.2716 59.0845 29.2079C59.1024 29.1442 59.1063 29.0774 59.096 29.012ZM48.286 19.686C48.229 19.686 48.184 19.685 48.148 19.681C48.1266 19.6794 48.1059 19.6731 48.0872 19.6625C48.0686 19.652 48.0525 19.6375 48.0401 19.62C48.0277 19.6025 48.0193 19.5825 48.0154 19.5615C48.0116 19.5404 48.0125 19.5187 48.018 19.498C48.03 19.457 48.047 19.403 48.071 19.335L52.448 8.50801C52.486 8.40101 52.534 8.29601 52.584 8.19401C52.655 8.04901 52.741 8.03901 52.768 8.14701C52.791 8.23701 52.266 19.265 52.266 19.265C52.225 19.678 52.206 19.695 51.799 19.729L48.29 19.688H48.282L48.286 19.686Z" fill="#0AE448"/>
<path d="M71.545 0.546945H66.906C66.661 0.546945 66.386 0.676945 66.321 0.968945L59.866 28.9979C59.8517 29.0613 59.8522 29.1271 59.8675 29.1902C59.8828 29.2533 59.9123 29.3121 59.954 29.3619C60.0078 29.4254 60.0747 29.4763 60.1502 29.5112C60.2257 29.546 60.3078 29.5641 60.391 29.5639H66.189C66.5 29.5639 66.714 29.4109 66.772 29.1459C66.772 29.1459 67.475 25.9779 67.476 25.9679C67.526 25.7209 67.44 25.5289 67.218 25.4129C67.113 25.3589 67.009 25.3049 66.906 25.2499L65.901 24.7279L64.901 24.2059L64.514 24.0049C64.4827 23.9891 64.4565 23.9647 64.4384 23.9347C64.4204 23.9046 64.4112 23.87 64.412 23.8349C64.4133 23.7832 64.4347 23.734 64.4716 23.6978C64.5086 23.6616 64.5582 23.6412 64.61 23.6409L67.788 23.6549C68.738 23.6599 69.689 23.5929 70.624 23.4209C77.204 22.2059 81.574 16.9359 81.7 9.76495C81.807 3.64495 78.391 0.543945 71.55 0.543945L71.545 0.546945ZM69.966 17.2269H69.842C69.564 17.2269 69.514 17.1969 69.505 17.1869C69.501 17.1799 71.338 9.11395 71.339 9.10295C71.386 8.86995 71.384 8.73595 71.24 8.65695C71.056 8.55495 68.374 7.14094 68.374 7.14094C68.3427 7.12464 68.3166 7.09986 68.2988 7.06944C68.2809 7.03903 68.272 7.0042 68.273 6.96895C68.2743 6.91757 68.2956 6.86874 68.3324 6.83287C68.3692 6.797 68.4186 6.77693 68.47 6.77695H72.711C74.031 6.81695 74.767 7.99795 74.732 10.0139C74.671 13.5059 73.011 17.1039 69.966 17.2279V17.2269Z" fill="#0AE448"/>
</g>
<defs>
<clipPath id="clip0_7_39">
<rect width="82" height="30" fill="white"/>
</clipPath>
</defs>
</svg>
