<svg width="72" height="100" viewBox="0 0 72 100" fill="none" xmlns="http://www.w3.org/2000/svg">
<g clip-path="url(#clip0_2188_10)">
<path d="M7.17188 0H11.6641V4.45312H15.8047V0H20.2969V13.4766H15.8047V8.98438H11.7031V13.4766H7.17188M26.2344 4.49219H22.2695V0H34.7109V4.49219H30.7266V13.4766H26.2344M36.6836 0H41.3906L44.2812 4.74609L47.1719 0H51.8789V13.4766H47.3867V6.79687L44.2422 11.6406L41.0977 6.79687V13.4766H36.6836M54.1055 0H58.5977V9.02344H64.9648V13.4766H54.1055" fill="black"/>
<path d="M7.01562 91.9922L0.570312 19.6484H71.4297L64.9844 91.9531L35.9414 100" fill="#E44D26"/>
<path d="M36 93.8477V25.5859H64.9648L59.4375 87.3047" fill="#F16529"/>
<path d="M13.7344 34.4336H36V43.3008H23.4609L24.2812 52.3828H36V61.2305H16.1562M16.5469 65.6836H25.4531L26.0781 72.7734L36 75.4297V84.6875L17.7969 79.6094" fill="#EBEBEB"/>
<path d="M58.1875 34.4336H35.9609V43.3008H57.3672M56.5664 52.3828H35.9609V61.25H46.8984L45.8633 72.7734L35.9609 75.4297V84.6484L54.125 79.6094" fill="white"/>
</g>
<defs>
<clipPath id="clip0_2188_10">
<rect width="72" height="100" fill="white"/>
</clipPath>
</defs>
</svg>
