<svg width="103" height="100" viewBox="0 0 103 100" fill="none" xmlns="http://www.w3.org/2000/svg">
<g clip-path="url(#clip0_2128_42)">
<path d="M18.3468 -0.000120556H84.9749C87.3633 0.00135829 89.7276 0.475146 91.9307 1.39375C94.1338 2.31236 96.1317 3.65748 97.8085 5.35108C99.4854 7.04468 100.808 9.05302 101.699 11.2596C102.59 13.4661 103.032 15.8269 103 18.205V81.7948C102.997 84.1899 102.519 86.561 101.595 88.7724C100.671 90.9838 99.3186 92.9922 97.6148 94.6829C95.9109 96.3736 93.8892 97.7133 91.6652 98.6256C89.4411 99.538 87.0584 100.005 84.653 99.9999H18.3468C15.9414 100.005 13.5586 99.538 11.3346 98.6256C9.11054 97.7133 7.08884 96.3736 5.385 94.6829C3.68117 92.9922 2.3286 90.9838 1.4046 88.7724C0.480593 86.561 0.00326335 84.1899 -0.000114359 81.7948V18.205C-0.0236608 15.8023 0.435294 13.4192 1.34978 11.1957C2.26427 8.97214 3.61584 6.95303 5.32508 5.25699C7.03432 3.56096 9.06675 2.22221 11.3029 1.31942C13.5391 0.41662 15.934 -0.0320124 18.3468 -0.000120556Z" fill="#330000"/>
<path d="M49.8905 59.7871H33.7968L30.578 69.723C30.578 70.0435 30.2562 70.364 29.6124 70.364H21.8874C21.7204 70.3526 21.5633 70.2814 21.4449 70.1636C21.3266 70.0457 21.2551 69.8892 21.2437 69.723L35.0843 29.9794C35.4062 29.6589 35.4062 29.3383 35.4062 28.6973C35.6717 27.7599 35.7804 26.7853 35.728 25.8127L36.0499 25.4922H46.9937C47.3155 25.4922 47.6374 25.4922 47.6374 25.8127L63.4093 69.723C63.4093 70.0435 63.4093 70.364 63.0874 70.364H54.0749C53.9079 70.3526 53.7508 70.2814 53.6324 70.1636C53.5141 70.0457 53.4426 69.8892 53.4312 69.723L49.8905 59.7871ZM36.3718 51.1332H47.3155C46.9937 50.1717 46.6718 49.2101 46.3499 47.9281C46.0645 46.7056 45.6322 45.5219 45.0624 44.4024C44.7405 43.1204 44.0968 41.8383 43.7749 40.5563C43.492 39.2302 43.0601 37.94 42.4874 36.7101C42.0621 35.6754 41.7387 34.602 41.5218 33.505C41.1786 35.3724 40.6392 37.1987 39.9124 38.9537C39.2687 40.8768 38.6249 43.1204 37.9812 45.364C37.5949 47.3255 37.0569 49.2543 36.3718 51.1332Z" fill="#FF9A00"/>
<path d="M72.7437 32.8743C71.3035 32.8245 69.9307 32.2549 68.8812 31.2717C67.9842 30.195 67.5249 28.8228 67.5937 27.4256C67.6437 25.9915 68.2157 24.6246 69.203 23.5794C69.7087 23.0715 70.3103 22.6683 70.9732 22.3931C71.6362 22.118 72.3473 21.9763 73.0655 21.9763C73.7838 21.9763 74.4949 22.118 75.1578 22.3931C75.8208 22.6683 76.4224 23.0715 76.928 23.5794C77.4363 24.071 77.8185 24.6769 78.0425 25.3462C78.2666 26.0156 78.3259 26.7287 78.2155 27.4256C78.2954 28.1498 78.1897 28.8824 77.9082 29.555C77.6268 30.2276 77.1789 30.8182 76.6062 31.2717C76.1042 31.7845 75.5032 32.1908 74.8394 32.4662C74.1756 32.7416 73.4627 32.8804 72.7437 32.8743ZM68.2374 69.7333V37.041C68.2488 36.8747 68.3203 36.7182 68.4387 36.6003C68.557 36.4825 68.7142 36.4113 68.8812 36.3999H77.2499C77.4169 36.4113 77.5741 36.4825 77.6924 36.6003C77.8107 36.7182 77.8822 36.8747 77.8937 37.041V70.0538C77.8822 70.22 77.8107 70.3766 77.6924 70.4944C77.5741 70.6122 77.4169 70.6834 77.2499 70.6948H68.8812C68.2374 70.6948 68.2374 70.3743 68.2374 69.7333Z" fill="#FF9A00"/>
</g>
<defs>
<clipPath id="clip0_2128_42">
<rect width="103" height="100" fill="white"/>
</clipPath>
</defs>
</svg>
