<svg width="100" height="100" viewBox="0 0 100 100" fill="none" xmlns="http://www.w3.org/2000/svg">
<g clip-path="url(#clip0_2230_127)">
<path d="M29.2921 0.350054C23.9721 0.601054 20.3391 1.45005 17.1631 2.69805C13.8761 3.97905 11.0901 5.69805 8.31808 8.48005C5.54608 11.2621 3.83908 14.0501 2.56708 17.3421C1.33608 20.5251 0.502081 24.1611 0.267081 29.4841C0.0320811 34.8071 -0.0199189 36.5181 0.00608107 50.0961C0.0320811 63.6741 0.0920811 65.376 0.350081 70.71C0.604081 76.029 1.45008 79.6611 2.69808 82.8381C3.98108 86.1251 5.69808 88.9101 8.48108 91.6831C11.2641 94.4561 14.0501 96.1591 17.3501 97.4331C20.5301 98.6621 24.1671 99.5001 29.4891 99.7331C34.8111 99.9661 36.5241 100.02 50.0981 99.994C63.6721 99.968 65.3811 99.908 70.7141 99.655C76.0471 99.402 79.6601 98.5501 82.8381 97.3081C86.1251 96.0221 88.9121 94.308 91.6831 91.524C94.4541 88.74 96.1601 85.95 97.4311 82.656C98.6631 79.4761 99.5001 75.8391 99.7311 70.5211C99.9641 65.1841 100.019 63.4801 99.9931 49.9041C99.9671 36.3281 99.9061 34.6261 99.6531 29.2941C99.4001 23.9621 98.5531 20.3411 97.3061 17.1621C96.0211 13.8751 94.3061 11.0921 91.5241 8.31705C88.7421 5.54205 85.9501 3.83705 82.6571 2.56905C79.4751 1.33805 75.8401 0.499054 70.5181 0.269054C65.1961 0.0390543 63.4831 -0.0199457 49.9041 0.00605427C36.3251 0.0320543 34.6251 0.0900543 29.2921 0.350054ZM29.8761 90.7381C25.0011 90.5261 22.3541 89.7161 20.5901 89.0381C18.2541 88.1381 16.5901 87.0501 14.8321 85.3091C13.0741 83.5681 11.9941 81.898 11.0821 79.567C10.3971 77.803 9.57208 75.1591 9.34408 70.2841C9.09608 65.0151 9.04408 63.4331 9.01508 50.0841C8.98608 36.7351 9.03708 35.1551 9.26808 29.8841C9.47608 25.0131 10.2911 22.3631 10.9681 20.6001C11.8681 18.2611 12.9521 16.6001 14.6971 14.8431C16.4421 13.0861 18.1071 12.0041 20.4401 11.0921C22.2021 10.4041 24.8461 9.58605 29.7191 9.35405C34.9921 9.10405 36.5721 9.05405 49.9191 9.02505C63.2661 8.99605 64.8501 9.04605 70.1251 9.27805C74.9961 9.49005 77.6471 10.2971 79.4081 10.9781C81.7451 11.8781 83.4081 12.9591 85.1651 14.7071C86.9221 16.4551 88.0051 18.1141 88.9171 20.4521C89.6061 22.2091 90.4241 24.8521 90.6541 29.7281C90.9051 35.0011 90.9621 36.5821 90.9861 49.9281C91.0101 63.2741 90.9631 64.8591 90.7321 70.1281C90.5191 75.0031 89.7111 77.651 89.0321 79.417C88.1321 81.752 87.0471 83.417 85.3011 85.173C83.5551 86.929 81.8921 88.011 79.5581 88.923C77.7981 89.61 75.1511 90.43 70.2821 90.662C65.0091 90.91 63.4291 90.962 50.0771 90.991C36.7251 91.02 35.1501 90.966 29.8771 90.7381M70.6371 23.2771C70.6391 24.4638 70.9929 25.6234 71.654 26.609C72.315 27.5946 73.2535 28.3621 74.3507 28.8143C75.4479 29.2666 76.6546 29.3833 77.8182 29.1496C78.9817 28.916 80.0498 28.3426 80.8875 27.5019C81.7251 26.6612 82.2946 25.5909 82.524 24.4265C82.7533 23.2621 82.6322 22.0559 82.1759 20.9603C81.7197 19.8648 80.9488 18.9291 79.9607 18.2717C78.9727 17.6143 77.8119 17.2647 76.6251 17.2671C75.0341 17.2702 73.5096 17.9052 72.3867 19.0322C71.2637 20.1592 70.6344 21.6861 70.6371 23.2771ZM24.3271 50.0501C24.3551 64.2301 35.8711 75.699 50.0481 75.672C64.2251 75.645 75.7021 64.1301 75.6751 49.9501C75.6481 35.7701 64.1291 24.2981 49.9501 24.3261C35.7711 24.3541 24.3001 35.8721 24.3271 50.0501ZM33.3331 50.0321C33.3266 46.7356 34.2977 43.5113 36.1237 40.7668C37.9496 38.0223 40.5484 35.8809 43.5914 34.6134C46.6344 33.3459 49.9849 33.0092 53.2193 33.6459C56.4536 34.2826 59.4265 35.8641 61.762 38.1904C64.0976 40.5167 65.6908 43.4833 66.3403 46.7151C66.9898 49.9469 66.6664 53.2988 65.411 56.3468C64.1555 59.3947 62.0244 62.002 59.2872 63.8388C56.5499 65.6756 53.3295 66.6595 50.0331 66.666C47.8443 66.6706 45.676 66.244 43.6521 65.4105C41.6282 64.577 39.7883 63.353 38.2375 61.8083C36.6867 60.2637 35.4554 58.4286 34.6139 56.408C33.7724 54.3874 33.3371 52.2209 33.3331 50.0321Z" fill="url(#paint0_linear_2230_127)"/>
</g>
<defs>
<linearGradient id="paint0_linear_2230_127" x1="49.9995" y1="100" x2="49.9995" y2="0.000366211" gradientUnits="userSpaceOnUse">
<stop stop-color="#FF7A00"/>
<stop offset="0.495192" stop-color="#FF0169"/>
<stop offset="1" stop-color="#D300C5"/>
</linearGradient>
<clipPath id="clip0_2230_127">
<rect width="100" height="100" fill="white"/>
</clipPath>
</defs>
</svg>
