<svg width="100" height="100" viewBox="0 0 100 100" fill="none" xmlns="http://www.w3.org/2000/svg">
<g clip-path="url(#clip0_2226_2)">
<path d="M22.25 2.75L2.75 22.25C0.984375 24.0156 0 26.3906 0 28.875V95.3125C0 97.9062 2.09375 100 4.6875 100H95.3125C97.9062 100 100 97.9062 100 95.3125V4.6875C100 2.09375 97.9062 0 95.3125 0H28.8906C26.4062 0 24.0156 0.984375 22.2656 2.75H22.25Z" fill="url(#paint0_radial_2226_2)"/>
<path d="M48.375 31.6094V21.3125C48.375 20.5938 47.9532 19.9531 47.2813 19.6719C47.0625 19.5781 46.8438 19.5312 46.5938 19.5312C46.1094 19.5312 45.6719 19.7187 45.3282 20.0469L22.3907 43C17.5625 47.875 17.5313 52.75 22.2969 57.5156L45.3438 80.5625C45.6875 80.9063 46.125 81.0781 46.6094 81.0781C46.8438 81.0781 47.0782 81.0312 47.2969 80.9375C47.9688 80.6562 48.3907 80.0156 48.3907 79.2969V68.8906C48.3907 68.4219 48.2032 67.9687 47.875 67.625L30.4844 50.25L47.8594 32.8594C48.2032 32.5156 48.375 32.0781 48.375 31.5937V31.6094ZM44.8282 75.0156L27.9844 58.1719C27.9219 58.0937 27.8594 58.0156 27.7969 57.9375C26.3594 56.5 26.4375 54.8281 28.0313 52.8281L44.8438 69.6406V75.0156H44.8282ZM44.8282 25.6094V30.875L26.4375 49.2656C25.0313 50.6719 24.0625 52.125 23.5782 53.5937C21.5469 50.875 21.9688 48.4844 24.9219 45.5156L44.8282 25.6094Z" fill="white"/>
<path d="M77.7031 43.0937L54.6563 20.0469C54.3125 19.7031 53.875 19.5312 53.3906 19.5312C53.1562 19.5312 52.9219 19.5781 52.7031 19.6719C52.0313 19.9531 51.6094 20.5938 51.6094 21.3125V31.7187C51.6094 32.1875 51.7969 32.6406 52.125 32.9844L69.5 50.3594L52.125 67.7344C51.7969 68.0625 51.6094 68.5312 51.6094 69V79.2969C51.6094 80.0156 52.0313 80.6562 52.7031 80.9375C52.9219 81.0312 53.1406 81.0781 53.3906 81.0781C53.875 81.0781 54.3125 80.8906 54.6563 80.5625L77.6094 57.6094C82.4375 52.7344 82.4688 47.8594 77.7031 43.0937ZM55.1719 25.6094L72.0156 42.4531C72.0781 42.5313 72.1406 42.6094 72.2031 42.6875C73.125 43.6094 73.4063 44.5312 73.125 45.6406C72.9531 46.3281 72.5625 47.0469 71.9688 47.8125L55.1719 31.0156V25.625V25.6094ZM75.0781 55.1094L55.1719 75.0156V69.75L73.5625 51.3594C74.5469 50.375 75.8125 48.8438 76.4219 47.0313C78.4531 49.75 78.0313 52.1406 75.0781 55.1094Z" fill="white"/>
<path d="M59.7656 48.5312H40.2344C39.25 48.5312 38.4531 49.3281 38.4531 50.3125C38.4531 51.2969 39.25 52.0938 40.2344 52.0938H59.7656C60.75 52.0938 61.5469 51.2969 61.5469 50.3125C61.5469 49.3281 60.75 48.5312 59.7656 48.5312Z" fill="white"/>
<path d="M51.9219 40.6875H48.0781C47.0938 40.6875 46.2969 41.4844 46.2969 42.4687C46.2969 43.4531 47.0938 44.25 48.0781 44.25H51.9219C52.9063 44.25 53.7031 43.4531 53.7031 42.4687C53.7031 41.4844 52.9063 40.6875 51.9219 40.6875Z" fill="white"/>
<path d="M51.9219 56.375H48.0781C47.0938 56.375 46.2969 57.1719 46.2969 58.1562C46.2969 59.1406 47.0938 59.9375 48.0781 59.9375H51.9219C52.9063 59.9375 53.7031 59.1406 53.7031 58.1562C53.7031 57.1719 52.9063 56.375 51.9219 56.375Z" fill="white"/>
</g>
<defs>
<radialGradient id="paint0_radial_2226_2" cx="0" cy="0" r="1" gradientUnits="userSpaceOnUse" gradientTransform="translate(0.171018 -1.00096) rotate(45) scale(141.422)">
<stop stop-color="#0ECAD4"/>
<stop offset="1" stop-color="#039B5C"/>
</radialGradient>
<clipPath id="clip0_2226_2">
<rect width="100" height="100" fill="white"/>
</clipPath>
</defs>
</svg>
