<svg width="100" height="100" viewBox="0 0 100 100" fill="none" xmlns="http://www.w3.org/2000/svg">
<g clip-path="url(#clip0_2229_25)">
<path fill-rule="evenodd" clip-rule="evenodd" d="M100 23.3373V6.6331C99.9992 6.38269 99.9329 6.13684 99.8075 5.92006C99.6822 5.70327 99.5022 5.5231 99.2856 5.3975C99.0689 5.2719 98.8232 5.20525 98.5728 5.20419C98.3224 5.20312 98.076 5.26768 97.8583 5.39143L86.8583 11.6748C86.4203 11.9257 86.0563 12.2879 85.8031 12.7247C85.55 13.1615 85.4166 13.6574 85.4167 14.1623V30.8664C85.4167 31.9664 86.6042 32.6581 87.5583 32.1081L98.5583 25.8248C98.997 25.5735 99.3614 25.2106 99.6146 24.773C99.8678 24.3354 100.001 23.8428 100 23.3373ZM2.14583 5.3956L33.9917 23.6581C34.4255 23.9066 34.9167 24.0374 35.4167 24.0374C35.9166 24.0374 36.4079 23.9066 36.8417 23.6581L68.6875 5.3956C68.9053 5.27082 69.1521 5.20543 69.4031 5.20597C69.6541 5.20651 69.9006 5.27297 70.1179 5.39869C70.3351 5.52441 70.5156 5.70499 70.6411 5.92235C70.7667 6.13972 70.833 6.38624 70.8333 6.63727V56.7623C70.8333 57.7414 70.3333 58.6498 69.5042 59.1789L50.1292 71.4831L63.0875 79.1164C64.0042 79.6581 65.15 79.6456 66.0583 79.0789L85.2667 67.0873C85.4725 66.958 85.642 66.7785 85.7594 66.5656C85.8767 66.3528 85.938 66.1136 85.9375 65.8706V48.8498C85.9375 47.7914 86.5208 46.8248 87.4458 46.3248L97.8917 40.7164C98.1099 40.5999 98.3546 40.5419 98.6019 40.548C98.8492 40.5541 99.0908 40.6241 99.303 40.7512C99.5153 40.8783 99.691 41.0581 99.8132 41.2733C99.9353 41.4884 99.9997 41.7315 100 41.9789V73.3581C100 74.3748 99.4583 75.3164 98.5833 75.8289L65.9417 94.9623C65.4918 95.2256 64.9786 95.3613 64.4573 95.3546C63.936 95.348 63.4264 95.1994 62.9833 94.9248L38.1792 79.5873C37.9712 79.4586 37.7997 79.2789 37.6808 79.0652C37.5619 78.8515 37.4997 78.611 37.5 78.3664V63.2664C37.5 62.7873 37.7375 62.3414 38.1375 62.0748L54.9708 50.8498C55.3637 50.5885 55.686 50.2342 55.9092 49.8185C56.1323 49.4027 56.2494 48.9383 56.25 48.4664V30.1748C56.2499 30.0736 56.2229 29.9743 56.1717 29.887C56.1206 29.7997 56.0472 29.7275 55.959 29.6779C55.8708 29.6283 55.7711 29.6031 55.6699 29.6047C55.5688 29.6063 55.4699 29.6348 55.3833 29.6873L36.8833 40.7873C36.44 41.0535 35.9329 41.1948 35.4157 41.1963C34.8986 41.1977 34.3907 41.0593 33.9458 40.7956L15.1875 29.6789C15.1004 29.6277 15.0014 29.6003 14.9004 29.5995C14.7994 29.5987 14.7 29.6245 14.6121 29.6743C14.5242 29.7242 14.4511 29.7963 14.3999 29.8834C14.3488 29.9705 14.3215 30.0696 14.3208 30.1706V63.2248C14.3204 63.4778 14.253 63.7262 14.1255 63.9448C13.998 64.1633 13.8148 64.3442 13.5948 64.4691C13.3747 64.5939 13.1254 64.6583 12.8724 64.6557C12.6194 64.653 12.3716 64.5834 12.1542 64.4539L2.08333 58.4123C0.791667 57.6373 0 56.2373 0 54.7289V6.63727C0 5.53727 1.19167 4.8456 2.14583 5.3956Z" fill="#0073E6"/>
</g>
<defs>
<clipPath id="clip0_2229_25">
<rect width="100" height="100" fill="white"/>
</clipPath>
</defs>
</svg>
