<svg width="100" height="100" viewBox="0 0 100 100" fill="none" xmlns="http://www.w3.org/2000/svg">
<g clip-path="url(#clip0_2229_48)">
<mask id="mask0_2229_48" style="mask-type:luminance" maskUnits="userSpaceOnUse" x="0" y="0" width="100" height="100">
<path d="M100 0H0V100H100V0Z" fill="white"/>
</mask>
<g mask="url(#mask0_2229_48)">
<mask id="mask1_2229_48" style="mask-type:alpha" maskUnits="userSpaceOnUse" x="0" y="0" width="100" height="100">
<path d="M50 100C77.6143 100 100 77.6143 100 50C100 22.3857 77.6143 0 50 0C22.3857 0 0 22.3857 0 50C0 77.6143 22.3857 100 50 100Z" fill="black"/>
</mask>
<g mask="url(#mask1_2229_48)">
<path d="M50 100C77.6143 100 100 77.6143 100 50C100 22.3857 77.6143 0 50 0C22.3857 0 0 22.3857 0 50C0 77.6143 22.3857 100 50 100Z" fill="black"/>
<path d="M83.06 87.5111L38.4122 30H30V69.9834H36.7298V38.5465L77.7773 91.5805C79.6295 90.3411 81.3939 88.9805 83.06 87.5111Z" fill="url(#paint0_linear_2229_48)"/>
<path d="M70.5559 30H63.8891V70H70.5559V30Z" fill="url(#paint1_linear_2229_48)"/>
</g>
</g>
</g>
<defs>
<linearGradient id="paint0_linear_2229_48" x1="60.5555" y1="64.7222" x2="80.2777" y2="89.1666" gradientUnits="userSpaceOnUse">
<stop stop-color="white"/>
<stop offset="1" stop-color="white" stop-opacity="0"/>
</linearGradient>
<linearGradient id="paint1_linear_2229_48" x1="67.2225" y1="30" x2="67.1109" y2="59.375" gradientUnits="userSpaceOnUse">
<stop stop-color="white"/>
<stop offset="1" stop-color="white" stop-opacity="0"/>
</linearGradient>
<clipPath id="clip0_2229_48">
<rect width="100" height="100" fill="white"/>
</clipPath>
</defs>
</svg>
