<svg width="100" height="97" viewBox="0 0 100 97" fill="none" xmlns="http://www.w3.org/2000/svg">
<g clip-path="url(#clip0_2229_84)">
<mask id="mask0_2229_84" style="mask-type:luminance" maskUnits="userSpaceOnUse" x="0" y="0" width="100" height="97">
<path d="M100 0H0V97H100V0Z" fill="white"/>
</mask>
<g mask="url(#mask0_2229_84)">
<path d="M17.8125 7.59289e-05H82.5C84.8188 0.00151041 87.1143 0.461085 89.2532 1.35214C91.3921 2.24318 93.3318 3.54795 94.9598 5.19075C96.5879 6.83353 97.8718 8.78163 98.7369 10.922C99.6019 13.0624 100.031 15.3523 100 17.6591V79.3411C99.9971 81.6644 99.533 83.9643 98.6359 86.1094C97.7388 88.2544 96.4259 90.2027 94.7717 91.8426C93.1176 93.4825 91.1546 94.7821 88.9954 95.6671C86.8362 96.552 84.5228 97.0048 82.1875 97H17.8125C15.4772 97.0048 13.1638 96.552 11.0045 95.6671C8.84527 94.7821 6.88246 93.4825 5.22825 91.8426C3.57404 90.2027 2.26088 88.2544 1.36378 86.1094C0.466689 83.9643 0.00326193 81.6644 -1.74025e-05 79.3411V17.6591C-0.022878 15.3285 0.422709 13.0169 1.31057 10.86C2.19841 8.70316 3.51061 6.74463 5.17007 5.09948C6.82953 3.45432 8.80276 2.15574 10.9739 1.28003C13.1448 0.404315 15.47 -0.0308591 17.8125 7.59289e-05Z" fill="#001E36"/>
<path d="M22.5 67.942V25.349C22.5 25.0381 22.5 24.7272 22.8125 24.7272H35.9375C38.8049 24.5862 41.6719 25.0087 44.375 25.9707C46.4381 26.627 48.35 27.6838 50 29.0798C51.3885 30.3743 52.458 31.9702 53.125 33.7433C53.7383 35.4388 54.0554 37.2264 54.0625 39.0285C54.1391 42.1157 53.2669 45.1527 51.5625 47.7336C49.8925 49.9765 47.6168 51.7014 45 52.7079C41.9802 53.7275 38.814 54.2525 35.6251 54.2624H31.5625V67.6311C31.5297 67.8668 31.4199 68.0853 31.25 68.2528H23.125C22.8125 68.5637 22.5 68.2529 22.5 67.942ZM31.5625 32.8105V46.8009H35.3125C36.8917 46.7469 38.4617 46.5386 40 46.1791C41.3137 45.7574 42.4971 45.0082 43.4375 44.0028C44.4018 42.7662 44.8496 41.2071 44.6875 39.6503C44.6737 38.3507 44.3525 37.0726 43.75 35.9195C42.9663 34.9329 42.0143 34.091 40.9375 33.4324C39.3491 32.7958 37.6497 32.4788 35.9375 32.4996H33.1251C32.5931 32.5376 32.0682 32.6421 31.5625 32.8105Z" fill="#31A8FF"/>
<path d="M80 43.976C78.725 43.2726 77.3577 42.7494 75.9375 42.4214C74.3992 42.062 72.8292 41.8537 71.25 41.7997C70.4046 41.7493 69.557 41.8548 68.75 42.1106C68.125 42.1106 67.8125 42.4214 67.5 43.0433C67.1875 43.3542 67.1875 43.6651 67.1875 44.2868C67.1664 44.4556 67.1836 44.627 67.2377 44.7883C67.2918 44.9497 67.3814 45.0971 67.5 45.2195C67.9565 45.7083 68.483 46.1273 69.0625 46.4631C69.9374 47.0056 70.884 47.4241 71.875 47.7067C74.1029 48.4263 76.2096 49.4743 78.125 50.8157C79.4218 51.7949 80.5783 52.9455 81.5625 54.2356C82.2021 55.5971 82.5225 57.0854 82.5 58.5881C82.4219 60.5487 81.887 62.4645 80.9375 64.1843C79.6683 65.7541 78.0681 67.0277 76.25 67.9151C73.8604 68.8305 71.3089 69.2536 68.75 69.1586C66.8611 69.1053 64.9797 68.8973 63.125 68.5368C61.629 68.2671 60.1635 67.8506 58.75 67.2933C58.4375 67.2933 58.125 66.6714 58.125 66.3606V59.2099L58.4375 58.899H58.75C60.4381 59.8101 62.219 60.5397 64.0625 61.0753C65.703 61.4545 67.3787 61.6628 69.0625 61.6971C70.2395 61.733 71.411 61.521 72.5 61.0753C72.8643 60.9137 73.1751 60.6527 73.3963 60.3225C73.6175 59.9924 73.7402 59.6066 73.75 59.2099C73.756 58.8894 73.6714 58.5737 73.5056 58.2988C73.3398 58.0239 73.0996 57.801 72.8125 57.6555C71.5834 56.7934 70.2068 56.1613 68.75 55.7901C66.6202 55.0676 64.6169 54.0187 62.8125 52.6811C61.534 51.7799 60.4678 50.613 59.6875 49.2612C59.0479 47.8996 58.7274 46.4114 58.75 44.9086C58.7889 43.1371 59.3305 41.4126 60.3125 39.9343C61.2975 38.2282 62.8422 36.911 64.6875 36.2035C67.033 35.1154 69.6003 34.5833 72.1875 34.649C73.9641 34.5975 75.7418 34.7016 77.5 34.9599C78.7824 35.1235 80.0411 35.4365 81.25 35.8927L81.5625 36.2035V43.6651L81.25 43.976H80Z" fill="#31A8FF"/>
</g>
</g>
<defs>
<clipPath id="clip0_2229_84">
<rect width="100" height="97" fill="white"/>
</clipPath>
</defs>
</svg>
