<svg width="101" height="53" viewBox="0 0 101 53" fill="none" xmlns="http://www.w3.org/2000/svg">
<g clip-path="url(#clip0_242_2)">
<mask id="mask0_242_2" style="mask-type:luminance" maskUnits="userSpaceOnUse" x="0" y="0" width="101" height="53">
<path d="M0.172363 26.4707C0.172363 41.0899 22.5651 52.9414 50.1868 52.9414C77.8086 52.9414 100.201 41.0899 100.201 26.4707C100.201 11.8516 77.8086 -1.25707e-05 50.1868 -1.25707e-05C22.5651 -1.25707e-05 0.172363 11.8516 0.172363 26.4707Z" fill="white"/>
</mask>
<g mask="url(#mask0_242_2)">
<path d="M0.172363 26.4707C0.172363 41.0899 22.5651 52.9414 50.1868 52.9414C77.8086 52.9414 100.201 41.0899 100.201 26.4707C100.201 11.8516 77.8086 -1.25707e-05 50.1868 -1.25707e-05C22.5651 -1.25707e-05 0.172363 11.8516 0.172363 26.4707Z" fill="url(#paint0_radial_242_2)"/>
</g>
<mask id="mask1_242_2" style="mask-type:luminance" maskUnits="userSpaceOnUse" x="-2" y="-4" width="105" height="60">
<path d="M-1.91162 -3.01421H102.285V55.9556H-1.91162V-3.01421Z" fill="white"/>
</mask>
<g mask="url(#mask1_242_2)">
<path d="M50.1868 50.976C76.7296 50.976 98.2475 40.0045 98.2475 26.4706C98.2475 12.9369 76.7296 1.96521 50.1868 1.96521C23.6439 1.96521 2.12598 12.9369 2.12598 26.4706C2.12598 40.0045 23.6439 50.976 50.1868 50.976Z" fill="#777BB3"/>
</g>
<mask id="mask2_242_2" style="mask-type:luminance" maskUnits="userSpaceOnUse" x="-2" y="-4" width="105" height="60">
<path d="M-1.91162 -3.01421H102.285V55.9556H-1.91162V-3.01421Z" fill="white"/>
</mask>
<g mask="url(#mask2_242_2)">
<path d="M27.3455 29.509C29.528 29.509 31.1574 29.104 32.1883 28.3057C33.2082 27.5156 33.9126 26.1468 34.2818 24.2374C34.6261 22.4526 34.4949 21.2064 33.8922 20.5339C33.2758 19.847 31.9433 19.4987 29.9318 19.4987H26.4439L24.5103 29.509H27.3455ZM15.9376 41.8398C15.7757 41.8398 15.6219 41.767 15.519 41.6411C15.4159 41.5153 15.3741 41.3497 15.405 41.1897L20.5295 14.6622C20.579 14.4058 20.8024 14.2205 21.0622 14.2205H32.1067C35.5778 14.2205 38.1613 15.1688 39.7852 17.0392C41.4178 18.9195 41.922 21.5479 41.2836 24.8511C41.0238 26.1968 40.577 27.4467 39.9557 28.5656C39.3335 29.6859 38.5114 30.7224 37.5115 31.647C36.3147 32.774 34.9602 33.5912 33.4891 34.072C32.0414 34.5465 30.1821 34.7871 27.9631 34.7871H23.4909L22.2138 41.3979C22.1642 41.6546 21.941 41.8398 21.6812 41.8398H15.9376Z" fill="black"/>
<path d="M26.8915 20.0446H29.932C32.3598 20.0446 33.2032 20.5806 33.4897 20.9C33.9651 21.4304 34.0548 22.5486 33.7493 24.1337C33.406 25.9083 32.7696 27.1665 31.8575 27.873C30.9237 28.5963 29.4056 28.9629 27.3457 28.9629H25.1688L26.8915 20.0446ZM32.1069 13.6744H21.0623C20.5427 13.6744 20.0961 14.045 19.997 14.558L14.8725 41.0855C14.8106 41.4057 14.8942 41.7367 15.1003 41.9885C15.3065 42.2402 15.6136 42.3858 15.9378 42.3858H21.6813C22.201 42.3858 22.6476 42.0152 22.7468 41.5021L23.9385 35.3331H27.9633C30.2394 35.3331 32.1554 35.0833 33.6578 34.591C35.2028 34.086 36.6243 33.2296 37.8825 32.0459C38.923 31.0827 39.7801 30.0016 40.4295 28.8322C41.0791 27.6624 41.5458 26.358 41.8166 24.9551C42.4886 21.4781 41.9427 18.6938 40.1941 16.68C38.4626 14.6856 35.7415 13.6744 32.1069 13.6744ZM23.8521 30.0549H27.3457C29.6614 30.0549 31.3863 29.6161 32.5196 28.7383C33.6531 27.8603 34.4175 26.395 34.8148 24.3416C35.1949 22.3701 35.0217 20.9788 34.2954 20.1684C33.5682 19.3579 32.114 18.9526 29.932 18.9526H25.9968L23.8521 30.0549ZM32.1069 14.7664C35.4295 14.7664 37.8533 15.6437 39.3768 17.3984C40.9002 19.1531 41.3589 21.6024 40.7511 24.7469C40.5009 26.0422 40.0778 27.2265 39.4821 28.2995C38.8857 29.3731 38.1069 30.3548 37.1446 31.245C35.9977 32.3249 34.7236 33.0944 33.3217 33.5527C31.9197 34.0122 30.1341 34.241 27.9633 34.241H23.0436L21.6813 41.2937H15.9378L21.0623 14.7664H32.1069Z" fill="white"/>
<path d="M54.4527 34.7871C54.2906 34.7871 54.137 34.7143 54.0341 34.5884C53.9308 34.4626 53.889 34.2972 53.92 34.137L56.1868 22.3997C56.4024 21.2834 56.3492 20.4822 56.0372 20.1437C55.8462 19.9368 55.2723 19.5897 53.5757 19.5897H49.469L46.6189 34.3452C46.5694 34.6019 46.346 34.7871 46.0862 34.7871H40.3879C40.2259 34.7871 40.0723 34.7143 39.9692 34.5884C39.866 34.4626 39.8243 34.297 39.8552 34.137L44.9797 7.60953C45.0292 7.35309 45.2526 7.16781 45.5124 7.16781H51.2107C51.3727 7.16781 51.5263 7.24061 51.6294 7.36637C51.7325 7.49232 51.7743 7.65777 51.7434 7.81793L50.5068 14.2205H54.9247C58.2903 14.2205 60.5725 14.8175 61.9017 16.0457C63.2566 17.2986 63.6794 19.3019 63.1584 22.0007L60.7742 34.3452C60.7246 34.6019 60.5014 34.7871 60.2414 34.7871H54.4527Z" fill="black"/>
<path d="M51.2109 6.6217H45.5126C44.9929 6.6217 44.5463 6.99226 44.4472 7.50534L39.3227 34.0328C39.2608 34.353 39.3444 34.684 39.5506 34.9358C39.7569 35.1875 40.064 35.3331 40.3882 35.3331H46.0864C46.606 35.3331 47.0528 34.9625 47.1519 34.4494L49.9166 20.1356H53.576C55.2697 20.1356 55.6252 20.4996 55.6394 20.5153C55.7422 20.6265 55.8773 21.1416 55.6543 22.2955L53.3875 34.0328C53.3256 34.353 53.4092 34.684 53.6154 34.9358C53.8216 35.1875 54.1288 35.3331 54.4529 35.3331H60.2417C60.7612 35.3331 61.208 34.9625 61.3071 34.4494L63.6912 22.1049C64.2507 19.2072 63.772 17.0335 62.2691 15.6437C60.835 14.3185 58.4327 13.6744 54.9249 13.6744H51.1651L52.2764 7.92213C52.3381 7.60198 52.2547 7.27073 52.0485 7.0192C51.8422 6.76749 51.5351 6.6217 51.2109 6.6217ZM51.2109 7.71374L49.8486 14.7664H54.9249C58.119 14.7664 60.3222 15.3274 61.5347 16.4478C62.7473 17.569 63.1105 19.3856 62.6259 21.8967L60.2417 34.241H54.4529L56.7198 22.5039C56.9777 21.1687 56.8829 20.2579 56.435 19.7723C55.987 19.2867 55.0338 19.0436 53.576 19.0436H49.0217L46.0864 34.241H40.3882L45.5126 7.71374H51.2109Z" fill="white"/>
<path d="M72.1751 29.509C74.3576 29.509 75.9869 29.104 77.0179 28.3057C78.0378 27.5158 78.7422 26.147 79.1116 24.2374C79.4558 22.4526 79.3247 21.2064 78.7217 20.5339C78.1054 19.847 76.7729 19.4987 74.7613 19.4987H71.2735L69.3399 29.509H72.1751ZM60.7673 41.8398C60.6054 41.8398 60.4516 41.767 60.3487 41.6411C60.2456 41.5153 60.2036 41.3497 60.2346 41.1897L65.359 14.6622C65.4088 14.4058 65.632 14.2205 65.8919 14.2205H76.9363C80.4075 14.2205 82.9909 15.1688 84.615 17.0392C86.2476 18.9193 86.7516 21.5477 86.1134 24.8511C85.8532 26.1968 85.4066 27.4467 84.7852 28.5656C84.1631 29.6859 83.3409 30.7224 82.3411 31.647C81.1443 32.774 79.7897 33.5912 78.3187 34.072C76.871 34.5465 75.0117 34.7871 72.7926 34.7871H68.3203L67.0437 41.3979C66.994 41.6546 66.7707 41.8398 66.5108 41.8398H60.7673Z" fill="black"/>
<path d="M71.7204 20.0446H74.7609C77.1888 20.0446 78.0321 20.5806 78.3186 20.9C78.7942 21.4304 78.8839 22.5486 78.5782 24.1335C78.2349 25.9083 77.5983 27.1665 76.6864 27.873C75.7526 28.5963 74.2345 28.9629 72.1747 28.9629H69.9979L71.7204 20.0446ZM76.9359 13.6744H65.8914C65.3718 13.6744 64.9252 14.045 64.8261 14.558L59.7016 41.0855C59.6397 41.4057 59.7233 41.7367 59.9294 41.9885C60.1356 42.2402 60.4427 42.3858 60.7669 42.3858H66.5104C67.0299 42.3858 67.4768 42.0152 67.5759 41.5021L68.7675 35.3331H72.7922C75.0683 35.3331 76.9843 35.0833 78.4867 34.591C80.0317 34.086 81.4536 33.2294 82.7117 32.0455C83.7523 31.0825 84.609 30.0016 85.2584 28.8322C85.908 27.6624 86.3747 26.358 86.6455 24.9551C87.3176 21.4779 86.7716 18.6936 85.0231 16.6799C83.2915 14.6856 80.5706 13.6744 76.9359 13.6744ZM68.6812 30.0549H72.1747C74.4903 30.0549 76.2152 29.6161 77.3485 28.7383C78.4822 27.8603 79.2465 26.395 79.6437 24.3416C80.024 22.3701 79.8508 20.9788 79.1244 20.1684C78.3972 19.3579 76.9429 18.9526 74.7609 18.9526H70.8257L68.6812 30.0549ZM76.9359 14.7664C80.2584 14.7664 82.6822 15.6437 84.2058 17.3984C85.7293 19.1531 86.1879 21.6024 85.58 24.7469C85.3299 26.0422 84.9067 27.2265 84.311 28.2995C83.7146 29.3731 82.9359 30.3548 81.9735 31.245C80.8266 32.3249 79.5525 33.0944 78.1506 33.5527C76.7486 34.0122 74.963 34.241 72.7922 34.241H67.8726L66.5104 41.2937H60.7669L65.8914 14.7664H76.9359Z" fill="white"/>
</g>
</g>
<defs>
<radialGradient id="paint0_radial_242_2" cx="0" cy="0" r="1" gradientUnits="userSpaceOnUse" gradientTransform="translate(30.2013 9.30627) scale(65.6762 66.0785)">
<stop stop-color="#AEB2D5"/>
<stop offset="0.3" stop-color="#AEB2D5"/>
<stop offset="0.75" stop-color="#484C89"/>
<stop offset="1" stop-color="#484C89"/>
</radialGradient>
<clipPath id="clip0_242_2">
<rect width="100" height="53" fill="white" transform="translate(0.201172)"/>
</clipPath>
</defs>
</svg>
