<svg width="100" height="100" viewBox="0 0 100 100" fill="none" xmlns="http://www.w3.org/2000/svg">
<g clip-path="url(#clip0_2229_37)">
<path d="M50 59.5237C55.2599 59.5237 59.5238 55.2597 59.5238 49.9999C59.5238 44.74 55.2599 40.4761 50 40.4761C44.7402 40.4761 40.4762 44.74 40.4762 49.9999C40.4762 55.2597 44.7402 59.5237 50 59.5237Z" fill="#58C4DC"/>
<path fill-rule="evenodd" clip-rule="evenodd" d="M17.3053 37.0189C8.837 40.8296 4.7619 45.6031 4.7619 50C4.7619 54.3968 8.837 59.1703 17.3053 62.981C25.5501 66.6912 37.1073 69.0476 50 69.0476C62.8927 69.0476 74.4499 66.6912 82.6947 62.981C91.163 59.1703 95.2381 54.3968 95.2381 50C95.2381 45.6031 91.163 40.8296 82.6947 37.0189C74.4499 33.3087 62.8927 30.9523 50 30.9523C37.1073 30.9523 25.5501 33.3087 17.3053 37.0189ZM15.3512 32.6764C24.3411 28.631 36.5934 26.1904 50 26.1904C63.4066 26.1904 75.6589 28.631 84.6488 32.6764C93.4152 36.6213 100 42.5621 100 50C100 57.4378 93.4152 63.3786 84.6488 67.3235C75.6589 71.3689 63.4066 73.8095 50 73.8095C36.5934 73.8095 24.3411 71.3689 15.3512 67.3235C6.5848 63.3786 0 57.4378 0 50C0 42.5621 6.5848 36.6213 15.3512 32.6764Z" fill="#58C4DC"/>
<path fill-rule="evenodd" clip-rule="evenodd" d="M44.8946 15.195C37.3602 9.76662 31.1887 8.62423 27.381 10.8226C23.5732 13.021 21.4768 18.9369 22.4107 28.1761C23.3201 37.1714 27.0579 48.3584 33.5043 59.5238C39.9506 70.6892 47.7699 79.5198 55.1054 84.8049C62.6398 90.2333 68.8113 91.3757 72.6191 89.1773C76.4268 86.9789 78.5232 81.063 77.5893 71.8239C76.68 62.8286 72.9421 51.6416 66.4957 40.4762C60.0494 29.3108 52.2301 20.4802 44.8946 15.195ZM47.6782 11.3315C55.6766 17.0942 63.9164 26.4848 70.6197 38.0952C77.323 49.7057 81.3355 61.5368 82.327 71.345C83.2939 80.9093 81.4414 89.5823 75 93.3012C68.5586 97.0202 60.1214 94.288 52.3218 88.6685C44.3234 82.9057 36.0836 73.5152 29.3804 61.9047C22.6771 50.2943 18.6645 38.4632 17.673 28.655C16.7062 19.0906 18.5586 10.4176 25 6.69871C31.4414 2.97978 39.8787 5.71198 47.6782 11.3315Z" fill="#58C4DC"/>
<path fill-rule="evenodd" clip-rule="evenodd" d="M77.5893 28.1761C78.5232 18.937 76.4268 13.0211 72.6191 10.8227C68.8113 8.62428 62.6398 9.76666 55.1054 15.1951C47.7699 20.4802 39.9506 29.3108 33.5043 40.4762C27.0579 51.6416 23.3201 62.8286 22.4107 71.8239C21.4768 81.0631 23.5732 86.979 27.381 89.1774C31.1887 91.3758 37.3602 90.2334 44.8946 84.805C52.2301 79.5198 60.0494 70.6892 66.4957 59.5238C72.9421 48.3584 76.68 37.1714 77.5893 28.1761ZM82.327 28.655C81.3355 38.4632 77.323 50.2943 70.6197 61.9048C63.9164 73.5152 55.6766 82.9058 47.6782 88.6685C39.8787 94.288 31.4414 97.0202 25 93.3013C18.5586 89.5824 16.7062 80.9094 17.673 71.345C18.6645 61.5368 22.6771 49.7057 29.3804 38.0953C36.0836 26.4848 44.3234 17.0943 52.3218 11.3315C60.1214 5.71203 68.5586 2.97983 75 6.69875C81.4414 10.4177 83.2939 19.0907 82.327 28.655Z" fill="#58C4DC"/>
</g>
<defs>
<clipPath id="clip0_2229_37">
<rect width="100" height="100" fill="white"/>
</clipPath>
</defs>
</svg>
