<svg width="100" height="75" viewBox="0 0 100 75" fill="none" xmlns="http://www.w3.org/2000/svg">
<g clip-path="url(#clip0_2128_69)">
<path d="M86.0532 43.1076C82.5665 43.1258 79.5362 43.9661 76.9988 45.2082C76.0678 43.3633 75.1368 41.7194 74.9725 40.5138C74.79 39.1073 74.5709 38.2488 74.79 36.5684C75.009 34.8879 75.9948 32.4951 75.9765 32.3124C75.9583 32.1297 75.7575 31.2712 73.7494 31.253C71.7414 31.2347 70.0072 31.6366 69.8064 32.1663C69.6056 32.696 69.2222 33.9015 68.9667 35.1436C68.6198 36.9702 64.9506 43.4912 62.8513 46.9069C62.1759 45.5735 61.5917 44.4045 61.4639 43.4729C61.2814 42.0664 61.0623 41.2079 61.2814 39.5275C61.5005 37.847 62.4862 35.4542 62.468 35.2715C62.4497 35.0888 62.2489 34.2303 60.2409 34.2121C58.2328 34.1938 56.4986 34.5957 56.2978 35.1254C56.097 35.6551 55.878 36.8972 55.4581 38.1027C55.0382 39.3083 50.1642 50.1948 48.8864 53.0077C48.2292 54.4507 47.6633 55.6015 47.2617 56.3869C47.2617 56.3869 47.2434 56.4417 47.1887 56.5331C46.8418 57.2089 46.641 57.5742 46.641 57.5742C46.641 57.5742 46.641 57.5742 46.641 57.5925C46.3672 58.0857 46.0751 58.5423 45.9291 58.5423C45.8195 58.5423 45.6187 57.2272 45.9656 55.4371C46.6958 51.656 48.43 45.7744 48.4117 45.5735C48.4117 45.4639 48.7403 44.441 47.2799 43.9113C45.8561 43.3816 45.3449 44.2583 45.2171 44.2583C45.0894 44.2583 44.9981 44.5689 44.9981 44.5689C44.9981 44.5689 46.5862 37.9566 41.9678 37.9566C39.0835 37.9566 35.104 41.1166 33.1324 43.9661C31.8911 44.6419 29.2442 46.0849 26.4147 47.6375C25.3376 48.2403 24.2241 48.8431 23.1835 49.4093C23.1105 49.3363 23.0375 49.2449 22.9645 49.1719C17.3785 43.1989 7.04627 38.9795 7.48439 30.9607C7.64868 28.0382 8.65269 20.3665 27.3274 11.0508C42.698 3.47047 54.9287 5.57105 57.0463 10.2289C60.0766 16.8777 50.4928 29.2255 34.6111 31.0155C28.5505 31.6914 25.3741 29.3533 24.5709 28.4766C23.7312 27.5633 23.6034 27.5085 23.2931 27.6911C22.7819 27.9651 23.1105 28.7871 23.2931 29.262C23.7677 30.5041 25.721 32.696 29.0251 33.7737C31.9459 34.7235 39.047 35.2532 47.645 31.9288C57.2653 28.2026 64.7863 17.8458 62.5775 9.16944C60.3686 0.365254 45.7648 -2.53903 31.9459 2.37451C23.7312 5.29706 14.8228 9.90008 8.41538 15.8913C0.803116 23.015 -0.401703 29.2072 0.0911777 31.801C1.8619 41.007 14.549 46.9982 19.6239 51.4369C19.3683 51.583 19.131 51.7108 18.9302 51.8204C16.3927 53.0808 6.71768 58.1405 4.30805 63.4924C1.56982 69.5567 4.74616 73.904 6.84547 74.4885C13.3624 76.2968 20.062 73.0455 23.6582 67.6753C27.2544 62.3051 26.8163 55.3275 25.1551 52.131C25.1368 52.0944 25.1186 52.0579 25.082 52.0214C25.7392 51.6378 26.4147 51.2359 27.0718 50.8523C28.3679 50.0852 29.6458 49.3728 30.741 48.7883C30.1204 50.487 29.664 52.5145 29.445 55.4371C29.1711 58.8711 30.5768 63.328 32.4205 65.0815C33.242 65.8487 34.2095 65.867 34.8301 65.867C36.9842 65.867 37.9517 64.0769 39.0287 61.958C40.3431 59.3643 41.5297 56.3504 41.5297 56.3504C41.5297 56.3504 40.051 64.497 44.0671 64.497C45.5275 64.497 47.0061 62.5974 47.6633 61.6293C47.6633 61.6475 47.6633 61.6475 47.6633 61.6475C47.6633 61.6475 47.6998 61.5927 47.7728 61.4649C47.9189 61.2274 48.0101 61.0813 48.0101 61.0813C48.0101 61.0813 48.0101 61.063 48.0101 61.0447C48.5943 60.0219 49.9086 57.7021 51.8619 53.848C54.3811 48.8796 56.809 42.6692 56.809 42.6692C56.809 42.6692 57.028 44.1853 57.7765 46.706C58.2146 48.1855 59.1273 49.8112 59.8575 51.3821C59.2734 52.204 58.9083 52.6607 58.9083 52.6607C58.9083 52.6607 58.9083 52.6607 58.9265 52.6789C58.4519 53.3 57.9408 53.9758 57.3749 54.6334C55.3851 57.008 53.012 59.7296 52.6834 60.515C52.3 61.4466 52.3913 62.1224 53.1215 62.6704C53.6509 63.0723 54.6001 63.1271 55.5676 63.0723C57.3566 62.9444 58.6162 62.506 59.2368 62.232C60.2044 61.885 61.3362 61.3553 62.3949 60.5698C64.3482 59.1268 65.5348 57.0628 65.4252 54.3411C65.3705 52.8433 64.8776 51.3455 64.2752 49.939C64.4577 49.6833 64.622 49.4276 64.8046 49.1719C67.8896 44.6602 70.281 39.7101 70.281 39.7101C70.281 39.7101 70.5001 41.2262 71.2485 43.7469C71.6136 45.0255 72.3621 46.4137 73.0193 47.7654C70.1167 50.1217 68.3278 52.8616 67.6888 54.6517C66.5388 57.9761 67.4333 59.4739 69.131 59.8209C69.8977 59.9853 70.993 59.62 71.7962 59.2729C72.8184 58.9442 74.0233 58.3779 75.1733 57.5377C77.1266 56.0947 79.0068 54.0854 78.8973 51.3638C78.8425 50.1217 78.514 48.8979 78.0576 47.7106C80.522 46.6877 83.6983 46.1215 87.7509 46.5964C96.4402 47.6193 98.1562 53.0443 97.8276 55.3275C97.499 57.6107 95.6735 58.8528 95.0711 59.2364C94.4687 59.62 94.2679 59.7479 94.3227 60.0219C94.3957 60.4237 94.6877 60.4054 95.1989 60.3324C95.9108 60.2045 99.7626 58.4875 99.9269 54.2863C100.201 48.9162 95.0893 43.0528 86.0532 43.1076ZM19.0214 65.7208C16.1372 68.8626 12.1211 70.0499 10.3869 69.0452C8.52491 67.9675 9.25511 63.328 12.7965 60.0036C14.9506 57.9761 17.7254 56.0947 19.5691 54.9439C19.989 54.6882 20.6096 54.3229 21.3581 53.8662C21.4858 53.7932 21.5589 53.7566 21.5589 53.7566C21.7049 53.6653 21.8509 53.574 21.997 53.4826C23.2931 58.2318 22.0517 62.4147 19.0214 65.7208ZM40.0145 51.4369C39.0105 53.8845 36.9112 60.1497 35.6333 59.8027C34.5381 59.5104 33.8626 54.7613 35.4143 50.0669C36.1992 47.7106 37.8604 44.8976 38.8279 43.8017C40.3979 42.0482 42.1321 41.4636 42.5519 42.176C43.0813 43.1076 40.6352 49.9025 40.0145 51.4369ZM57.3383 59.7296C56.9185 59.9488 56.5169 60.0949 56.3343 59.9853C56.2065 59.9123 56.5169 59.62 56.5169 59.62C56.5169 59.62 58.6892 57.282 59.5472 56.2225C60.0401 55.6015 60.6242 54.8709 61.2449 54.0489C61.2449 54.1219 61.2449 54.2133 61.2449 54.2863C61.2449 57.081 58.5432 58.9624 57.3383 59.7296ZM70.7009 56.6792C70.3906 56.46 70.4453 55.7294 71.4858 53.4461C71.8875 52.5511 72.8367 51.0533 74.4614 49.6103C74.6439 50.1948 74.7717 50.761 74.7535 51.2907C74.7352 54.8161 72.216 56.1312 70.7009 56.6792Z" fill="#CD6799"/>
</g>
<defs>
<clipPath id="clip0_2128_69">
<rect width="100" height="75" fill="white"/>
</clipPath>
</defs>
</svg>
