<svg width="100" height="61" viewBox="0 0 100 61" fill="none" xmlns="http://www.w3.org/2000/svg">
<mask id="mask0_2128_46" style="mask-type:luminance" maskUnits="userSpaceOnUse" x="0" y="0" width="100" height="60">
<path d="M0 0H100V59.8909H0V0Z" fill="white"/>
</mask>
<g mask="url(#mask0_2128_46)">
<path fill-rule="evenodd" clip-rule="evenodd" d="M50 0C36.6667 0 28.3333 6.65455 25 19.9636C30 13.3091 35.8333 10.8136 42.5 12.4773C46.3037 13.4255 49.0222 16.1816 52.0315 19.2298C56.9333 24.1967 62.6074 29.9455 75 29.9455C88.3333 29.9455 96.6667 23.2909 100 9.98182C95 16.6364 89.1667 19.1318 82.5 17.4682C78.6963 16.5199 75.9778 13.7638 72.9685 10.7157C68.0667 5.74879 62.3926 0 50 0ZM25 29.9455C11.6667 29.9455 3.33333 36.6 0 49.9091C5 43.2545 10.8333 40.7591 17.5 42.4227C21.3037 43.3729 24.0222 46.1271 27.0315 49.1752C31.9333 54.1421 37.6074 59.8909 50 59.8909C63.3333 59.8909 71.6667 53.2364 75 39.9273C70 46.5818 64.1667 49.0773 57.5 47.4136C53.6963 46.4654 50.9778 43.7093 47.9685 40.6611C43.0667 35.6942 37.3926 29.9455 25 29.9455Z" fill="#38BDF8"/>
</g>
</svg>
