<?xml version="1.0" encoding="utf-8"?>
<!-- Generator: Adobe Illustrator 28.4.1, SVG Export Plug-In . SVG Version: 6.00 Build 0)  -->
<svg version="1.1" id="Layer_1" xmlns="http://www.w3.org/2000/svg" xmlns:xlink="http://www.w3.org/1999/xlink" x="0px" y="0px"
	 viewBox="0 0 99 100" style="enable-background:new 0 0 99 100;" xml:space="preserve">
<g transform="translate(8.964 4.2527)">
	<g>
		<path d="M16.3,95.7c-0.1,0-0.2,0-0.3,0c-0.4-0.1-0.7-0.4-0.8-0.8L-8.9-2.9c-0.1-0.4,0-0.8,0.3-1.1c0.3-0.3,0.7-0.4,1.1-0.3
			l96.8,27.9c0.4,0.1,0.7,0.4,0.8,0.8c0.1,0.4,0,0.8-0.3,1.1L17.1,95.4C16.9,95.6,16.6,95.7,16.3,95.7z M-6.3-1.5l23.2,94l69.9-67.2
			L-6.3-1.5z"/>
	</g>
	<g>
		<path d="M52.6,60.8c-0.1,0-0.2,0-0.3,0L3.9,46.8c-0.4-0.1-0.7-0.4-0.8-0.8c-0.1-0.4,0-0.8,0.3-1.1l36.3-35
			c0.3-0.3,0.7-0.4,1.1-0.3c0.4,0.1,0.7,0.4,0.8,0.8l12.1,48.9c0.1,0.4,0,0.8-0.3,1.1C53.2,60.7,52.9,60.8,52.6,60.8z M6.4,45.2
			l44.7,12.9L39.9,13L6.4,45.2z"/>
	</g>
	<g>
		<path d="M28.5,53.5c-0.1,0-0.2,0-0.3,0c-0.4-0.1-0.7-0.4-0.8-0.8l-6-24.3c-0.1-0.4,0-0.8,0.3-1.1c0.3-0.3,0.7-0.4,1.1-0.3l24,6.9
			c0.4,0.1,0.7,0.4,0.8,0.8c0.1,0.4,0,0.8-0.3,1.1l-18,17.4C29.1,53.4,28.8,53.5,28.5,53.5z M24.1,29.7l5.1,20.5l15.3-14.7
			L24.1,29.7z"/>
	</g>
	<g>
		<path d="M22.5,29.2c-0.1,0-0.2,0-0.3,0l-24-6.9c-0.4-0.1-0.7-0.4-0.8-0.8c-0.1-0.4,0-0.8,0.3-1.1L15.8,3c0.3-0.3,0.7-0.4,1.1-0.3
			c0.4,0.1,0.7,0.4,0.8,0.8l6,24.3c0.1,0.4,0,0.8-0.3,1.1C23.1,29.1,22.8,29.2,22.5,29.2z M0.7,20.7L21,26.5L15.9,6L0.7,20.7z"/>
	</g>
	<g>
		<path d="M70.6,43.1c-0.1,0-0.2,0-0.3,0l-24-6.9c-0.4-0.1-0.7-0.4-0.8-0.8c-0.1-0.4,0-0.8,0.3-1.1l18-17.4c0.3-0.3,0.7-0.4,1.1-0.3
			c0.4,0.1,0.7,0.4,0.8,0.8l6,24.3c0.1,0.4,0,0.8-0.3,1.1C71.2,43,70.9,43.1,70.6,43.1z M48.7,34.5l20.3,5.8L64,19.8L48.7,34.5z"/>
	</g>
	<g>
		<path d="M34.5,77.8c-0.1,0-0.2,0-0.3,0l-24-6.9c-0.4-0.1-0.7-0.4-0.8-0.8c-0.1-0.4,0-0.8,0.3-1.1l18-17.4c0.3-0.3,0.7-0.4,1.1-0.3
			c0.4,0.1,0.7,0.4,0.8,0.8l6,24.3c0.1,0.4,0,0.8-0.3,1.1C35.1,77.7,34.8,77.8,34.5,77.8z M12.7,69.3L33,75.1l-5.1-20.5L12.7,69.3z"
			/>
	</g>
</g>
</svg>
