<svg width="99" height="100" viewBox="0 0 99 100" fill="none" xmlns="http://www.w3.org/2000/svg">
<g clip-path="url(#clip0_4277_2)">
<path d="M25.221 99.9994H24.9213C24.5216 99.8995 24.2218 99.5996 24.1219 99.1998L0.041376 1.43888C-0.0585433 1.03904 0.041376 0.639198 0.341134 0.339318C0.640892 0.0394381 1.04057 -0.0605219 1.44025 0.0394381L98.1621 27.9283C98.5618 28.0282 98.8615 28.3281 98.9614 28.728C99.0614 29.1278 98.9614 29.5276 98.6617 29.8275L26.0204 99.6996C25.8205 99.8995 25.5208 99.9994 25.221 99.9994ZM2.63928 2.83832L25.8205 96.8007L95.6641 29.6276L2.63928 2.83832Z" fill="black"/>
<path d="M61.4897 65.1135H61.1899L12.829 51.1191C12.4293 51.0191 12.1296 50.7193 12.0297 50.3194C11.9297 49.9196 12.0297 49.5197 12.3294 49.2199L48.6001 14.2338C48.8999 13.934 49.2995 13.834 49.6992 13.934C50.0989 14.0339 50.3987 14.3338 50.4986 14.7336L62.5888 63.6141C62.6887 64.0139 62.5888 64.4138 62.289 64.7137C62.0892 65.0135 61.7895 65.1135 61.4897 65.1135ZM15.327 49.5197L59.9909 62.4146L48.7999 17.3326L15.327 49.5197Z" fill="black"/>
<path d="M37.4091 57.816H37.1093C36.7096 57.716 36.4099 57.4161 36.31 57.0163L30.3148 32.726C30.2149 32.3261 30.3148 31.9263 30.6146 31.6264C30.9143 31.3265 31.314 31.2266 31.7137 31.3265L55.6943 38.2238C56.094 38.3238 56.3937 38.6236 56.4937 39.0235C56.5936 39.4233 56.4937 39.8231 56.1939 40.123L38.2084 57.5161C38.0086 57.716 37.7088 57.816 37.4091 57.816ZM33.0126 34.0255L38.1085 54.5173L53.3962 39.8231L33.0126 34.0255Z" fill="black"/>
<path d="M31.4141 33.5269H31.1143L7.1337 26.6296C6.73402 26.5297 6.43426 26.2298 6.33434 25.83C6.23443 25.4301 6.33434 25.0303 6.6341 24.7304L24.7195 7.33737C25.0192 7.03749 25.4189 6.93752 25.8186 7.03748C26.2183 7.13744 26.518 7.43733 26.618 7.83717L32.6131 32.1274C32.713 32.5273 32.6131 32.9271 32.3134 33.227C32.0136 33.4269 31.7138 33.5269 31.4141 33.5269ZM9.63168 25.0303L29.9153 30.828L24.8194 10.3362L9.63168 25.0303Z" fill="black"/>
<path d="M79.4766 47.4214H79.1768L55.1962 40.5242C54.7965 40.4242 54.4968 40.1243 54.3968 39.7245C54.2969 39.3247 54.3968 38.9248 54.6966 38.6249L72.6821 21.2319C72.9818 20.932 73.3815 20.8321 73.7812 20.932C74.1809 21.032 74.4806 21.3319 74.5805 21.7317L80.5757 46.022C80.6756 46.4218 80.5757 46.8217 80.2759 47.1215C80.0761 47.3215 79.7763 47.4214 79.4766 47.4214ZM57.5943 38.8249L77.8779 44.6225L72.8819 24.1307L57.5943 38.8249Z" fill="black"/>
<path d="M43.4063 82.107H43.1065L19.1259 75.2097C18.7262 75.1098 18.4265 74.8099 18.3265 74.41C18.2266 74.0102 18.3265 73.6104 18.6263 73.3105L36.6118 55.9174C36.9115 55.6176 37.3112 55.5176 37.7109 55.6176C38.1105 55.7175 38.4103 56.0174 38.5102 56.4172L44.5054 80.7075C44.6053 81.1074 44.5054 81.5072 44.2056 81.8071C44.0058 82.007 43.706 82.107 43.4063 82.107ZM21.6239 73.6104L41.9075 79.4081L36.8116 58.9162L21.6239 73.6104Z" fill="black"/>
</g>
<defs>
<clipPath id="clip0_4277_2">
<rect width="99" height="100" fill="white"/>
</clipPath>
</defs>
</svg>
