<svg width="82" height="100" viewBox="0 0 82 100" fill="none" xmlns="http://www.w3.org/2000/svg">
<g clip-path="url(#clip0_2128_37)">
<path d="M81.8538 87.2025L80.182 85.0633H47.274V82.3671H78.0716L76.3935 80.2089H47.274V77.5127H74.2958L72.6177 75.3734H47.274V72.6646H70.5009L68.8291 70.519H47.274V67.8228H66.7315L65.0597 65.6835H47.274V62.9747H62.9429L61.2712 60.8291H47.274V58.1329H70.9904L69.4394 55.981H47.274V53.2848H67.4879L65.9496 51.1392H47.274V48.4367H63.9981L62.4535 46.2911H47.274V43.5949H60.5084L58.9574 41.4367H47.274V38.7468H57.0122L55.4676 36.6013H47.274V33.8924H53.5161L62.5234 33.8671L61.0233 31.7468H47.274V29.0506H59.1036L57.5907 26.9114H47.274V24.2025H55.671L54.1454 22.057H47.274V19.3608H52.2321L50.7065 17.2089H47.274V14.5127H48.7932L47.274 12.3734V0L25.2357 30.557L37.631 30.5949L12.6051 65.2975H25.4963L0 100H47.274V87.2025H81.8538Z" fill="#54FFB9"/>
</g>
<defs>
<clipPath id="clip0_2128_37">
<rect width="82" height="100" fill="white"/>
</clipPath>
</defs>
</svg>
