<svg width="100" height="100" viewBox="0 0 100 100" fill="none" xmlns="http://www.w3.org/2000/svg">
<g clip-path="url(#clip0_4305_15)">
<path d="M95.3125 0H4.6875C2.09867 0 0 2.09867 0 4.6875V95.3125C0 97.9013 2.09867 100 4.6875 100H95.3125C97.9013 100 100 97.9013 100 95.3125V4.6875C100 2.09867 97.9013 0 95.3125 0Z" fill="#3178C6"/>
<path fill-rule="evenodd" clip-rule="evenodd" d="M58.0173 77.7094V88.6672C59.7927 89.5797 61.8922 90.2648 64.3162 90.7211C66.7402 91.1781 69.2949 91.4062 71.9806 91.4062C74.598 91.4062 77.0845 91.1555 79.4398 90.6531C81.7961 90.1508 83.8609 89.3234 85.6367 88.1703C87.4117 87.0172 88.8172 85.5109 89.8531 83.65C90.8883 81.7898 91.4062 79.4898 91.4062 76.7505C91.4062 74.7645 91.1102 73.0239 90.5187 71.5286C89.9266 70.0334 89.0734 68.7037 87.9578 67.5394C86.843 66.3752 85.5055 65.3308 83.9469 64.4063C82.3875 63.4817 80.6297 62.6085 78.6719 61.7867C77.2381 61.1932 75.9522 60.6168 74.8142 60.0575C73.6762 59.4982 72.7089 58.9275 71.9123 58.3454C71.1157 57.7632 70.5012 57.1469 70.0688 56.4963C69.6363 55.8457 69.4201 55.1095 69.4201 54.2877C69.4201 53.5343 69.6135 52.8552 70.0005 52.2502C70.3874 51.6453 70.9337 51.1259 71.6392 50.6922C72.3448 50.2585 73.2096 49.9218 74.2338 49.6821C75.258 49.4423 76.396 49.3225 77.6478 49.3225C78.5586 49.3225 79.5195 49.391 80.5328 49.528C81.5453 49.6649 82.5641 49.8761 83.5883 50.1615C84.6125 50.4468 85.6078 50.8063 86.5758 51.2401C87.543 51.6738 88.4359 52.176 89.2555 52.7467V42.5084C87.5938 41.8691 85.7789 41.3955 83.8102 41.0873C81.8414 40.7791 79.5828 40.625 77.0333 40.625C74.4387 40.625 71.9806 40.9046 69.6591 41.4639C67.3376 42.0232 65.2948 42.8964 63.5309 44.0834C61.767 45.2705 60.373 46.7829 59.3488 48.6205C58.3246 50.4582 57.8125 52.6554 57.8125 55.2122C57.8125 58.4766 58.7513 61.2616 60.6291 63.5673C62.5068 65.873 65.3574 67.8248 69.1811 69.4227C70.6833 70.0391 72.083 70.6441 73.3803 71.2376C74.6777 71.8311 75.7986 72.4474 76.7431 73.0866C77.6877 73.7259 78.4328 74.4221 78.9789 75.1754C79.5258 75.9288 79.7984 76.7848 79.7984 77.7436C79.7984 78.4516 79.6281 79.1078 79.2867 79.7125C78.9453 80.3172 78.4273 80.8422 77.7332 81.2875C77.039 81.7328 76.1741 82.0813 75.1385 82.332C74.103 82.5828 72.891 82.7086 71.5027 82.7086C69.1355 82.7086 66.7913 82.2922 64.4698 81.4586C62.1483 80.6258 59.9975 79.3758 58.0173 77.7094ZM39.6114 50.4331H53.9062V41.4062H14.0625V50.4331H28.2874V90.625H39.6114V50.4331Z" fill="white"/>
</g>
<defs>
<clipPath id="clip0_4305_15">
<rect width="100" height="100" fill="white"/>
</clipPath>
</defs>
</svg>
