<svg width="100" height="100" viewBox="0 0 100 100" fill="none" xmlns="http://www.w3.org/2000/svg">
<g clip-path="url(#clip0_2128_52)">
<path d="M99.6534 14.8918L52.7151 98.612C51.746 100.34 49.2562 100.351 48.2725 98.6306L0.403564 14.8998C-0.668077 13.0254 0.938895 10.7548 3.06846 11.1345L50.057 19.5121C50.3567 19.5655 50.6636 19.565 50.9633 19.5105L96.9692 11.1465C99.0916 10.7607 100.706 13.0136 99.6534 14.8918Z" fill="url(#paint0_linear_2128_52)"/>
<path d="M72.4402 0.14615L37.7044 6.93516C37.1335 7.04673 36.7108 7.52933 36.6764 8.10849L34.5397 44.1043C34.4894 44.9522 35.27 45.6102 36.0996 45.4193L45.7705 43.1931C46.6754 42.985 47.493 43.7799 47.307 44.6875L44.4338 58.7214C44.2404 59.6659 45.1294 60.4735 46.0542 60.1934L52.0274 58.3832C52.9534 58.1028 53.8432 58.9127 53.6473 59.858L49.0812 81.902C48.7955 83.2809 50.6343 84.0328 51.4011 82.8506L51.9134 82.0611L80.218 25.7181C80.692 24.7747 79.8746 23.699 78.8358 23.8989L68.8812 25.8153C67.9458 25.9952 67.1499 25.1262 67.4139 24.2133L73.9111 1.74729C74.1754 0.832852 73.3766 -0.0368573 72.4402 0.14615Z" fill="url(#paint1_linear_2128_52)"/>
</g>
<defs>
<linearGradient id="paint0_linear_2128_52" x1="-0.765193" y1="8.14248" x2="57.4603" y2="87.419" gradientUnits="userSpaceOnUse">
<stop stop-color="#41D1FF"/>
<stop offset="1" stop-color="#BD34FE"/>
</linearGradient>
<linearGradient id="paint1_linear_2128_52" x1="47.3601" y1="1.98935" x2="57.8751" y2="74.3051" gradientUnits="userSpaceOnUse">
<stop stop-color="#FFEA83"/>
<stop offset="0.0833333" stop-color="#FFDD35"/>
<stop offset="1" stop-color="#FFA800"/>
</linearGradient>
<clipPath id="clip0_2128_52">
<rect width="100" height="100" fill="white"/>
</clipPath>
</defs>
</svg>
