<svg width="100" height="96" viewBox="0 0 100 96" fill="none" xmlns="http://www.w3.org/2000/svg">
<path d="M54.4851 94.3689C53.092 96.1417 50.2419 95.1557 50.2419 92.9028V71.2665C50.2419 68.6424 48.1161 66.5163 45.492 66.5163H21.6026C19.671 66.5163 18.5446 64.3313 19.671 62.7616L35.3773 40.772C37.6256 37.628 35.3773 33.2581 31.5096 33.2581H2.59868C0.66707 33.2581 -0.459348 31.0732 0.667 29.5035L21.0281 0.995213C21.476 0.370946 22.1953 0 22.9598 0H83.6358C85.5679 0 86.6943 2.18494 85.5679 3.75466L69.8612 25.7443C67.6133 28.8883 69.8612 33.2581 73.7289 33.2581H97.6188C99.6 33.2581 100.713 35.5426 99.487 37.1033L54.4851 94.3689Z" fill="#863BFF"/>
<mask id="mask0_4279_72" style="mask-type:alpha" maskUnits="userSpaceOnUse" x="0" y="0" width="100" height="96">
<path d="M54.2667 94.3689C52.8736 96.1417 50.0235 95.1556 50.0235 92.9028V71.2664C50.0235 68.6423 47.897 66.5163 45.2736 66.5163H21.3839C19.4523 66.5163 18.3259 64.3313 19.4523 62.7617L35.1585 40.772C37.4068 37.628 35.1585 33.2582 31.2908 33.2582H2.37993C0.44832 33.2582 -0.678098 31.0732 0.44825 29.5035L20.8094 0.995213C21.2572 0.370939 21.9765 0 22.741 0H83.4174C85.3488 0 86.4752 2.18494 85.3488 3.75466L69.6428 25.7443C67.3942 28.8883 69.6428 33.2582 73.5105 33.2582H97.3997C99.3816 33.2582 100.494 35.5426 99.2679 37.1033L54.2667 94.3689Z" fill="black"/>
</mask>
<g mask="url(#mask0_4279_72)">
<g filter="url(#filter0_f_4279_72)">
<path d="M52.4192 77.5461C52.4399 83.9342 38.632 89.1575 21.5783 89.2128C4.52469 89.2681 -9.3168 84.1343 -9.33751 77.7463C-9.35821 71.3582 4.44971 66.1349 21.5034 66.0796C38.557 66.0243 52.3985 71.1581 52.4192 77.5461Z" fill="#EDE6FF"/>
</g>
<g filter="url(#filter1_f_4279_72)">
<path d="M42.8427 37.9907C42.8818 50.0518 14.8477 59.9202 -19.7732 60.0324C-54.3942 60.1446 -82.4917 50.4582 -82.5308 38.3971C-82.5699 26.336 -54.5357 16.4676 -19.9148 16.3554C14.7061 16.2432 42.8036 25.9296 42.8427 37.9907Z" fill="#EDE6FF"/>
</g>
<g filter="url(#filter2_f_4279_72)">
<path d="M43.0912 34.9328C43.1119 41.3209 14.4655 46.5923 -20.8923 46.7069C-56.2501 46.8215 -84.9301 41.7359 -84.9508 35.3479C-84.9715 28.9598 -56.3251 23.6883 -20.9673 23.5737C14.3905 23.4591 43.0705 28.5448 43.0912 34.9328Z" fill="#7E14FF"/>
</g>
<g filter="url(#filter3_f_4279_72)">
<path d="M53.213 72.7243C53.2337 79.1123 24.4822 84.3841 -11.0052 84.4991C-46.4927 84.6142 -75.2777 79.5289 -75.2984 73.1408C-75.3192 66.7528 -46.5677 61.481 -11.0802 61.3659C24.4073 61.2509 53.1923 66.3362 53.213 72.7243Z" fill="#7E14FF"/>
</g>
<g filter="url(#filter4_f_4279_72)">
<path d="M56.4474 75.1364C56.4681 81.5244 27.7166 86.7962 -7.77085 86.9113C-43.2583 87.0263 -72.0434 81.941 -72.0641 75.5529C-72.0848 69.1649 -43.3333 63.8931 -7.84583 63.7781C27.6416 63.663 56.4267 68.7483 56.4474 75.1364Z" fill="#7E14FF"/>
</g>
<g filter="url(#filter5_f_4279_72)">
<path d="M65.2831 21.5007C66.237 5.20881 87.7326 -6.7851 113.295 -5.28841C138.857 -3.79171 158.806 10.6288 157.852 26.9208C156.898 43.2127 135.403 55.2066 109.84 53.7099C84.2782 52.2132 64.3292 37.7927 65.2831 21.5007Z" fill="#EDE6FF"/>
</g>
<g filter="url(#filter6_f_4279_72)">
<path d="M68.757 32.2014C68.6874 28.1771 88.8428 24.5652 113.775 24.1338C138.708 23.7024 158.976 26.615 159.046 30.6393C159.115 34.6635 138.96 38.2755 114.027 38.7068C89.0949 39.1382 68.8266 36.2256 68.757 32.2014Z" fill="#7E14FF"/>
</g>
<g filter="url(#filter7_f_4279_72)">
<path d="M68.757 32.2014C68.6874 28.1771 88.8428 24.5652 113.775 24.1338C138.708 23.7024 158.976 26.615 159.046 30.6393C159.115 34.6635 138.96 38.2755 114.027 38.7068C89.0949 39.1382 68.8266 36.2256 68.757 32.2014Z" fill="#7E14FF"/>
</g>
<g filter="url(#filter8_f_4279_72)">
<path d="M-38.0954 66.0037C-34.1524 69.2552 -13.5448 50.7774 7.93293 24.7324C29.4107 -1.31263 43.6254 -25.0622 39.6824 -28.3137C35.7394 -31.5653 15.1318 -13.0875 -6.3459 12.9575C-27.8236 39.0026 -42.0384 62.7521 -38.0954 66.0037Z" fill="#7E14FF"/>
</g>
<g filter="url(#filter9_f_4279_72)">
<path d="M62.2465 35.4446C66.2798 38.5835 86.3574 19.5312 107.091 -7.10989C127.825 -33.751 141.363 -57.8924 137.33 -61.0313C133.297 -64.1703 113.219 -45.118 92.4855 -18.4769C71.7518 8.16419 58.2133 32.3056 62.2465 35.4446Z" fill="#7E14FF"/>
</g>
<g filter="url(#filter10_f_4279_72)">
<path d="M74.4999 29.3185C79.9654 33.5721 89.9772 29.8491 96.8618 21.003C103.746 12.1569 104.897 1.53744 99.4313 -2.71615C93.9658 -6.96975 83.9541 -3.24677 77.0695 5.59935C70.1849 14.4455 69.0344 25.0649 74.4999 29.3185Z" fill="#47BFFF"/>
</g>
<g filter="url(#filter11_f_4279_72)">
<path d="M-41.4878 128.738C-37.4546 131.876 -17.377 112.824 3.35677 86.1831C24.0905 59.542 37.629 35.4005 33.5958 32.2616C29.5625 29.1227 9.48493 48.175 -11.2488 74.8161C-31.9826 101.457 -45.5211 125.599 -41.4878 128.738Z" fill="#7E14FF"/>
</g>
<g filter="url(#filter12_f_4279_72)">
<path d="M-41.4878 128.738C-37.4546 131.876 -17.377 112.824 3.35677 86.1831C24.0905 59.542 37.629 35.4005 33.5958 32.2616C29.5625 29.1227 9.48493 48.175 -11.2488 74.8161C-31.9826 101.457 -45.5211 125.599 -41.4878 128.738Z" fill="#7E14FF"/>
</g>
<g filter="url(#filter13_f_4279_72)">
<path d="M37.2973 111.04C41.3305 114.179 61.4082 95.1269 82.1419 68.4858C102.876 41.8447 116.414 17.7033 112.381 14.5644C108.348 11.4255 88.2701 30.4777 67.5363 57.1188C46.8025 83.7599 33.2641 107.901 37.2973 111.04Z" fill="#7E14FF"/>
</g>
<g filter="url(#filter14_f_4279_72)">
<path d="M60.9324 93.3847C66.3979 97.6383 79.662 89.7364 90.5585 75.7353C101.455 61.7342 105.858 46.9359 100.392 42.6823C94.9268 38.4287 81.6627 46.3306 70.7662 60.3317C59.8697 74.3328 55.4669 89.1311 60.9324 93.3847Z" fill="#47BFFF"/>
</g>
</g>
<defs>
<filter id="filter0_f_4279_72" x="-41.5043" y="33.9117" width="126.091" height="87.4696" filterUnits="userSpaceOnUse" color-interpolation-filters="sRGB">
<feFlood flood-opacity="0" result="BackgroundImageFix"/>
<feBlend mode="normal" in="SourceGraphic" in2="BackgroundImageFix" result="shape"/>
<feGaussianBlur stdDeviation="16.0842" result="effect1_foregroundBlur_4279_72"/>
</filter>
<filter id="filter1_f_4279_72" x="-114.7" y="-15.8149" width="189.712" height="108.016" filterUnits="userSpaceOnUse" color-interpolation-filters="sRGB">
<feFlood flood-opacity="0" result="BackgroundImageFix"/>
<feBlend mode="normal" in="SourceGraphic" in2="BackgroundImageFix" result="shape"/>
<feGaussianBlur stdDeviation="16.0842" result="effect1_foregroundBlur_4279_72"/>
</filter>
<filter id="filter2_f_4279_72" x="-104.25" y="4.27115" width="166.641" height="61.7389" filterUnits="userSpaceOnUse" color-interpolation-filters="sRGB">
<feFlood flood-opacity="0" result="BackgroundImageFix"/>
<feBlend mode="normal" in="SourceGraphic" in2="BackgroundImageFix" result="shape"/>
<feGaussianBlur stdDeviation="9.65056" result="effect1_foregroundBlur_4279_72"/>
</filter>
<filter id="filter3_f_4279_72" x="-94.598" y="42.0622" width="167.114" height="61.7409" filterUnits="userSpaceOnUse" color-interpolation-filters="sRGB">
<feFlood flood-opacity="0" result="BackgroundImageFix"/>
<feBlend mode="normal" in="SourceGraphic" in2="BackgroundImageFix" result="shape"/>
<feGaussianBlur stdDeviation="9.65056" result="effect1_foregroundBlur_4279_72"/>
</filter>
<filter id="filter4_f_4279_72" x="-91.3636" y="44.4743" width="167.114" height="61.7409" filterUnits="userSpaceOnUse" color-interpolation-filters="sRGB">
<feFlood flood-opacity="0" result="BackgroundImageFix"/>
<feBlend mode="normal" in="SourceGraphic" in2="BackgroundImageFix" result="shape"/>
<feGaussianBlur stdDeviation="9.65056" result="effect1_foregroundBlur_4279_72"/>
</filter>
<filter id="filter5_f_4279_72" x="33.0816" y="-37.5824" width="156.973" height="123.587" filterUnits="userSpaceOnUse" color-interpolation-filters="sRGB">
<feFlood flood-opacity="0" result="BackgroundImageFix"/>
<feBlend mode="normal" in="SourceGraphic" in2="BackgroundImageFix" result="shape"/>
<feGaussianBlur stdDeviation="16.0842" result="effect1_foregroundBlur_4279_72"/>
</filter>
<filter id="filter6_f_4279_72" x="49.4567" y="4.79068" width="128.891" height="53.2604" filterUnits="userSpaceOnUse" color-interpolation-filters="sRGB">
<feFlood flood-opacity="0" result="BackgroundImageFix"/>
<feBlend mode="normal" in="SourceGraphic" in2="BackgroundImageFix" result="shape"/>
<feGaussianBlur stdDeviation="9.65056" result="effect1_foregroundBlur_4279_72"/>
</filter>
<filter id="filter7_f_4279_72" x="49.4567" y="4.79068" width="128.891" height="53.2604" filterUnits="userSpaceOnUse" color-interpolation-filters="sRGB">
<feFlood flood-opacity="0" result="BackgroundImageFix"/>
<feBlend mode="normal" in="SourceGraphic" in2="BackgroundImageFix" result="shape"/>
<feGaussianBlur stdDeviation="9.65056" result="effect1_foregroundBlur_4279_72"/>
</filter>
<filter id="filter8_f_4279_72" x="-58.055" y="-47.9867" width="117.696" height="133.663" filterUnits="userSpaceOnUse" color-interpolation-filters="sRGB">
<feFlood flood-opacity="0" result="BackgroundImageFix"/>
<feBlend mode="normal" in="SourceGraphic" in2="BackgroundImageFix" result="shape"/>
<feGaussianBlur stdDeviation="9.65056" result="effect1_foregroundBlur_4279_72"/>
</filter>
<filter id="filter9_f_4279_72" x="42.234" y="-80.6703" width="115.106" height="135.755" filterUnits="userSpaceOnUse" color-interpolation-filters="sRGB">
<feFlood flood-opacity="0" result="BackgroundImageFix"/>
<feBlend mode="normal" in="SourceGraphic" in2="BackgroundImageFix" result="shape"/>
<feGaussianBlur stdDeviation="9.65056" result="effect1_foregroundBlur_4279_72"/>
</filter>
<filter id="filter10_f_4279_72" x="51.7458" y="-23.7777" width="70.4382" height="74.1569" filterUnits="userSpaceOnUse" color-interpolation-filters="sRGB">
<feFlood flood-opacity="0" result="BackgroundImageFix"/>
<feBlend mode="normal" in="SourceGraphic" in2="BackgroundImageFix" result="shape"/>
<feGaussianBlur stdDeviation="9.65056" result="effect1_foregroundBlur_4279_72"/>
</filter>
<filter id="filter11_f_4279_72" x="-61.5003" y="12.6227" width="115.106" height="135.755" filterUnits="userSpaceOnUse" color-interpolation-filters="sRGB">
<feFlood flood-opacity="0" result="BackgroundImageFix"/>
<feBlend mode="normal" in="SourceGraphic" in2="BackgroundImageFix" result="shape"/>
<feGaussianBlur stdDeviation="9.65056" result="effect1_foregroundBlur_4279_72"/>
</filter>
<filter id="filter12_f_4279_72" x="-61.5003" y="12.6227" width="115.106" height="135.755" filterUnits="userSpaceOnUse" color-interpolation-filters="sRGB">
<feFlood flood-opacity="0" result="BackgroundImageFix"/>
<feBlend mode="normal" in="SourceGraphic" in2="BackgroundImageFix" result="shape"/>
<feGaussianBlur stdDeviation="9.65056" result="effect1_foregroundBlur_4279_72"/>
</filter>
<filter id="filter13_f_4279_72" x="17.2848" y="-5.07455" width="115.106" height="135.755" filterUnits="userSpaceOnUse" color-interpolation-filters="sRGB">
<feFlood flood-opacity="0" result="BackgroundImageFix"/>
<feBlend mode="normal" in="SourceGraphic" in2="BackgroundImageFix" result="shape"/>
<feGaussianBlur stdDeviation="9.65056" result="effect1_foregroundBlur_4279_72"/>
</filter>
<filter id="filter14_f_4279_72" x="39.2848" y="22.2301" width="82.7546" height="91.6061" filterUnits="userSpaceOnUse" color-interpolation-filters="sRGB">
<feFlood flood-opacity="0" result="BackgroundImageFix"/>
<feBlend mode="normal" in="SourceGraphic" in2="BackgroundImageFix" result="shape"/>
<feGaussianBlur stdDeviation="9.65056" result="effect1_foregroundBlur_4279_72"/>
</filter>
</defs>
</svg>
