<svg width="100" height="100" viewBox="0 0 100 100" fill="none" xmlns="http://www.w3.org/2000/svg">
<g clip-path="url(#clip0_2128_55)">
<mask id="mask0_2128_55" style="mask-type:luminance" maskUnits="userSpaceOnUse" x="0" y="0" width="100" height="100">
<path d="M100 0H0V100H100V0Z" fill="white"/>
</mask>
<g mask="url(#mask0_2128_55)">
<mask id="mask1_2128_55" style="mask-type:luminance" maskUnits="userSpaceOnUse" x="0" y="0" width="100" height="100">
<path d="M99.6098 0H0V99.6122H99.6098V0Z" fill="white"/>
</mask>
<g mask="url(#mask1_2128_55)">
<path d="M7.07971 49.8049C7.07971 66.7171 16.9082 81.3324 31.1602 88.2585L10.7789 32.4163C8.40816 37.7301 7.07971 43.6106 7.07971 49.8049Z" fill="#3858E9"/>
<path d="M78.65 47.6487C78.65 42.3682 76.7533 38.7113 75.1264 35.8649C72.9606 32.3454 70.9305 29.3649 70.9305 25.8454C70.9305 21.9178 73.9094 18.2617 78.1053 18.2617C78.2947 18.2617 78.4744 18.2853 78.659 18.2958C71.0573 11.3316 60.9297 7.07959 49.8061 7.07959C34.8793 7.07959 21.7468 14.7381 14.1069 26.3381C15.1094 26.3682 16.0541 26.3893 16.8565 26.3893C21.3256 26.3893 28.2435 25.8471 28.2435 25.8471C30.5468 25.7113 30.8183 29.0942 28.5175 29.3666C28.5175 29.3666 26.2029 29.6389 23.6273 29.7739L39.1866 76.0544L48.537 48.0113L41.8801 29.7723C39.5793 29.6373 37.3996 29.3649 37.3996 29.3649C35.0972 29.23 35.3671 25.7097 37.6695 25.8454C37.6695 25.8454 44.7256 26.3877 48.924 26.3877C53.3923 26.3877 60.311 25.8454 60.311 25.8454C62.6159 25.7097 62.8866 29.0926 60.585 29.3649C60.585 29.3649 58.2655 29.6373 55.6947 29.7723L71.1354 75.7023L75.3972 61.4609C77.2443 55.5511 78.65 51.3064 78.65 47.6487Z" fill="#3858E9"/>
<path d="M50.5561 53.5422L37.7366 90.7935C41.5642 91.9187 45.6122 92.5342 49.8065 92.5342C54.7821 92.5342 59.5536 91.674 63.9951 90.1122C63.8805 89.9293 63.7764 89.735 63.691 89.5236L50.5561 53.5422Z" fill="#3858E9"/>
<path d="M87.2976 29.3057C87.4813 30.6666 87.5854 32.1276 87.5854 33.6992C87.5854 38.0349 86.7756 42.9089 84.3366 49.0032L71.2852 86.7375C83.9878 79.3301 92.5317 65.5683 92.5317 49.8057C92.5326 42.3772 90.635 35.3918 87.2976 29.3057Z" fill="#3858E9"/>
<path d="M49.8065 0C22.3439 0 0 22.3423 0 49.8049C0 77.2707 22.3439 99.6122 49.8065 99.6122C77.2683 99.6122 99.6154 77.2707 99.6154 49.8049C99.6146 22.3423 77.2683 0 49.8065 0ZM49.8065 97.3293C23.6033 97.3293 2.28374 76.0098 2.28374 49.8049C2.28374 23.6016 23.6024 2.28374 49.8065 2.28374C76.0089 2.28374 97.3268 23.6016 97.3268 49.8049C97.3268 76.0098 76.0089 97.3293 49.8065 97.3293Z" fill="#3858E9"/>
</g>
</g>
</g>
<defs>
<clipPath id="clip0_2128_55">
<rect width="100" height="100" fill="white"/>
</clipPath>
</defs>
</svg>
