<svg width="100" height="41" viewBox="0 0 100 41" fill="none" xmlns="http://www.w3.org/2000/svg">
<g clip-path="url(#clip0_2229_98)">
<path fill-rule="evenodd" clip-rule="evenodd" d="M92.6829 9.12023C92.8878 7.36078 93.026 5.1655 93.7236 3.65625C94.248 5.222 94.4244 7.24778 95.5041 8.42613C96.9024 8.09926 98.4553 8.17836 99.8943 8.48586C99.0325 9.61578 97.1545 10.3825 96.0325 11.1089C97.3821 12.2388 98.0406 13.5544 98.7805 15.1201C96.8211 15.083 95.0325 13.3929 93.5203 12.4809C92.2195 13.9418 91.3008 15.3622 89.3902 15.8868C90.0789 14.426 91.6911 13.167 91.8943 11.6496C90.3658 11.0839 88.4715 9.87404 87.4797 8.64727C89.0569 8.7409 91.1057 8.94105 92.6829 9.12426" fill="#AF0084"/>
<path fill-rule="evenodd" clip-rule="evenodd" d="M94.3089 20.258C94.4585 18.9828 94.5593 17.3847 95.0634 16.2871C95.4447 17.4251 95.5732 18.894 96.3561 19.7495C97.3642 19.5122 98.5024 19.5687 99.5431 19.7923C98.9163 20.6074 97.5593 21.1724 96.7463 21.697C97.7301 22.5122 98.2097 23.4726 98.7382 24.6106C97.3154 24.5832 96.0146 23.3515 94.9171 22.6978C93.974 23.7551 93.3073 24.7882 91.9171 25.1675C92.4171 24.1102 93.5919 23.1901 93.7301 22.0925C92.6244 21.6825 91.2504 20.8011 90.5268 19.9133C91.665 19.9836 93.161 20.1288 94.2992 20.2604" fill="#98C000"/>
<path fill-rule="evenodd" clip-rule="evenodd" d="M89.4309 29.0551C89.5333 28.1673 89.6032 27.0697 89.952 26.311C90.2146 27.0971 90.3041 28.1108 90.8463 28.7C91.5455 28.5362 92.326 28.5757 93.0496 28.7307C92.6154 29.2948 91.6756 29.683 91.1146 30.0462C91.7927 30.612 92.1228 31.273 92.4886 32.0559C91.5049 32.0389 90.6106 31.1923 89.8463 30.7323C89.1919 31.4643 88.7325 32.1769 87.7732 32.4433C88.1187 31.7121 88.9276 31.0793 89.0252 30.3206C88.261 30.0365 87.3097 29.4328 86.8138 28.8114C87.6032 28.8598 88.6349 28.9599 89.4236 29.0519" fill="#F08400"/>
<path fill-rule="evenodd" clip-rule="evenodd" d="M16.5041 28.4901C15.6919 28.4901 6.50406 37.3681 5.60975 38.4173C4.86341 39.2405 4.45528 40.7578 3.17073 40.9273C1.80487 41.1097 1.49593 40.5827 0.837394 39.5634C0.215442 38.5949 -0.53659 36.8758 0.550402 36.1736C1.59918 35.5045 14.6154 23.6637 15.0219 23.1795C15.5276 22.6702 14.9715 21.4039 14.7301 19.4911C14.4195 17.0376 14.2618 14.7858 14.452 12.3565C14.6463 9.86257 15.248 6.78757 15.8992 4.36631C16.3 2.88934 16.0683 -0.0323142 18.1431 -0.121094C18.5667 -0.0218221 21.761 2.17103 20.8992 5.0604C19.6553 9.20076 18.4602 13.8576 18.826 18.2966C18.8967 19.1521 19.2439 19.8947 19.7935 19.4992C25.6878 15.3185 34.9154 10.7826 37.2732 9.97556C38.4114 9.6156 39.574 9.33473 40.7528 9.18784C41.5984 9.28711 42.2406 10.0756 42.9073 10.6325C46.2488 13.4735 39.761 23.5459 39.2081 26.6128C39.7276 26.6128 40.2894 25.8316 41.2813 24.9422C42.3382 23.9898 43.9805 22.4886 45.1919 21.3264C47.0455 19.9463 48.6634 18.6792 51.013 18.3806C56.6634 17.6687 54.9724 25.7412 53.6959 28.6306C54.4252 28.6306 56.2081 26.5967 57.6309 25.2569C58.3488 24.5814 59.1431 23.8687 59.8667 23.2069C60.7285 22.4208 61.1268 22.0124 61.7772 22.3272C62.213 22.4515 64.1024 23.5863 64.2081 25.3215C64.2967 26.7258 63.7163 28.106 63.4317 29.4538C63.1951 30.5837 63.2537 34.256 64.7894 34.264C65.3951 33.8298 66.1878 33.6434 66.9114 33.5239C68.074 33.3286 68.0171 33.7031 68.9764 34.0582C70.4805 34.6127 69.1236 36.7297 68.3325 37.5126C67.2675 38.5618 65.7472 39.2559 64.2268 39.2316C62.552 39.2034 61.235 38.1824 60.4789 36.7458C60.0667 35.9573 59.5358 33.0494 59.3325 32.1858C59.1276 31.3383 59.3057 30.3214 58.3976 31.185C55.8366 33.6305 53.1943 35.9064 50.5927 38.3196C47.7228 40.975 44.9829 37.3269 45.5033 34.3488C46.0163 31.4352 48.552 27.8759 49.0073 24.9866C47.7959 24.9866 45.7553 27.085 44.9829 27.9486C43.7309 29.3529 42.3406 30.9106 40.926 32.3876C39.5033 33.8726 38.2837 35.2366 36.8528 36.7135C35.8203 37.7789 34.6415 39.2962 32.9016 39.3931C32.048 39.2591 30.6821 37.8435 30.4463 36.0437C30.2545 34.5425 30.6374 32.8879 31.2171 31.5078C32.8919 27.5127 37.4854 19.0787 38.5585 14.8818C36.3553 15.0925 27.0138 19.3773 20.835 24.4862C19.0463 25.947 20.6976 28.6265 21.4455 30.4102C22.2463 32.3149 24.6081 35.7612 25.3154 36.3503C27.1691 37.8757 25.6886 39.2236 23.852 39.1267C23.0724 38.5787 22.1285 37.9887 21.3967 37.2624C20.6016 36.4746 19.9171 35.5755 19.2911 34.6555C18.0228 32.7911 16.8114 30.6362 16.4862 28.3763" fill="#005FAD"/>
<path fill-rule="evenodd" clip-rule="evenodd" d="M82.9268 4.58429C82.4016 2.65535 79.9675 5.60122 78.748 7.1589C75.374 11.4687 72.3008 20.2337 71.8049 21.8479C70.2927 26.8034 69.7073 32.905 72.9756 37.2632C74.878 39.8055 78.2276 39.9993 81.5122 39.063C83.2032 38.5796 84.9024 37.3762 85.4797 36.0607C85.9577 34.9711 86.2057 32.9372 83.7886 34.4868C82.8537 35.0873 81.1382 35.7459 78.065 35.6975C77.0325 35.6805 75.3415 34.2124 74.8862 32.6951C74.0862 30.2254 74.4268 26.9244 74.4268 26.9244C75.126 22.663 77.1179 18.0465 78.8658 14.1725C79.5447 12.6794 81.6138 8.95063 82.3862 7.76421C82.3862 7.76421 83.378 6.21461 82.9341 4.56815L82.9268 4.58429Z" fill="#005FAD"/>
</g>
<defs>
<clipPath id="clip0_2229_98">
<rect width="100" height="41" fill="white"/>
</clipPath>
</defs>
</svg>
