<svg xmlns="http://www.w3.org/2000/svg" width="512" height="288" fill="none" viewBox="0 0 512 288"><g clip-path="url(#a)"><path fill="#fff" d="M512 0H0v288h512V0Z"/><path fill="#FF6E20" d="M198.3 148.6h8.7V167h-9.2v-9.3H137v9.3H128v-18.4h8.7V130c0-4.9 4-9 8.9-9h43.8a9 9 0 0 1 8.9 9v18.7Zm-52.5-18.4v18.4h43.4v-18.4h-43.4ZM225.3 121v46H216v-46h9.2Z"/><path fill="#1C1C1C" d="m285.1 130.2-20.3 14.3 19.5 13.3h20.5v9.2h-22.6l-24.8-17.2-13.8 9.7v7.5h-9.1v-46h9.1v27.8l39.3-27.7h21.9v9.1H285ZM384 130v28c0 5-4 9-8.9 9H323c-5 0-9-4-9-9v-28c0-5 4-9 9-9H375a9 9 0 0 1 8.9 9Zm-9.1.3H323v27.5h51.8v-27.5Z"/><path fill="#1C1C1C" d="M338.3 145.3H329v-9.1h9.3v9.1Zm19.6 0h-9.2v-9.1h9.2v9.1Z"/></g><defs><clipPath id="a"><path fill="#fff" d="M0 0h512v288H0z"/></clipPath></defs></svg>