<svg xmlns="http://www.w3.org/2000/svg" width="512" height="288" fill="none" viewBox="0 0 512 288"><g clip-path="url(#a)"><path fill="#FFF7F2" d="M512 0H0v288h512V0Z"/><path fill="#F26419" d="M128 165v-42.7h20.8c15.9 0 28.5 5.8 28.5 21.4 0 15.5-12.6 21.3-28.5 21.3H128Zm16.3-6h4.5c7.5 0 11.9-4.3 11.9-15.3s-4.4-15.4-12-15.4h-4.3V159ZM184.8 150.8v-20.2h16.3v20.2c0 4.2 2 6.2 5.1 6.2 3.2 0 5.2-2 5.2-6.2v-20.2h16.2V165H220a8 8 0 0 1-8-6.5v-.1c-2.5 4.8-7.1 7.4-13.1 7.4-8.2 0-14-5.2-14-15ZM237.3 165v-34.3h7.6a8 8 0 0 1 8 6.6c2.4-5 6.1-7.4 12-7.4 8 0 13.5 5.4 13.5 12.9 0 2.3-.5 5-1.6 7.2h-15.2c.3-1.8.4-3.4.4-4.7 0-4.2-1.3-6.2-4.1-6.2-2.2 0-4.4 1.7-4.4 6.5v19.3h-16.2ZM284.4 150.8v-20.2h16.2v20.2c0 4.2 2 6.2 5.2 6.2s5.1-2 5.1-6.2v-20.2h16.3V165h-7.7a8 8 0 0 1-8-6.5v-.1c-2.5 4.8-7.2 7.4-13.2 7.4-8.2 0-14-5.2-14-15ZM363.2 165c-15.9 0-28.5-6-28.5-21.3 0-15.6 12.6-21.4 28.5-21.4H384V165h-20.8Zm4.4-36.7h-4.4c-7.5 0-12 4.3-12 15.4 0 11 4.5 15.3 12 15.3h4.4v-30.7Z"/></g><defs><clipPath id="a"><path fill="#fff" d="M0 0h512v288H0z"/></clipPath></defs></svg>