<svg width="1280" height="720" viewBox="0 0 1280 720" fill="none" xmlns="http://www.w3.org/2000/svg">
<g clip-path="url(#clip0_17_3)">
<path d="M1280 0H0V720H1280V0Z" fill="white"/>
<path d="M552.5 377.8C542.7 377.8 534.7 369.8 534.7 360C534.7 350.2 542.7 342.2 552.5 342.2C562.3 342.2 570.3 350.2 570.3 360C570.3 369.8 562.3 377.8 552.5 377.8ZM552.5 346.4C545 346.4 538.9 352.5 538.9 360C538.9 367.5 545 373.6 552.5 373.6C560 373.6 566.1 367.5 566.1 360C566.1 352.5 560 346.4 552.5 346.4Z" fill="#DADADA"/>
<path d="M526.1 362.1H517.1C515.9 362.1 515 361.1 515 360C515 358.9 516 357.9 517.1 357.9H526.1C527.3 357.9 528.2 358.9 528.2 360C528.2 361.1 527.3 362.1 526.1 362.1Z" fill="#DADADA"/>
<path d="M552.5 335.7C551.3 335.7 550.4 334.7 550.4 333.6V324.6C550.4 323.4 551.4 322.5 552.5 322.5C553.6 322.5 554.6 323.5 554.6 324.6V333.6C554.6 334.8 553.7 335.7 552.5 335.7Z" fill="#DADADA"/>
<path d="M587.9 362.1H578.9C577.7 362.1 576.8 361.1 576.8 360C576.8 358.9 577.8 357.9 578.9 357.9H587.9C589.1 357.9 590 358.9 590 360C590 361.1 589 362.1 587.9 362.1Z" fill="#DADADA"/>
<path d="M552.5 397.5C551.3 397.5 550.4 396.5 550.4 395.4V386.4C550.4 385.2 551.4 384.3 552.5 384.3C553.6 384.3 554.6 385.3 554.6 386.4V395.4C554.6 396.5 553.7 397.5 552.5 397.5Z" fill="#DADADA"/>
<path d="M527.5 387.1C527 387.1 526.4 386.9 526 386.5C525.2 385.7 525.2 384.3 526 383.5L532.3 377.2C533.1 376.4 534.5 376.4 535.3 377.2C536.1 378 536.1 379.4 535.3 380.2L529 386.5C528.6 386.9 528 387.1 527.5 387.1Z" fill="#DADADA"/>
<path d="M533.8 343.4C533.3 343.4 532.7 343.2 532.3 342.8L526 336.5C525.2 335.7 525.2 334.3 526 333.5C526.8 332.7 528.2 332.7 529 333.5L535.3 339.8C536.1 340.6 536.1 342 535.3 342.8C534.9 343.2 534.4 343.4 533.8 343.4Z" fill="#DADADA"/>
<path d="M571.2 343.4C570.7 343.4 570.1 343.2 569.7 342.8C568.9 342 568.9 340.6 569.7 339.8L576 333.5C576.8 332.7 578.2 332.7 579 333.5C579.8 334.3 579.8 335.7 579 336.5L572.7 342.8C572.3 343.2 571.7 343.4 571.2 343.4Z" fill="#DADADA"/>
<path d="M577.5 387.1C577 387.1 576.4 386.9 576 386.5L569.7 380.2C568.9 379.4 568.9 378 569.7 377.2C570.5 376.4 571.9 376.4 572.7 377.2L579 383.5C579.8 384.3 579.8 385.7 579 386.5C578.6 386.9 578.1 387.1 577.5 387.1Z" fill="#DADADA"/>
<path d="M404.9 334.5C403.9 333.5 402.9 332.5 401.8 331.6C395.2 326 386.7 322.6 377.4 322.6C368.1 322.6 359.6 326 353 331.6C351.9 332.5 350.9 333.5 349.9 334.5C343.7 341.2 339.8 350.2 339.8 360C339.8 369.8 343.6 378.8 349.9 385.5C350.9 386.5 351.9 387.5 353 388.4C359.6 394 368.1 397.4 377.4 397.4C386.7 397.4 395.2 394 401.8 388.4C402.9 387.5 403.9 386.5 404.9 385.5C411.1 378.8 415 369.8 415 360C415 350.2 411.2 341.2 404.9 334.5ZM366.5 328.6C364.5 331.1 362.7 334.3 361.3 338C359.5 337 357.7 335.8 356.2 334.5C359.2 331.9 362.7 329.9 366.5 328.6ZM353.1 337.4C355.2 339.2 357.5 340.8 360 342.1C358.7 346.8 357.9 352.1 357.7 357.9H344.3C344.8 350 348.1 342.9 353.1 337.4ZM344.3 362.1H357.7C357.9 367.8 358.7 373.2 360 377.9C357.5 379.2 355.2 380.8 353.1 382.6C348.1 377.1 344.8 370 344.3 362.1ZM356.2 385.5C357.8 384.2 359.5 383 361.3 382C362.7 385.7 364.5 388.9 366.5 391.4C362.7 390.1 359.2 388.1 356.2 385.5ZM375.4 392.9C371.6 391.7 367.8 387.1 365.2 380.1C368.4 378.8 371.8 378 375.4 377.8V392.9ZM375.4 373.6C371.4 373.8 367.5 374.7 363.9 376.1C362.8 372 362.1 367.3 361.9 362.1H375.3V373.6H375.4ZM375.4 357.9H362C362.2 352.7 362.9 348 364 343.9C367.6 345.3 371.4 346.2 375.5 346.4V357.9H375.4ZM375.4 342.1C371.8 341.9 368.4 341.1 365.2 339.8C367.8 332.8 371.5 328.3 375.4 327V342.1ZM410.7 357.9H397.3C397.1 352.2 396.3 346.8 395 342.1C397.5 340.8 399.8 339.2 401.9 337.4C406.9 342.9 410.2 350 410.7 357.9ZM398.8 334.5C397.2 335.8 395.5 337 393.6 338C392.2 334.3 390.5 331.1 388.4 328.6C392.3 329.9 395.8 331.9 398.8 334.5ZM379.6 327.1C383.4 328.3 387.2 332.9 389.8 339.9C386.6 341.2 383.2 342 379.6 342.2V327.1ZM379.6 346.4C383.6 346.2 387.5 345.3 391.1 343.9C392.2 348 392.9 352.7 393.1 357.9H379.7V346.4H379.6ZM379.6 362.1H393C392.8 367.3 392.1 372 391 376.1C387.4 374.7 383.6 373.8 379.5 373.6V362.1H379.6ZM379.6 392.9V377.9C383.2 378.1 386.6 378.9 389.8 380.2C387.2 387.1 383.5 391.7 379.6 392.9ZM388.5 391.4C390.5 388.9 392.3 385.7 393.7 382C395.5 383 397.3 384.2 398.9 385.5C395.8 388.1 392.3 390.1 388.5 391.4ZM401.9 382.6C399.8 380.8 397.5 379.2 395 377.9C396.3 373.2 397.1 367.9 397.3 362.1H410.7C410.2 370 406.9 377.1 401.9 382.6Z" fill="#DADADA"/>
<path d="M762.9 350.2C758.4 350.2 756.1 347.4 754.2 345.2C752.3 343 751.2 341.7 748.8 341.7C746.4 341.7 745.2 343 743.4 345.2C741.5 347.4 739.2 350.2 734.7 350.2C730.2 350.2 727.9 347.4 726 345.2C724.1 343 723 341.7 720.6 341.7C718.2 341.7 717 343 715.2 345.2C713.3 347.4 711 350.2 706.5 350.2C702 350.2 699.7 347.4 697.8 345.2C695.9 343 694.8 341.7 692.4 341.7C691.2 341.7 690.3 340.7 690.3 339.6C690.3 338.4 691.3 337.5 692.4 337.5C696.9 337.5 699.2 340.3 701.1 342.5C703 344.7 704.1 346 706.5 346C708.9 346 710.1 344.7 711.9 342.5C713.8 340.3 716.1 337.5 720.6 337.5C725.1 337.5 727.4 340.3 729.3 342.5C731.2 344.7 732.3 346 734.7 346C737.1 346 738.3 344.7 740.1 342.5C742 340.3 744.3 337.5 748.8 337.5C753.3 337.5 755.6 340.3 757.5 342.5C759.4 344.7 760.5 346 762.9 346C764.1 346 765 347 765 348.1C765 349.3 764 350.2 762.9 350.2Z" fill="#DADADA"/>
<path d="M762.9 382.5C758.4 382.5 756.1 379.7 754.2 377.5C752.3 375.3 751.2 374 748.8 374C746.4 374 745.2 375.3 743.4 377.5C741.5 379.7 739.2 382.5 734.7 382.5C730.2 382.5 727.9 379.7 726 377.5C724.1 375.3 723 374 720.6 374C718.2 374 717 375.3 715.2 377.5C713.3 379.7 711 382.5 706.5 382.5C702 382.5 699.7 379.7 697.8 377.5C695.9 375.3 694.8 374 692.4 374C691.2 374 690.3 373 690.3 371.9C690.3 370.7 691.3 369.8 692.4 369.8C696.9 369.8 699.2 372.6 701.1 374.8C703 377 704.1 378.3 706.5 378.3C708.9 378.3 710.1 377 711.9 374.8C713.8 372.6 716.1 369.8 720.6 369.8C725.1 369.8 727.4 372.6 729.3 374.8C731.2 377 732.3 378.3 734.7 378.3C737.1 378.3 738.3 377 740.1 374.8C742 372.6 744.3 369.8 748.8 369.8C753.3 369.8 755.6 372.6 757.5 374.8C759.4 377 760.5 378.3 762.9 378.3C764.1 378.3 765 379.3 765 380.4C765 381.5 764 382.5 762.9 382.5Z" fill="#DADADA"/>
<path d="M762.9 366.4C758.4 366.4 756.1 363.6 754.2 361.4C752.3 359.2 751.2 357.9 748.8 357.9C746.4 357.9 745.2 359.2 743.4 361.4C741.5 363.6 739.2 366.4 734.7 366.4C730.2 366.4 727.9 363.6 726 361.4C724.1 359.2 723 357.9 720.6 357.9C718.2 357.9 717 359.2 715.2 361.4C713.3 363.6 711 366.4 706.5 366.4C702 366.4 699.7 363.6 697.8 361.4C695.9 359.2 694.8 357.9 692.4 357.9C691.2 357.9 690.3 356.9 690.3 355.8C690.3 354.6 691.3 353.7 692.4 353.7C696.9 353.7 699.2 356.5 701.1 358.7C703 360.9 704.1 362.2 706.5 362.2C708.9 362.2 710.1 360.9 711.9 358.7C713.8 356.5 716.1 353.7 720.6 353.7C725.1 353.7 727.4 356.5 729.3 358.7C731.2 360.9 732.3 362.2 734.7 362.2C737.1 362.2 738.3 360.9 740.1 358.7C742 356.5 744.3 353.7 748.8 353.7C753.3 353.7 755.6 356.5 757.5 358.7C759.4 360.9 760.5 362.2 762.9 362.2C764.1 362.2 765 363.2 765 364.3C765 365.4 764 366.4 762.9 366.4Z" fill="#DADADA"/>
<path d="M473.2 361H466.1V368.1H463.9V361H456.9V359H463.9V351.9H466.1V359H473.2V361Z" fill="#DADADA"/>
<path d="M648.2 361H641.1V368.1H638.9V361H631.9V359H638.9V351.9H641.1V359H648.2V361Z" fill="#DADADA"/>
<path d="M902.5 322.5C881.8 322.5 865 339.3 865 360C865 362 865.2 364 865.5 366H886.7C886 364.1 885.6 362.1 885.6 360C885.6 350.7 893.2 343.1 902.5 343.1C911.8 343.1 919.4 350.7 919.4 360C919.4 362.1 919 364.1 918.3 366H939.5C939.8 364 940 362 940 360C940 339.3 923.2 322.5 902.5 322.5Z" fill="#DADADA"/>
<path d="M938.9 369C938.7 369.8 938.5 370.5 938.3 371.2H866.7C866.5 370.5 866.3 369.7 866.1 369H938.9Z" fill="#DADADA"/>
<path d="M937.2 374.2C936.9 375 936.5 375.7 936.2 376.4H868.8C868.4 375.7 868.1 374.9 867.8 374.2H937.2Z" fill="#DADADA"/>
<path d="M934.5 379.5C934 380.3 933.5 381 933 381.7H871.9C871.4 381 870.9 380.2 870.4 379.5H934.5Z" fill="#DADADA"/>
<path d="M930.7 384.8C930 385.6 929.3 386.3 928.6 387H876.6C875.9 386.3 875.1 385.5 874.5 384.8H930.7Z" fill="#DADADA"/>
<path d="M925 390C923.9 390.8 922.8 391.6 921.6 392.2H883.3C882.1 391.5 881 390.8 879.9 390H925Z" fill="#DADADA"/>
<path d="M915.3 395.2C911.3 396.7 907 397.4 902.5 397.4C898 397.4 893.7 396.6 889.7 395.2H915.3Z" fill="#DADADA"/>
<path d="M823.2 355.7V357.7H806.9V355.7H823.2ZM823.2 362.2V364.2H806.9V362.2H823.2Z" fill="#DADADA"/>
<path d="M102 64.7C103 65.5 103.7 66.6 104.1 67.9H101.9C101.6 67.1 101.1 66.5 100.5 66.1C99.8 65.6 99 65.4 98.1 65.4C97.3 65.4 96.7 65.6 96.1 66C95.5 66.4 95 66.9 94.7 67.6C94.4 68.3 94.2 69.1 94.2 70C94.2 70.9 94.4 71.7 94.7 72.4C95 73.1 95.5 73.6 96.1 74C96.7 74.4 97.4 74.6 98.1 74.6C99 74.6 99.8 74.4 100.5 73.9C101.2 73.5 101.6 72.8 101.9 72.1H104.1C103.7 73.5 103 74.5 102 75.3C101 76.1 99.7 76.5 98.1 76.5C96.9 76.5 95.8 76.2 94.9 75.7C94 75.2 93.3 74.4 92.8 73.4C92.3 72.4 92 71.3 92 70C92 68.7 92.3 67.6 92.8 66.6C93.3 65.6 94 64.9 94.9 64.3C95.8 63.7 96.9 63.5 98.1 63.5C99.6 63.5 100.9 63.9 102 64.7Z" fill="#00232B"/>
<path d="M115.2 64.3C116.2 64.9 116.9 65.6 117.4 66.6C117.9 67.6 118.2 68.7 118.2 70C118.2 71.3 117.9 72.4 117.4 73.4C116.9 74.4 116.1 75.2 115.2 75.7C114.3 76.2 113.2 76.5 112 76.5C110.8 76.5 109.7 76.2 108.8 75.7C107.9 75.2 107.1 74.4 106.5 73.4C105.9 72.4 105.7 71.3 105.7 70C105.7 68.7 106 67.6 106.5 66.6C107 65.6 107.8 64.8 108.8 64.3C109.8 63.7 110.8 63.5 112 63.5C113.2 63.5 114.2 63.8 115.2 64.3ZM109.8 66C109.2 66.4 108.7 66.9 108.3 67.6C107.9 68.3 107.8 69.1 107.8 70C107.8 70.9 108 71.7 108.3 72.4C108.7 73.1 109.1 73.6 109.8 74C110.5 74.4 111.2 74.6 112 74.6C112.8 74.6 113.5 74.4 114.2 74C114.9 73.6 115.3 73.1 115.7 72.4C116.1 71.7 116.2 70.9 116.2 70C116.2 69.1 116 68.3 115.7 67.6C115.3 66.9 114.9 66.4 114.2 66C113.5 65.6 112.9 65.4 112 65.4C111.2 65.4 110.5 65.6 109.8 66Z" fill="#00232B"/>
<path d="M130.6 76.4H128.5L122.3 67V76.4H120.2V63.7H122.3L128.5 73.1V63.7H130.6V76.4Z" fill="#00232B"/>
<path d="M142.7 64.7C143.7 65.5 144.4 66.6 144.8 67.9H142.6C142.3 67.1 141.8 66.5 141.2 66.1C140.5 65.6 139.7 65.4 138.8 65.4C138 65.4 137.4 65.6 136.8 66C136.2 66.4 135.7 66.9 135.4 67.6C135.1 68.3 134.9 69.1 134.9 70C134.9 70.9 135.1 71.7 135.4 72.4C135.7 73.1 136.2 73.6 136.8 74C137.4 74.4 138.1 74.6 138.8 74.6C139.7 74.6 140.5 74.4 141.2 73.9C141.9 73.5 142.3 72.8 142.6 72.1H144.8C144.4 73.5 143.7 74.5 142.7 75.3C141.7 76.1 140.4 76.5 138.8 76.5C137.6 76.5 136.5 76.2 135.6 75.7C134.7 75.2 134 74.4 133.5 73.4C133 72.4 132.7 71.3 132.7 70C132.7 68.7 133 67.6 133.5 66.6C134 65.6 134.7 64.9 135.6 64.3C136.5 63.7 137.6 63.5 138.8 63.5C140.3 63.5 141.6 63.9 142.7 64.7Z" fill="#00232B"/>
<path d="M148.8 65.3V69.2H153.5V70.8H148.8V74.7H154V76.4H146.7V63.7H154V65.4H148.8V65.3Z" fill="#00232B"/>
<path d="M158.1 71.4V76.3H156V63.7H160.3C161.8 63.7 162.9 64 163.6 64.7C164.3 65.4 164.7 66.4 164.7 67.6C164.7 68.8 164.3 69.7 163.6 70.4C162.9 71.1 161.8 71.4 160.3 71.4H158.1ZM162.7 67.6C162.7 66.9 162.5 66.3 162.1 66C161.7 65.6 161.1 65.4 160.2 65.4H158.1V69.8H160.2C161.9 69.8 162.7 69 162.7 67.6Z" fill="#00232B"/>
<path d="M174.8 63.7V65.4H171.3V76.5H169.2V65.3H165.7V63.6H174.8V63.7Z" fill="#00232B"/>
<path d="M76 50C76.6 50 77 50.4 77 51V89C77 89.6 76.6 90 76 90C75.4 90 75 89.6 75 89V51C75 50.4 75.4 50 76 50Z" fill="url(#paint0_linear_17_3)"/>
<path d="M1202.9 662.3V661.5H1205V670H1204.1V662.3H1202.9Z" fill="#1D1D1B"/>
</g>
<defs>
<linearGradient id="paint0_linear_17_3" x1="76" y1="50" x2="76" y2="90" gradientUnits="userSpaceOnUse">
<stop stop-color="#78C6D9"/>
<stop offset="1" stop-color="#249BC0"/>
</linearGradient>
<clipPath id="clip0_17_3">
<rect width="1280" height="720" fill="white"/>
</clipPath>
</defs>
</svg>
